 <svg xmlns="http://www.w3.org/2000/svg" viewBox="100 0 580 500" fill="none" >
        <g opacity=".8">    
          <g mask="url(#n)"><path fill="url(#o)" d="M84 88h457v352H84z" /></g>
        </g>
        <g filter="url(#p)">
          <circle cx="489.794" cy="138.794" r="50.794" fill="#fff" />
          <circle cx="489.794" cy="138.794" r="50.794" fill="#039" opacity=".7" />
          <path
            fill="#F8D12E"
            d="m489.516 101.757 1.109 3.413h3.59l-2.904 2.11 1.109 3.414-2.904-2.111-2.904 2.111 1.109-3.414-2.905-2.11h3.59l1.11-3.413zm0 64.443 1.109 3.415h3.59l-2.904 2.11 1.109 3.413-2.904-2.109-2.904 2.109 1.109-3.413-2.905-2.11h3.59l1.11-3.415zm17.686-58.73 1.109 3.414h3.59l-2.904 2.111 1.109 3.414-2.904-2.111-2.904 2.111 1.109-3.414-2.904-2.111h3.591l1.108-3.414zm12.067 11.902 1.109 3.414h3.591l-2.905 2.11 1.109 3.414-2.904-2.11-2.904 2.11 1.109-3.414-2.904-2.11h3.589l1.11-3.414zm.288 30.082 1.108 3.415h3.591l-2.905 2.109 1.11 3.413-2.904-2.109-2.905 2.109 1.11-3.413-2.905-2.109h3.59l1.11-3.415zm-59.358-30.082 1.109 3.414h3.589l-2.903 2.11 1.108 3.414-2.903-2.11-2.904 2.11 1.109-3.414-2.904-2.11h3.59l1.109-3.414zm61.867 14.347 1.109 3.414h3.59l-2.904 2.109 1.109 3.415-2.904-2.109-2.904 2.109 1.11-3.415-2.905-2.109h3.589l1.11-3.414zm-64.61 0 1.109 3.414h3.59l-2.905 2.109 1.11 3.415-2.904-2.109-2.904 2.109 1.109-3.415-2.904-2.109h3.59l1.109-3.414zm2.354 15.735 1.109 3.415h3.589l-2.903 2.109 1.108 3.413-2.903-2.109-2.904 2.109 1.109-3.413-2.905-2.109h3.591l1.109-3.415zm47.913 12.412 1.109 3.414h3.59l-2.905 2.111 1.11 3.414-2.904-2.11-2.905 2.11 1.11-3.414-2.905-2.111h3.591l1.109-3.414zm-35.321-54.396 1.109 3.414h3.59l-2.904 2.111 1.11 3.414-2.905-2.111-2.904 2.111 1.11-3.414-2.905-2.111h3.59l1.109-3.414zm-1.31 54.178 1.11 3.415h3.59l-2.904 2.109 1.109 3.414-2.905-2.108-2.904 2.108 1.11-3.414-2.905-2.109h3.59l1.109-3.415z"
          />
        </g>
        <g filter="url(#q)">
          <g clip-path="url(#r)">
            <path
              fill="#fff"
              d="M482.915 439.831c24.254 0 43.916-19.662 43.916-43.916 0-24.253-19.662-43.915-43.916-43.915C458.662 352 439 371.662 439 395.915c0 24.254 19.662 43.916 43.915 43.916z"
            />
            <g opacity=".7">
              <path
                fill="#F0F0F0"
                d="M482.915 439.831c24.254 0 43.916-19.662 43.916-43.916 0-24.253-19.662-43.915-43.916-43.915C458.662 352 439 371.662 439 395.915c0 24.254 19.662 43.916 43.915 43.916z"
              />
              <path
                fill="#0052B4"
                d="M448.078 369.179a43.752 43.752 0 0 0-7.565 15.281h22.846l-15.281-15.281zm77.24 15.28a43.773 43.773 0 0 0-7.565-15.28l-15.281 15.28h22.846zm-84.805 22.913a43.773 43.773 0 0 0 7.565 15.28l15.28-15.28h-22.845zm69.139-46.294a43.77 43.77 0 0 0-15.281-7.565v22.846l15.281-15.281zm-53.473 69.675a43.773 43.773 0 0 0 15.28 7.565v-22.846l-15.28 15.281zm15.28-77.24a43.773 43.773 0 0 0-15.28 7.565l15.28 15.281v-22.846zm22.913 84.805a43.773 43.773 0 0 0 15.28-7.565l-15.28-15.281v22.846zm8.1-30.946 15.281 15.28a43.773 43.773 0 0 0 7.565-15.28h-22.846z"
              />
              <path
                fill="#D80027"
                d="M526.459 390.187h-37.815v-37.815a44.388 44.388 0 0 0-11.457 0v37.815h-37.815a44.372 44.372 0 0 0 0 11.456h37.815v37.816a44.372 44.372 0 0 0 11.456 0v-37.815h37.816a44.388 44.388 0 0 0 0-11.457z"
              />
              <path
                fill="#D80027"
                d="m494.372 407.372 19.596 19.596a44.445 44.445 0 0 0 2.582-2.819l-16.778-16.777h-5.4zm-22.913 0-19.597 19.596a44.19 44.19 0 0 0 2.82 2.582l16.777-16.778v-5.4zm0-22.913-19.596-19.597a43.608 43.608 0 0 0-2.582 2.82l16.778 16.777h5.4zm22.913.001 19.596-19.597a44.148 44.148 0 0 0-2.819-2.582l-16.777 16.778v5.401z"
              />
            </g>
          </g>
        </g>
        <g filter="url(#s)" transform="translate(20,100)">
          <g clip-path="url(#t)">
            <path fill="#fff" d="M210.444 222.889c24.546 0 44.445-19.899 44.445-44.445S234.99 134 210.444 134 166 153.898 166 178.444c0 24.546 19.898 44.445 44.444 44.445z" />
            <g clip-path="url(#u)" opacity=".7">
              <path fill="#F0F0F0" d="M210.444 222.889c24.546 0 44.445-19.899 44.445-44.445S234.99 134 210.444 134 166 153.898 166 178.444c0 24.546 19.898 44.445 44.444 44.445z" />
              <path
                fill="#D80027"
                d="M208.512 178.444h46.377a44.51 44.51 0 0 0-1.531-11.594h-44.846v11.594zm0-23.188h39.854a44.67 44.67 0 0 0-10.256-11.594h-29.598v11.594zm1.932 67.633a44.257 44.257 0 0 0 27.666-9.662h-55.332a44.259 44.259 0 0 0 27.666 9.662zm-37.921-21.256h75.843a44.178 44.178 0 0 0 4.992-11.595h-85.827a44.178 44.178 0 0 0 4.992 11.595z"
              />
              <path
                fill="#0052B4"
                d="M186.588 140.941h4.05l-3.768 2.737 1.439 4.428-3.767-2.737-3.767 2.737 1.243-3.826a44.696 44.696 0 0 0-8.62 9.608h1.298l-2.398 1.742a44.166 44.166 0 0 0-1.076 1.899l1.145 3.524-2.136-1.552a44.243 44.243 0 0 0-1.454 3.45l1.262 3.883h4.657l-3.768 2.737 1.439 4.429-3.767-2.737-2.256 1.64a44.837 44.837 0 0 0-.344 5.541h44.444V134a44.23 44.23 0 0 0-23.856 6.941zM188.309 174l-3.767-2.737-3.767 2.737 1.439-4.429-3.767-2.737h4.656l1.439-4.428 1.439 4.428h4.657l-3.768 2.737 1.439 4.429zm-1.439-17.376 1.439 4.429-3.767-2.737-3.767 2.737 1.439-4.429-3.767-2.736h4.656l1.439-4.429 1.439 4.429h4.657l-3.768 2.736zM204.251 174l-3.767-2.737-3.767 2.737 1.439-4.429-3.767-2.737h4.656l1.439-4.428 1.439 4.428h4.657l-3.768 2.737 1.439 4.429zm-1.439-17.376 1.439 4.429-3.767-2.737-3.767 2.737 1.439-4.429-3.767-2.736h4.656l1.439-4.429 1.439 4.429h4.657l-3.768 2.736zm0-12.946 1.439 4.428-3.767-2.737-3.767 2.737 1.439-4.428-3.767-2.737h4.656l1.439-4.429 1.439 4.429h4.657l-3.768 2.737z"
              />
            </g>
          </g>
        </g>
        <g filter="url(#x)">
          <circle cx="491" cy="272" r="64" fill="#fff" />
          <g clip-path="url(#y)">
            <path
              fill="#F9C829"
              d="M523 253.849c-.367-.193-33.911-.038-50.586-.135-4.304-.019-7.277 3.513-7.856 6.524-.347 1.756-1.505 7.295-1.505 7.295l57.284.116S523 254.1 523 253.849z"
            />
            <path
              fill="#203A74"
              d="M510.165 290.23a19.104 19.104 0 0 0-1.061-.038h-48.946c-.502 0-1.274.309-1.158-.734.733-4.168 1.486-8.337 2.219-12.506.502-2.799 1.815-9.4 1.815-9.4 4.825.02 9.65.039 14.475.039h41.187c.54 0 1.081.039 1.641.077-.888 5.038-1.834 10.056-2.664 15.112-.656 3.996-3.455 6.852-7.508 7.45z"
            />
            <path
              fill="#FCFCF9"
              d="M519.217 260.72c-.077.328-.27.483-.502.598-3.204 1.409-6.388 2.818-9.592 4.227-.212.097-.483.328-.695.058-.174-.232 0-.502.155-.714.617-.83 1.215-1.66 1.852-2.451.869-1.081 1.062-2.239.56-3.513-.289-.733-.618-1.486-.926-2.219-.116-.271-.251-.56.019-.792.232-.193.482-.038.714.078 2.586 1.351 5.173 2.682 7.759 4.033.309.155.598.348.656.695z"
            />
            <path
              fill="#FAFAFA"
              d="M480.771 277.84c1.64 0 1.64 0 1.93-1.641.116-.656.27-1.312.366-1.988.058-.463.213-.637.715-.656 1.698-.058 1.679-.077 1.37 1.602-.521 2.779-1.004 5.558-1.505 8.338-.058.289-.039.617-.444.617-.599 0-1.216.174-1.795-.096-.193-.097-.039-.425 0-.637.173-1.004.366-2.027.559-3.03.097-.502-.038-.676-.579-.695-2.605-.154-2.605-.154-3.049 2.393-.039.251-.116.502-.154.753-.232 1.37-.232 1.332-1.602 1.351-.753 0-.85-.328-.734-.946.425-2.277.83-4.555 1.235-6.813.135-.733.232-1.467.406-2.181.289-1.216 1.274-.54 1.91-.579.695-.038.309.599.251.946-.096.791-.212 1.602-.405 2.374-.193.733 0 1.023.753.907.251-.039.521-.019.772-.019zm9.148 3.725c-1.023-.309-1.486.366-1.853 1.37-.424 1.197-1.177 1.505-2.374 1.216-.598-.155-.231-.463-.115-.714 1.119-2.413 2.238-4.845 3.358-7.257l.405-.869c.888-1.91.888-1.91 3.03-1.717.386.038.56.135.599.559a813.09 813.09 0 0 0 1.042 9.4c.058.463-.077.656-.56.617-.251-.019-.521-.038-.772 0-.675.097-1.061-.135-1.004-.868 0-.097-.019-.193-.019-.29-.231-1.563.193-1.428-1.737-1.447z"
            />
            <path
              fill="#F9F9F8"
              d="M507.54 284.286c-1.023.019-1.968-.251-2.856-.734-.386-.212-.714-.501-.29-.887.348-.328.213-1.409 1.216-.85.811.444 1.679.811 2.664.579.656-.154 1.003-.54 1.119-1.158.116-.656-.27-1.022-.791-1.293-.405-.193-.83-.347-1.255-.521-2.065-.83-2.567-2.895-1.1-4.613 1.293-1.524 4.497-1.872 6.138-.694.559.405.193.733 0 1.061-.193.328-.251.965-.946.579-.598-.328-1.235-.521-1.93-.521-.772-.019-1.428.193-1.621 1.042-.193.792.482 1.042 1.003 1.332.251.135.541.212.811.309 1.544.637 2.084 1.332 2.065 2.663-.019 1.602-.868 2.876-2.239 3.397-.637.232-1.312.309-1.988.309z"
            />
            <path
              fill="#F9F9F9"
              d="M496.887 284.112c-.927.174-1.12-.154-.946-1.023.56-2.837 1.042-5.674 1.525-8.511.115-.714.347-1.081 1.138-1.004 1.178.116 2.374-.115 3.532.193 1.158.309 1.718 1.004 1.737 2.201 0 2.509-1.544 4.111-4.149 4.168-.714.02-1.139.116-1.158.965-.02.637-.309 1.255-.328 1.892-.058.946-.444 1.351-1.351 1.119z"
            />
            <path
              fill="#F8FAF9"
              d="M470.773 284.286c-2.49 0-3.783-1.235-3.783-3.551 0-2.104.464-4.092 1.95-5.694 1.466-1.583 4.014-2.104 5.828-1.139.367.193 1.062.348.637 1.023-.309.502-.444 1.293-1.467.734-1.582-.869-3.03-.29-3.84 1.331-.521 1.023-.734 2.123-.772 3.262-.039 1.757.984 2.548 2.682 2.085.271-.078.541-.213.811-.29.347-.096.733-.598.984.116.193.56.464 1.061-.347 1.428-.888.367-1.814.714-2.683.695z"
            />
            <path
              fill="#324177"
              d="M491.019 276.025c.386 1.236.213 2.297.386 3.339a.333.333 0 0 1-.308.406c-.502.019-1.043.173-1.506-.097-.193-.116 0-.405.097-.617.405-.946.829-1.892 1.331-3.031z"
            />
            <path
              fill="#283A71"
              d="M499.125 277.724c.097-.502.251-1.081.309-1.641.077-.54.212-.907.888-.83.637.078 1.119.29 1.177 1.023.116 1.255-.617 2.181-1.756 2.181-.598-.019-.656-.058-.618-.733z"
            />
          </g>
        </g>
        <g filter="url(#z)">
          <circle cx="361" cy="352" r="64" fill="#fff" />
          <path
            fill="#176FC1"
            d="M333.406 362.598h-.578l-.576 3.194h.561c1.33 0 1.924-.686 1.924-1.971 0-.81-.45-1.223-1.331-1.223zm-.738 4.892h-.722l-.703 4H329l1.889-10.591h2.964c1.746 0 3.253.668 3.253 2.731 0 2.668-1.794 3.86-4.438 3.86zm8.066-1.621c-.828 0-1.641 1.367-1.641 2.872 0 .775.185 1.23.567 1.23.659 0 1.596-1.489 1.948-3.434l.061-.334c-.138-.108-.368-.334-.935-.334zm2.055 5.621h-2.07l.185-1.064c-.352.547-.875 1.218-2.055 1.218-.983 0-1.933-.762-1.933-2.675 0-2.75 1.641-4.773 3.541-4.773 1.074 0 1.472.441 1.612.579l.076-.425h1.917l-1.273 7.14zm5.778-.439c-1.057 2.095-2.114 3.325-4.568 3.63l-.229-1.488c.935-.29 1.885-.759 2.407-1.81l.213-.425-1.255-6.608h2.192l.551 3.889 1.81-3.889h2.284l-3.405 6.701zm13.433.439h-2.07l.843-4.71c.06-.302.046-.607-.305-.607-.645 0-1.796 1.52-2.117 3.343l-.352 1.974h-2.073l.846-4.71c.06-.302.047-.607-.307-.607-.645 0-1.793 1.52-2.118 3.343l-.351 1.974h-2.069l1.272-7.14h2.069l-.291 1.672c.461-.747 1.181-1.826 2.422-1.826 1.12 0 1.611.716 1.533 1.856.399-.655 1.151-1.856 2.469-1.856 1.274 0 1.733.928 1.472 2.386L362 371.49zm6.025-5.835c-.643 0-1.257.807-1.503 1.962 1.365-.183 2.193-.501 2.193-1.293 0-.455-.277-.669-.69-.669zm-1.61 3.133c.031.787.369 1.183 1.058 1.183.798 0 1.563-.41 2.132-.759l.567 1.337c-.476.349-1.503 1.095-2.989 1.095-1.611 0-2.898-.775-2.898-2.933 0-2.508 1.394-4.515 3.849-4.515 1.839 0 2.636.792 2.636 2.007 0 1.975-1.625 2.447-4.355 2.585zm11.223 2.702h-2.07l.844-4.71c.062-.302.046-.607-.306-.607-.644 0-1.795 1.52-2.116 3.343l-.352 1.974h-2.071l1.273-7.14h2.07l-.29 1.672c.459-.747 1.179-1.826 2.421-1.826 1.272 0 1.732.928 1.474 2.386l-.877 4.908zm6.441-5.621h-1.073l-.627 3.524c-.065.305.043.455.274.455.214 0 .384-.058.584-.15l.213 1.412c-.307.198-.89.534-1.718.534-1.072 0-1.699-.671-1.441-2.112l.645-3.663h-.767l.274-1.519h.768l.429-1.55 1.995-.426-.355 1.976h1.075l-.276 1.519zm5.779.654c-.443-.305-1.15-.638-1.699-.638-.431 0-.723.151-.723.501 0 .318.323.457.753.637l.398.168c.735.303 1.549.789 1.549 2.066 0 1.519-.814 2.387-2.654 2.387-1.501 0-2.377-.655-2.927-1.049l.811-1.412c.538.392 1.38.772 1.933.772.476 0 .673-.165.673-.515s-.336-.503-.765-.67l-.415-.165c-.734-.289-1.518-.776-1.518-2.038 0-1.64 1.275-2.37 2.868-2.37 1.288 0 2.087.639 2.453.911l-.737 1.415zm-27.836-14.376h-4.47l-.434 2.463h3.462l-.321 1.826h-3.46l-.802 4.477h-2.245l1.893-10.591h6.713l-.336 1.825zm2.825 3.144c-.828 0-1.641 1.368-1.641 2.872 0 .776.184 1.231.568 1.231.659 0 1.595-1.488 1.946-3.433l.063-.335c-.137-.107-.367-.335-.936-.335zm2.054 5.622h-2.07l.185-1.064c-.352.548-.873 1.217-2.055 1.217-.981 0-1.931-.761-1.931-2.673 0-2.752 1.641-4.773 3.54-4.773 1.076 0 1.473.441 1.612.577l.076-.425h1.917l-1.274 7.141zm7.011-4.968c-.446-.304-1.151-.639-1.703-.639-.429 0-.722.153-.722.501 0 .32.324.456.751.639l.399.168c.736.304 1.549.788 1.549 2.065 0 1.521-.813 2.386-2.652 2.386-1.503 0-2.375-.653-2.929-1.047l.814-1.414c.535.394 1.379.775 1.931.775.473 0 .675-.167.675-.517 0-.349-.338-.501-.767-.669l-.414-.166c-.735-.29-1.518-.775-1.518-2.036 0-1.641 1.273-2.371 2.867-2.371 1.287 0 2.085.638 2.454.91l-.735 1.415zm5.748-.654h-1.073l-.629 3.527c-.06.303.045.455.275.455.216 0 .384-.061.583-.152l.214 1.412a3.09 3.09 0 0 1-1.716.533c-1.072 0-1.703-.669-1.44-2.112l.644-3.663h-.769l.277-1.519h.766l.43-1.549 1.993-.427-.354 1.976h1.075l-.276 1.519zm4.339-.213c-.643 0-1.258.805-1.502 1.959 1.365-.181 2.192-.5 2.192-1.29 0-.457-.275-.669-.69-.669zm-1.61 3.13c.031.79.368 1.185 1.059 1.185.798 0 1.563-.409 2.131-.758l.567 1.336c-.476.349-1.504 1.094-2.99 1.094-1.61 0-2.898-.774-2.898-2.931 0-2.508 1.395-4.514 3.851-4.514 1.837 0 2.634.79 2.634 2.006 0 1.975-1.625 2.446-4.354 2.582zm10.212-2.37c-1.042 0-2.24.881-2.637 3.101l-.353 1.974h-2.07l1.274-7.141h2.023l-.26 1.504c.473-1.063 1.026-1.656 2.422-1.656l-.399 2.218zm-31.254-11.966v.036c-.003.51-.41 1.022-1.215 1.407l-26.985 12.952c-1.622.78-2.222.145-1.339-1.41l4.938-8.695a8.7 8.7 0 0 0 1.126-4.29c0-1.559-.41-3.022-1.126-4.29l-4.938-8.694c-.883-1.556-.283-2.191 1.339-1.411l26.985 12.951c.805.389 1.212.898 1.215 1.408v.036z"
          />
        </g>
        <g filter="url(#A)"><circle cx="226" cy="299" r="60" fill="#fff" transform="translate(120,-100)" /></g>
        <g clip-path="url(#B)" transform="translate(120,-100)" >
          <path 
            fill="#0F298F"
            d="M206.545 295.102h-4.779c0-.789-.093-1.322-.279-1.578-.278-.394-1.067-.603-2.366-.603-1.253 0-2.089.116-2.483.348-.394.232-.603.719-.603 1.508 0 .696.185 1.16.533 1.369.256.163.604.255 1.021.279l.975.069c2.065.139 3.364.232 3.875.279 1.647.162 2.83.603 3.549 1.299.58.557.928 1.276 1.044 2.158.07.533.093 1.137.093 1.809 0 1.532-.139 2.669-.441 3.388-.533 1.322-1.74 2.134-3.596 2.482-.789.14-1.972.232-3.573.232-2.691 0-4.547-.162-5.615-.487-1.299-.394-2.158-1.183-2.552-2.39-.232-.672-.348-1.786-.348-3.341h4.78v.395c0 .835.232 1.369.719 1.601.325.162.719.255 1.206.255h1.764c.905 0 1.461-.046 1.717-.139.44-.163.719-.441.858-.836a3.22 3.22 0 0 0 .116-.928c0-.835-.302-1.345-.928-1.531-.232-.07-1.299-.162-3.202-.302-1.531-.116-2.598-.208-3.178-.324-1.578-.302-2.622-.905-3.133-1.81-.464-.789-.696-1.949-.696-3.527 0-1.206.116-2.158.371-2.877.256-.719.65-1.276 1.207-1.647.812-.58 1.833-.905 3.086-1.021a39.492 39.492 0 0 1 3.48-.139c2.019 0 3.434.116 4.292.348 2.089.557 3.133 2.134 3.133 4.71 0 .209-.024.533-.047.951zm21.068 13.016V289h9.582c1.322 0 2.32.116 3.016.325 1.578.487 2.645 1.508 3.179 3.039.278.812.417 2.019.417 3.62 0 1.949-.162 3.341-.464 4.176-.626 1.671-1.879 2.645-3.782 2.9-.232.047-1.183.07-2.877.093l-.858.023h-3.063v4.942h-5.15zm5.15-9.373h3.202c1.021-.047 1.648-.116 1.856-.232.302-.163.511-.511.604-.998.069-.325.092-.835.092-1.485 0-.812-.069-1.415-.185-1.81-.186-.556-.627-.881-1.323-.997-.139-.023-.464-.023-.997-.023h-3.249v5.545zm22.019 6.079h-6.891l-.928 3.294h-5.337L247.404 289h7.772L261 308.118h-5.22l-.998-3.294zm-1.021-3.736-2.413-8.283-2.343 8.283h4.756z"
          />
          <path 
            fill="#FFBF00"
            d="M220.513 291.691c2.111 0 4.014.975 5.267 2.506l1.113-2.39c-1.763-1.624-4.106-2.645-6.728-2.645-4.061 0-7.518 2.46-8.956 5.917h-2.158l-1.276 2.738h2.784c-.023.255-.023.51-.023.765 0 .325.023.627.046.928h-1.392l-1.276 2.738h3.388c1.461 3.388 4.872 5.777 8.863 5.777a9.84 9.84 0 0 0 5.429-1.624v-3.364c-1.253 1.415-3.063 2.32-5.104 2.32-2.367 0-4.455-1.229-5.685-3.086h7.1l1.276-2.737h-9.397a7.364 7.364 0 0 1-.069-1.021c0-.232.023-.464.023-.696h10.255l1.276-2.738h-10.626a6.748 6.748 0 0 1 5.87-3.388z"
          />
          <path 
            fill="#0F298F"
            d="M220.513 291.784c2.018 0 3.921.905 5.197 2.483l.093.093.046-.116 1.114-2.39.023-.047-.046-.046a9.845 9.845 0 0 0-6.775-2.668c-1.972 0-3.875.58-5.499 1.67a9.648 9.648 0 0 0-3.527 4.293l.07-.047h-2.204l-.024.047-1.276 2.737-.046.116h2.923l-.092-.092c-.024.278-.024.533-.024.765 0 .302.024.627.047.928l.093-.092h-1.439l-.07.069-1.276 2.738-.046.116h3.527l-.07-.046c1.531 3.526 5.035 5.8 8.956 5.8 1.972 0 3.851-.58 5.476-1.647l.046-.023v-3.597l-.139.163a6.661 6.661 0 0 1-5.035 2.273 6.697 6.697 0 0 1-5.615-3.039l-.069.116h7.146l.023-.046 1.276-2.738.046-.116h-9.559l.093.069a7.254 7.254 0 0 1-.07-.997c0-.232 0-.464.024-.673l-.093.069h10.301l.024-.046 1.276-2.738.046-.116H214.62l.069.116a6.76 6.76 0 0 1 5.824-3.341zm-5.893 3.388h10.626l-.07-.116-1.276 2.737.07-.046h-10.302v.07c-.023.232-.023.464-.023.696 0 .348.023.673.07 1.021v.069h9.489l-.069-.116-1.3 2.738.07-.046h-7.239l.093.116a6.855 6.855 0 0 0 10.905.765l-.14-.046v3.364l.047-.069a9.602 9.602 0 0 1-5.383 1.624c-3.852 0-7.309-2.228-8.817-5.708l-.023-.046h-3.457l.07.116 1.276-2.738-.07.046h1.485v-.093a12.504 12.504 0 0 1-.046-.928c0-.232 0-.487.023-.765v-.093h-2.877l.069.116 1.276-2.738-.069.046h2.204l.023-.046a9.31 9.31 0 0 1 3.457-4.223 9.756 9.756 0 0 1 5.406-1.647c2.483 0 4.85.928 6.636 2.622l-.023-.093-1.114 2.39.139-.023a6.807 6.807 0 0 0-5.336-2.529c-2.436 0-4.71 1.322-5.94 3.433l-.069.116h.209v.024z"
          />
        </g>

      </svg>