<svg xmlns="http://www.w3.org/2000/svg" xmlns:xlink="http://www.w3.org/1999/xlink" viewBox="0 0 526 499">
    <defs>
      <linearGradient id="linear-gradient" x1="311.75" x2="337.54" y1="260.87" y2="260.87" gradientUnits="userSpaceOnUse">
        <stop offset=".43" stop-color="#c4c9e4" />
        <stop offset=".58" stop-color="#d7daec" />
        <stop offset=".85" stop-color="#f4f5fa" />
        <stop offset="1" stop-color="#fff" />
      </linearGradient>
      <linearGradient id="linear-gradient-2" x1="306.07" x2="331.87" y1="263.35" y2="263.35" gradientUnits="userSpaceOnUse">
        <stop offset="0" stop-color="#807dfb" />
        <stop offset=".01" stop-color="#7e7bf9" />
        <stop offset=".45" stop-color="#5d5ad1" />
        <stop offset=".79" stop-color="#4945b8" />
        <stop offset="1" stop-color="#423eaf" />
      </linearGradient>
      <linearGradient id="linear-gradient-3" x1="105.26" x2="186.44" y1="208.77" y2="208.77" gradientUnits="userSpaceOnUse">
        <stop offset="0" stop-color="#d8def0" />
        <stop offset="1" stop-color="#fff" />
      </linearGradient>
      <linearGradient id="linear-gradient-4" x1="103.2" x2="121.41" y1="202.21" y2="202.21" gradientUnits="userSpaceOnUse">
        <stop offset="0" stop-color="#807dfb" />
        <stop offset=".3" stop-color="#5b59b4" />
        <stop offset=".98" stop-color="#020204" />
        <stop offset="1" />
      </linearGradient>
      <linearGradient id="linear-gradient-5" x1="177.29" x2="292.1" y1="168.81" y2="168.81" gradientUnits="userSpaceOnUse">
        <stop offset="0" stop-color="#c4c9e4" />
        <stop offset=".02" stop-color="#c7cce5" />
        <stop offset=".15" stop-color="#e0e2f0" />
        <stop offset=".3" stop-color="#f1f2f8" />
        <stop offset=".45" stop-color="#fbfbfd" />
        <stop offset=".64" stop-color="#fff" />
      </linearGradient>
      <linearGradient id="linear-gradient-6" x1="273.35" x2="291.33" y1="288.07" y2="288.07" gradientUnits="userSpaceOnUse">
        <stop offset="0" stop-color="#c4cae9" />
        <stop offset="1" stop-color="#fff" />
      </linearGradient>
      <linearGradient id="linear-gradient-7" x1="266.18" x2="289.23" y1="287.51" y2="287.51" gradientUnits="userSpaceOnUse">
        <stop offset=".26" stop-color="#6b67e9" />
        <stop offset=".34" stop-color="#5f5bd9" />
        <stop offset=".49" stop-color="#423eb0" />
        <stop offset=".49" stop-color="#423eaf" />
      </linearGradient>
      <linearGradient id="linear-gradient-8" x1="356.76" x2="389.04" y1="192" y2="136.1" gradientUnits="userSpaceOnUse">
        <stop offset="0" stop-color="#fff" />
        <stop offset=".46" stop-color="#f5f5f8" />
        <stop offset="1" stop-color="#f1f1f6" />
      </linearGradient>
      <linearGradient id="linear-gradient-9" x1="271.64" x2="376.31" y1="230.26" y2="230.26" gradientUnits="userSpaceOnUse">
        <stop offset="0" stop-color="#c4cae9" />
        <stop offset=".4" stop-color="#e2e5f4" />
        <stop offset=".76" stop-color="#f7f8fc" />
        <stop offset="1" stop-color="#fff" />
      </linearGradient>
      <linearGradient id="linear-gradient-10" x1="-6345.65" x2="-6271.36" y1="237.2" y2="237.2" gradientTransform="matrix(-1 0 0 1 -6026.85 0)" gradientUnits="userSpaceOnUse">
        <stop offset=".24" stop-color="#423eaf" />
        <stop offset=".3" stop-color="#433fb1" />
        <stop offset=".34" stop-color="#4945b9" />
        <stop offset=".36" stop-color="#524ec6" />
        <stop offset=".39" stop-color="#605cd9" />
        <stop offset=".4" stop-color="#6b67e9" />
      </linearGradient>
      <linearGradient id="linear-gradient-11" x1="270.91" x2="317.81" y1="228.7" y2="228.7" gradientUnits="userSpaceOnUse">
        <stop offset="0" stop-color="#dae0f5" />
        <stop offset=".32" stop-color="#e0e5f6" />
        <stop offset=".77" stop-color="#f2f4fb" />
        <stop offset="1" stop-color="#fff" />
      </linearGradient>
      <linearGradient id="linear-gradient-12" x1="-6272.39" x2="-6364.91" y1="64.45" y2="224.71" gradientTransform="matrix(-1 0 0 1 -6026.85 0)" gradientUnits="userSpaceOnUse">
        <stop offset=".63" stop-color="#6b67e9" />
        <stop offset=".7" stop-color="#201970" />
      </linearGradient>
      <linearGradient id="linear-gradient-13" x1="293.98" x2="293.98" y1="219.9" y2="136.95" gradientUnits="userSpaceOnUse">
        <stop offset="0" stop-color="#c4c9e4" />
        <stop offset=".29" stop-color="#e8eaf4" />
        <stop offset=".5" stop-color="#fff" />
      </linearGradient>
      <linearGradient id="linear-gradient-14" x1="245.44" x2="251.28" y1="168.98" y2="158.86" gradientUnits="userSpaceOnUse">
        <stop offset="0" stop-color="#d1d7f3" />
        <stop offset=".64" stop-color="#f2f3fb" />
        <stop offset="1" stop-color="#fff" />
      </linearGradient>
      <linearGradient id="linear-gradient-15" x1="235.48" x2="255.4" y1="141.74" y2="141.74" gradientUnits="userSpaceOnUse">
        <stop offset="0" stop-color="#4f4e6e" />
        <stop offset=".06" stop-color="#494865" />
        <stop offset=".5" stop-color="#21212f" />
        <stop offset=".82" stop-color="#09090c" />
        <stop offset="1" />
      </linearGradient>
      <linearGradient xlink:href="#linear-gradient-15" id="linear-gradient-16" x1="241.91" y1="167.98" y2="167.98" />
      <linearGradient id="linear-gradient-17" x1="227.73" x2="237.98" y1="200.23" y2="217.98" gradientUnits="userSpaceOnUse">
        <stop offset=".34" stop-color="#807dfb" />
        <stop offset=".45" stop-color="#7976f2" />
        <stop offset=".63" stop-color="#6863d9" />
        <stop offset=".85" stop-color="#4b45b2" />
        <stop offset="1" stop-color="#362e94" />
      </linearGradient>
      <linearGradient id="linear-gradient-18" x1="229.35" x2="242.42" y1="222.11" y2="222.11" gradientUnits="userSpaceOnUse">
        <stop offset="0" stop-color="#c4c9e4" />
        <stop offset=".2" stop-color="#d5d9ec" />
        <stop offset=".7" stop-color="#fff" />
      </linearGradient>
      <linearGradient id="linear-gradient-19" x1="359.36" x2="383.34" y1="296.5" y2="296.5" gradientUnits="userSpaceOnUse">
        <stop offset="0" stop-color="#c4cae9" />
        <stop offset="1" stop-color="#fff" />
      </linearGradient>
      <linearGradient id="linear-gradient-20" x1="-6062.67" x2="-6002.12" y1="292.32" y2="292.32" gradientTransform="matrix(-1 0 0 1 -5681.05 0)" gradientUnits="userSpaceOnUse">
        <stop offset=".27" stop-color="#423eaf" />
        <stop offset=".3" stop-color="#4541b2" />
        <stop offset=".32" stop-color="#4e4abe" />
        <stop offset=".35" stop-color="#5e5ad1" />
        <stop offset=".38" stop-color="#7471ed" />
        <stop offset=".39" stop-color="#807dfb" />
      </linearGradient>
      <linearGradient id="linear-gradient-21" x1="294.93" x2="327.17" y1="310.18" y2="310.18" gradientUnits="userSpaceOnUse">
        <stop offset=".37" stop-color="#c4c9e4" />
        <stop offset="1" stop-color="#fff" />
      </linearGradient>
      <linearGradient id="linear-gradient-22" x1="288.19" x2="319.77" y1="312.7" y2="312.7" gradientUnits="userSpaceOnUse">
        <stop offset="0" stop-color="#fcba05" />
        <stop offset="1" stop-color="#e19100" />
      </linearGradient>
      <linearGradient xlink:href="#linear-gradient-22" id="linear-gradient-23" x1="299.1" x2="306.03" y1="309.1" y2="309.1" />
      <linearGradient xlink:href="#linear-gradient-22" id="linear-gradient-24" x1="295.31" x2="326.89" y1="304.27" y2="304.27" />
      <linearGradient xlink:href="#linear-gradient-22" id="linear-gradient-25" x1="306.23" x2="313.16" y1="300.66" y2="300.66" />
      <linearGradient id="linear-gradient-26" x1="127.4" x2="144.16" y1="155.3" y2="126.25" gradientUnits="userSpaceOnUse">
        <stop offset="0" stop-color="#ced3f8" />
        <stop offset="0" stop-color="#ced3f8" />
        <stop offset=".64" stop-color="#ebecfa" />
        <stop offset="1" stop-color="#f6f6fb" />
      </linearGradient>
      <linearGradient id="linear-gradient-27" x1="-6458.07" x2="-6441.31" y1="235.33" y2="206.29" gradientTransform="matrix(-1 0 0 1 -6023.44 0)" gradientUnits="userSpaceOnUse">
        <stop offset="0" stop-color="#bbc0e6" />
        <stop offset=".54" stop-color="#d8dbf0" />
        <stop offset="1" stop-color="#f6f6fb" />
      </linearGradient>
      <linearGradient xlink:href="#linear-gradient-6" id="linear-gradient-28" x1="251.18" x2="279.1" y1="268.16" y2="268.16" gradientTransform="translate(13.38)" />
      <linearGradient id="linear-gradient-29" x1="-6366.71" x2="-6290.15" y1="260.02" y2="260.02" gradientTransform="matrix(-1 0 0 1 -6077.01 0)" gradientUnits="userSpaceOnUse">
        <stop offset=".26" stop-color="#423eaf" />
        <stop offset=".29" stop-color="#4d49be" />
        <stop offset=".34" stop-color="#6a66e7" />
        <stop offset=".34" stop-color="#6b67e9" />
      </linearGradient>
      <linearGradient xlink:href="#linear-gradient-6" id="linear-gradient-30" x1="214.7" x2="223.98" y1="270.69" y2="248.42" />
      <linearGradient xlink:href="#linear-gradient-6" id="linear-gradient-31" x1="229.2" x2="246.4" y1="299.27" y2="257.99" />
      <linearGradient id="linear-gradient-32" x1="189.31" x2="190.62" y1="274.11" y2="270.98" gradientUnits="userSpaceOnUse">
        <stop offset="0" stop-color="#e19100" />
        <stop offset=".58" stop-color="#f2ab03" />
        <stop offset="1" stop-color="#fcba05" />
      </linearGradient>
      <linearGradient id="linear-gradient-33" x1="-6912.67" x2="-6882.48" y1="363.57" y2="363.57" gradientTransform="matrix(-1 0 0 1 -6659.93 0)" gradientUnits="userSpaceOnUse">
        <stop offset="0" stop-color="#362e94" />
        <stop offset="1" stop-color="#362e94" />
      </linearGradient>
      <linearGradient id="linear-gradient-34" x1="238.67" x2="127.24" y1="349.02" y2="349.02" gradientUnits="userSpaceOnUse">
        <stop offset=".36" stop-color="#a3a9d0" />
        <stop offset=".75" stop-color="#c0c5eb" />
        <stop offset="1" stop-color="#ced3f8" />
      </linearGradient>
      <linearGradient id="linear-gradient-35" x1="-6935.93" x2="-6905.74" y1="379.46" y2="379.46" gradientTransform="matrix(-1 0 0 1 -6659.93 0)" gradientUnits="userSpaceOnUse">
        <stop offset="0" stop-color="#423eaf" />
        <stop offset=".38" stop-color="#3c37a3" />
        <stop offset="1" stop-color="#362e94" />
      </linearGradient>
      <linearGradient id="linear-gradient-36" x1="-6924.64" x2="-6807.84" y1="338.13" y2="338.13" gradientTransform="matrix(-1 0 0 1 -6659.93 0)" gradientUnits="userSpaceOnUse">
        <stop offset="0" stop-color="#5652cc" />
        <stop offset=".09" stop-color="#4d48bd" />
        <stop offset=".26" stop-color="#403aa6" />
        <stop offset=".43" stop-color="#383198" />
        <stop offset=".58" stop-color="#362e94" />
      </linearGradient>
      <linearGradient id="linear-gradient-37" x1="238.67" x2="127.24" y1="329.27" y2="329.27" gradientUnits="userSpaceOnUse">
        <stop offset=".36" stop-color="#bbc0e6" />
        <stop offset=".44" stop-color="#c3c8e9" />
        <stop offset=".8" stop-color="#e8e9f6" />
        <stop offset="1" stop-color="#f6f6fb" />
      </linearGradient>
      <linearGradient id="linear-gradient-38" x1="379.6" x2="429.99" y1="267.07" y2="267.07" gradientUnits="userSpaceOnUse">
        <stop offset="0" stop-color="#c4c9e4" />
        <stop offset=".21" stop-color="#d7daec" />
        <stop offset=".59" stop-color="#f4f5fa" />
        <stop offset=".8" stop-color="#fff" />
      </linearGradient>
      <linearGradient id="linear-gradient-39" x1="379.6" x2="379.6" y1="220.47" y2="227.34" gradientUnits="userSpaceOnUse">
        <stop offset="0" stop-color="#f6f6fb" />
        <stop offset="1" stop-color="#fff" />
      </linearGradient>
      <linearGradient id="linear-gradient-40" x1="361.72" x2="374.43" y1="228.37" y2="228.37" gradientUnits="userSpaceOnUse">
        <stop offset="0" stop-color="#e8edf9" />
        <stop offset=".14" stop-color="#bdc1cb" />
        <stop offset=".38" stop-color="#7a7d83" />
        <stop offset=".59" stop-color="#45474b" />
        <stop offset=".77" stop-color="#1f2022" />
        <stop offset=".91" stop-color="#080809" />
        <stop offset="1" />
      </linearGradient>
      <linearGradient id="linear-gradient-41" x1="-6625.08" x2="-6612.48" y1="235.56" y2="235.56" gradientTransform="matrix(-1 0 0 1 -6227.59 0)" gradientUnits="userSpaceOnUse">
        <stop offset="0" stop-color="#e8edf9" />
        <stop offset=".03" stop-color="#dee3ee" />
        <stop offset=".23" stop-color="#a0a5ad" />
        <stop offset=".43" stop-color="#6c7177" />
        <stop offset=".61" stop-color="#44484d" />
        <stop offset=".77" stop-color="#272b2f" />
        <stop offset=".9" stop-color="#161a1c" />
        <stop offset="1" stop-color="#101416" />
      </linearGradient>
      <clipPath id="clippath"><path d="M313.01 350.16 136.33 248.15v4.39l.26-.1-18.22 93.84 176.56 101.94 18.23-93.9-.27.16.12-4.32z" class="cls-63" /></clipPath>
      <clipPath id="clippath-1"><path d="M313.01 350.16 136.33 248.15v4.39l.26-.1-18.22 93.84 176.56 101.94 18.23-93.9-.27.16.12-4.32z" class="cls-63" /></clipPath>
      <style>
        .cls-12 {
          mix-blend-mode: multiply;
        }
        .cls-21 {
          fill: #fff;
        }
        .cls-23 {
          fill: #db4949;
        }
        .cls-24 {
          fill: #f55c59;
        }
        .cls-31 {
          fill: #f6f6fb;
        }
        .cls-33 {
          fill: #c13d3d;
        }
        .cls-36 {
          fill: #bdc3e3;
        }
        .cls-38 {
          fill: #362e94;
        }
        .cls-12 {
          fill: #dae0f5;
        }
        .cls-42 {
          fill: #fcd1a9;
        }
        .cls-45 {
          fill: #d8def0;
        }
        .cls-46 {
          fill: #e19100;
        }
        .cls-49 {
          fill: #201970;
        }
        .cls-50 {
          fill: #fc6b6b;
        }
        .cls-51 {
          fill: #423eac;
        }
        .cls-52 {
          fill: #5652ca;
        }
        .cls-53 {
          fill: #ffd03e;
        }
        .cls-54 {
          fill: #ced3f8;
        }
        .cls-55 {
          fill: #6b67e9;
        }
        .cls-58 {
          fill: #ffe54c;
        }
        .cls-61 {
          fill: #fcba05;
        }
        .cls-62 {
          fill: #807dfb;
        }
        .cls-63 {
          fill: none;
        }
        .cls-64 {
          fill: #5652cc;
        }
        .cls-66 {
          fill: #a3a9d0;
        }
        .cls-67 {
          fill: #131147;
        }
        .cls-68 {
          fill: #dfe4f4;
        }
        .cls-69 {
          fill: #e9edf6;
        }
        .cls-70 {
          fill: #423eaf;
        }
        .cls-72 {
          fill: #bbc0e6;
        }
        .cls-75 {
          fill: #f1f1f6;
        }
      </style>
    </defs>
    <g style="isolation: isolate">
      <g id="Layer_2" data-name="Layer 2">
        <g id="Layer_1-2" data-name="Layer 1">
          <path d="M0 0h526v499H0z" class="cls-63" />
          <path d="m405.91 379.12-19.69-77.76 5.99-3.46 19.69 77.77-5.99 3.45zM296.57 442.25l19.7-100.5-5.99 3.45-19.7 100.51 5.99-3.46z" class="cls-70" />
          <path d="m290.58 445.71-5.99-3.46 19.7-100.5 5.99 3.45-19.7 100.51zM405.91 379.12l-5.98-3.45-19.7-77.77 5.99 3.46 19.69 77.76z" class="cls-55" />
          <path d="M308.55 332.61v19.36l95.38-55.07v-19.36l-95.38 55.07z" class="cls-70" />
          <path d="M292.58 323.38v19.37l15.97 9.22v-19.36l-15.97-9.23z" class="cls-55" />
          <path d="m229.35 265.51-19.7-66.09 5.99-3.45 19.7 66.08-5.99 3.46zM120.01 340.31l19.7-100.5-5.99 3.45-19.7 100.51 5.99-3.46z" class="cls-70" />
          <path d="m114.02 343.77-5.99-3.46 19.7-100.5 5.99 3.45-19.7 100.51zM229.35 265.51l-5.99-3.46-19.69-66.08 5.98 3.45 19.7 66.09z" class="cls-55" />
          <path d="M131.98 230.67v19.36l95.38-55.07V175.6l-95.38 55.07z" class="cls-70" />
          <path d="M116.01 221.44v19.37l15.97 9.22v-19.36l-15.97-9.23z" class="cls-55" />
          <path d="M308.67 347.65 89.95 221.37v-5.53l218.72 126.28v5.53z" class="cls-54" />
          <path d="m308.67 342.12 121.32-70.04v5.53l-121.32 70.04v-5.53z" class="cls-72" />
          <path d="m89.95 215.84 121.32-70.04 218.72 126.28-121.32 70.04L89.95 215.84z" class="cls-75" />
          <path
            fill="url(#linear-gradient)"
            d="M333.73 255.58c-2.7-1.56-6.28-2.27-9.8-2.17h-5.52v.9c-1.05.33-2.04.75-2.92 1.27-5.02 2.92-4.99 7.65.06 10.56.87.5 1.84.91 2.86 1.24v.94h6.62c3.18-.05 6.34-.78 8.76-2.18 5.02-2.92 4.99-7.65-.06-10.57Z"
            style="mix-blend-mode: multiply"
          />
          <path
            fill="url(#linear-gradient-2)"
            d="M309.88 266.15c-2.54-1.47-3.81-3.39-3.81-5.32v-2.46c0 1.93 1.28 3.85 3.82 5.32 5.05 2.92 13.22 2.92 18.24 0 2.49-1.45 3.74-3.35 3.75-5.25v2.46c-.02 1.9-1.27 3.79-3.76 5.25-5.02 2.92-13.18 2.92-18.24 0Z"
          />
          <path d="M309.89 263.69c-5.05-2.92-5.08-7.65-.06-10.56 5.02-2.92 13.19-2.92 18.24 0 5.05 2.92 5.08 7.65.06 10.56-5.02 2.91-13.18 2.91-18.24 0Z" class="cls-21" />
          <path d="m325.59 257.8-9.54.49.29-2.15h-2.63l-.72 3.91 12.6-.72v-1.53z" class="cls-72" />
          <path
            fill="url(#linear-gradient-3)"
            d="M186.44 211.61v-19.84h-28.25l-2.47 1.43h-3.22l-27.05 15.62-3.51 2.03c-1.88 1.09-6.46 1.97-10.22 1.97l-1.11.64h-1.2l-4.16 2.4 17.18 9.92h16.77l19.13-2.96h2.17l7.06-4.08-2.93-1.69h12.4l9.4-5.43Z"
            style="mix-blend-mode: multiply"
          />
          <path
            d="M123.86 221.87c-.55-.32-.9-1.01-.9-1.98 0-1.95 1.37-4.32 3.06-5.3.84-.49 1.61-.53 2.16-.21.55.32.9 1 .9 1.98 0 1.95-1.37 4.32-3.06 5.3-.84.49-1.61.53-2.16.22Z"
            class="cls-49"
          />
          <path d="M124.34 219.1c0-1.07.75-2.38 1.69-2.92.93-.54 1.68-.1 1.68.97s-.75 2.38-1.68 2.92c-.93.54-1.69.1-1.69-.97Z" class="cls-72" />
          <path
            d="M122.97 219.89c0-1.95 1.37-4.32 3.06-5.3.84-.49 1.61-.53 2.16-.21l-2.34-1.35c-.55-.32-1.32-.27-2.16.21-1.69.98-3.06 3.35-3.06 5.3 0 .98.34 1.66.9 1.98l2.34 1.35c-.55-.32-.9-1.01-.9-1.98Z"
            class="cls-67"
          />
          <path
            d="M148.66 207.55c-.55-.32-.9-1.01-.9-1.98 0-1.95 1.37-4.32 3.06-5.3.84-.49 1.61-.53 2.16-.21s.9 1.01.9 1.98c0 1.95-1.37 4.32-3.06 5.3-.85.49-1.61.53-2.16.21Z"
            class="cls-49"
          />
          <path d="M149.14 204.78c0-1.07.76-2.38 1.69-2.92.93-.54 1.68-.1 1.68.97s-.75 2.38-1.68 2.92c-.93.54-1.69.1-1.69-.97Z" class="cls-72" />
          <path
            d="M147.77 205.57c0-1.95 1.37-4.32 3.06-5.3.85-.49 1.61-.53 2.16-.21l-2.34-1.35c-.55-.32-1.32-.27-2.16.21-1.69.98-3.06 3.35-3.06 5.3 0 .98.34 1.66.9 1.98l2.34 1.35c-.55-.32-.9-1.01-.9-1.98Z"
            class="cls-67"
          />
          <path
            d="M142 211.4c-.55-.32-.9-1.01-.9-1.98 0-1.95 1.37-4.32 3.06-5.3.84-.49 1.61-.53 2.16-.22s.9 1.01.9 1.98c0 1.95-1.37 4.32-3.06 5.3-.85.49-1.61.53-2.16.21Z"
            class="cls-49"
          />
          <path d="M142.48 208.63c0-1.07.76-2.38 1.69-2.92.93-.54 1.68-.1 1.68.97s-.75 2.38-1.68 2.92c-.93.54-1.69.1-1.69-.97Z" class="cls-72" />
          <path
            d="M141.1 209.42c0-1.95 1.37-4.32 3.06-5.3.84-.49 1.61-.53 2.16-.22l-2.34-1.35c-.55-.32-1.32-.27-2.16.21-1.69.98-3.06 3.35-3.06 5.3 0 .98.34 1.66.9 1.98l2.34 1.35c-.55-.32-.9-1.01-.9-1.98Z"
            class="cls-67"
          />
          <path d="m157.1 194.2-27.05 15.61-15.83-9.14 27.04-15.62 15.84 9.15z" class="cls-64" />
          <path d="m157.1 196.83-27.05 15.62v-2.64l27.05-15.61v2.63z" class="cls-38" />
          <path d="m130.05 212.45-15.83-9.14v-2.64l15.83 9.14v2.64z" class="cls-70" />
          <path d="m159.57 177.24-26.58 15.35-17.19-9.92 26.59-15.35 17.18 9.92z" class="cls-24" />
          <path d="m152.42 173.11-26.58 15.35-2.88-1.67 26.58-15.34 2.88 1.66z" class="cls-31" />
          <path d="m159.57 193.55-26.58 15.35v-16.31l26.58-15.35v16.31z" class="cls-33" />
          <path d="m132.99 208.9-17.19-9.93v-16.3l17.19 9.92v16.31z" class="cls-23" />
          <path
            d="m158.06 191.53-.71 1.23v-2.69l-.44.25v2.69l-.71-.41-.31.54 1.24.71 1.24-2.14-.31-.18zM154.91 193.35l-.71 1.23v-2.7l-.44.26v2.69l-.71-.41-.31.54 1.24.71 1.24-2.14-.31-.18z"
            class="cls-49"
          />
          <path d="m139.92 191.01-5.43 3.13v-.77l5.43-3.14v.78zM137.96 193.82l-3.47 2.01v-.77l3.47-2.01v.77zM125.84 188.46v3.59l-2.88-1.66v-3.6l2.88 1.67z" class="cls-54" />
          <path d="M129.55 212.16v-14.39l-7.06 4.08v1.25l-5.13 11.05v8.99l5.27-3.04c0-2.17 1.53-4.82 3.41-5.9l3.51-2.03Z" class="cls-38" />
          <path d="m128.44 207.74-10.28 5.93 5.13-11.04 5.15-2.97v8.08z" class="cls-72" />
          <path d="m128.44 211.59-5.56 3.21v-3.85l5.56-3.21v3.85z" class="cls-70" />
          <path d="m123.5 202.51-.21.12-.41.88v7.44l.62-.36v-8.08z" class="cls-38" />
          <path d="m122.49 201.84-14.83-8.56 7.06-4.08 14.83 8.56-7.06 4.08z" class="cls-64" />
          <path d="m107.66 194.53 14.83 8.56v-1.25l-14.83-8.56v1.25z" class="cls-70" />
          <path fill="#e1e5f1" d="M116.69 213.75c-4.5-2.6-9-5.19-13.49-7.79 1.71-3.68 3.42-7.36 5.13-11.05 4.5 2.6 9 5.19 13.49 7.79l-5.13 11.04Z" />
          <path
            d="M116.69 213.75c.27.15.4.23.67.38 1.71-3.68 3.42-7.36 5.13-11.05-.27-.15-.4-.23-.67-.38l-5.13 11.04ZM102.53 205.58c.27.15.4.23.67.39 1.71-3.68 3.42-7.36 5.13-11.05-.27-.15-.4-.23-.67-.38l-5.13 11.04Z"
            class="cls-64"
          />
          <path d="M117.36 214.14v8.99l-14.83-8.56v-8.99l14.83 8.56z" class="cls-70" />
          <path d="M113.43 214.64v2.68l-6.98-4.03v-2.68c0-.57.4-.81.9-.52l5.18 2.99c.5.29.9.98.9 1.56Z" class="cls-49" />
          <path d="m116.69 217.28-2.58-1.49v-1.17l2.58 1.49v1.17z" class="cls-21" />
          <path d="m116.69 218.62-1.29-.75v-.58l1.29.74v.59zM103.2 210.83l1.29.74v-.58l-1.29-.75v.59z" class="cls-38" />
          <path d="m103.2 209.49 2.58 1.49v-1.17l-2.58-1.49v1.17z" class="cls-21" />
          <path d="m117.36 220.28 4.15-2.4v3.54l-4.15 2.4v-3.54z" class="cls-72" />
          <path d="m101.33 211.03 16.03 9.25v3.54l-16.03-9.25v-3.54z" class="cls-54" />
          <path d="m102.53 210.33-1.2.7 16.03 9.25 4.15-2.4-.6-.35-3.55 2.05-14.83-8.55v-.7z" class="cls-31" />
          <path
            fill="url(#linear-gradient-4)"
            d="m119.68 201.47-14.21 5.8c.5.29 1 .58 1.5.86l14.21-5.8c-.5-.29-1-.58-1.49-.86Zm-11.34 7.46c.33.19.65.38.98.57l11.54-4.71c.18-.4.37-.79.55-1.19l-13.07 5.34Zm0-14.01c-1.71 3.68-3.42 7.36-5.13 11.05l14.21-5.8c-3.03-1.75-6.05-3.5-9.08-5.24Z"
            style="mix-blend-mode: screen"
          />
          <path
            fill="url(#linear-gradient-5)"
            d="M275.29 150.7c-31.37.35-37.5.7-68.87 1.04 14.65 8.46 2.63 1.52 15 8.66-14.71 8.49-29.41 16.98-44.12 25.47 31.37.35 37.5.7 68.87 1.04l45.93-26.52-16.8-9.7Z"
            style="mix-blend-mode: multiply"
          />
          <path
            d="M193.44 112.84v-11.38c0-2.78-.97-4.87-2.74-5.89-1.77-1.02-4.07-.82-6.47.58-4.71 2.72-8.54 9.36-8.54 14.8v11.38a.67.67 0 0 0 1.34 0v-11.38c0-5.01 3.53-11.13 7.87-13.63 1.97-1.14 3.8-1.35 5.13-.58 1.33.77 2.07 2.45 2.07 4.73v11.38a.67.67 0 0 0 1.34 0Z"
            class="cls-72"
          />
          <path
            d="M221.44 160.39c-14.72 8.5-29.43 16.99-44.15 25.49l-1.74-52.23c14.72-8.5 29.43-16.99 44.15-25.49l1.74 52.23ZM164.92 127.51l-1.74 50.22 10.54-2.75v-46.41l-8.8-1.06z"
            class="cls-38"
          />
          <path d="m177.29 185.88-1.74-52.23-1.83-5.08v46.41l3.57 10.9z" class="cls-70" />
          <path
            d="m210.91 107.1-1.84-5.08-44.15 25.49 8.79 1.06 1.84 5.08 44.15-25.49-8.79-1.06Zm-36.15 20.87-7.35-.89 40.93-23.63c.52 1.43 1.54 4.25 1.54 4.25l7.35.89-40.93 23.63c-.52-1.43-1.53-4.25-1.53-4.25ZM177.29 185.88l-14.11-8.15 10.54-2.75 3.57 10.9z"
            class="cls-64"
          />
          <path d="M208.33 103.45v10.27l-32.04 18.5-1.53-4.25-7.36-.89 40.93-23.63z" class="cls-49" />
          <path d="M209.87 107.7v5.13l-1.54.89v-10.27l1.54 4.25z" class="cls-38" />
          <path d="m209.87 107.7 7.35.88-7.35 4.25v-5.13z" class="cls-49" />
          <path
            d="M179.55 123.46c0-.51.36-1.12.79-1.37.44-.25.79-.05.79.46s-.36 1.12-.79 1.37c-.44.25-.79.05-.79-.46ZM195.96 113.98c0-.51.36-1.12.79-1.37.44-.25.79-.05.79.46s-.35 1.12-.79 1.37c-.44.25-.79.05-.79-.46Z"
            class="cls-66"
          />
          <path
            d="M209.21 121.95v-11.38c0-2.78-.97-4.87-2.74-5.89-1.77-1.02-4.06-.81-6.47.58-4.71 2.72-8.54 9.36-8.54 14.8v11.38a.67.67 0 0 0 1.34 0v-11.38c0-5.01 3.53-11.13 7.87-13.63 1.98-1.14 3.8-1.35 5.13-.58 1.33.77 2.07 2.45 2.07 4.73v11.38a.67.67 0 0 0 1.34 0Z"
            class="cls-54"
          />
          <path d="m205.14 171.2-13.39-7.73 13.39-7.73 13.38 7.73-13.38 7.73z" class="cls-62" />
          <path d="m205.14 185.26 13.38-7.73v-14.06l-13.38 7.73v14.06z" class="cls-70" />
          <path d="m205.14 185.26-13.39-7.73v-14.06l13.39 7.73v14.06z" class="cls-64" />
          <path d="m199.62 182.07-2.76-1.59v-14.06l2.76 1.59v14.06z" class="cls-54" />
          <path d="m199.62 168.01-2.76-1.59 13.39-7.73 2.75 1.59-13.38 7.73z" class="cls-31" />
          <path d="m210.65 182.07 2.76-1.59v-14.06l-2.76 1.59v14.06z" class="cls-72" />
          <path d="m210.65 168.01 2.76-1.59-13.38-7.73-2.76 1.59 13.38 7.73z" class="cls-31" />
          <path
            fill="url(#linear-gradient-6)"
            d="M289.23 283.33s-.47 1.72-1.43 2.28l-9.14 5.28-.46-.32s-2.16 1.12-4.84 2.23c5.14 0 5.91-.35 6.88-.84 5.7-2.54 8.22-3.91 11-6.28.63-.58-2-2.35-2-2.35Z"
            style="mix-blend-mode: multiply"
          />
          <path
            d="M287.79 280.63c.91.52 1.43 1.07 1.44 1.57.02.56-.56 1.06-1.56 1.43-4.1 1.6-6.48 3.06-10.88 6.35-1.91 1.51-5.04 2.12-6.96 1.02-.89-.51-1.34-.77-2.23-1.29-.96-.55-1.4-1.38-1.42-2.27-.02-.88.38-1.81 1.35-2.58 4.19-3.4 7.01-4.95 10.96-6.44 1.9-.69 5.16-.18 7.08.92.89.51 1.34.77 2.23 1.29Z"
            class="cls-21"
          />
          <path
            fill="url(#linear-gradient-7)"
            d="M287.67 283.63c-4.1 1.6-6.48 3.06-10.88 6.35-1.91 1.51-5.04 2.12-6.96 1.02-.89-.51-1.34-.77-2.23-1.29-.96-.55-1.4-1.38-1.42-2.27v1.38c.06.68.53 1.35 1.43 1.86l2.23 1.29c1.92 1.1 5.02 1.11 6.94 0l11.02-6.36c.97-.56 1.45-1.3 1.43-2.03v-1.38c.02.56-.56 1.06-1.56 1.43Z"
          />
          <path d="M280.62 282.3c-.44-.25-.45-.62-.02-.77.43-.15 1.16 0 1.59.25.39.22.42.5-.01.65-.43.15-1.15.1-1.56-.14Z" class="cls-72" />
          <path
            fill="url(#linear-gradient-8)"
            d="M398.23 209.02c0 3.8-2.7 5.36-5.99 3.46l-38.67-22.33c-3.29-1.9-5.99-6.57-5.99-10.37v-60.7c0-3.8 2.7-5.36 5.99-3.46l38.67 22.33c3.29 1.9 5.99 6.57 5.99 10.37v60.7Z"
          />
          <path d="M353.09 125.85c0-2.34 1.64-3.29 3.67-2.12 2.03 1.17 3.67 4.02 3.67 6.36 0 2.34-1.64 3.29-3.67 2.12-2.03-1.17-3.67-4.02-3.67-6.36Z" class="cls-54" />
          <path d="m363.65 130.13 23.21 13.4v3.63l-23.21-13.4v-3.63z" class="cls-62" />
          <path
            d="M353.09 138.13c0-2.34 1.64-3.29 3.67-2.12 2.03 1.17 3.67 4.02 3.67 6.36 0 2.34-1.64 3.29-3.67 2.12-2.03-1.17-3.67-4.02-3.67-6.36ZM363.65 142.41l17.67 10.2v3.63l-17.67-10.21v-3.62zM353.09 150.4c0-2.34 1.64-3.29 3.67-2.12 2.03 1.17 3.67 4.02 3.67 6.36 0 2.34-1.64 3.29-3.67 2.12-2.03-1.17-3.67-4.02-3.67-6.36ZM363.65 154.68l11.98 6.92v3.63l-11.98-6.92v-3.63z"
            class="cls-54"
          />
          <path
            d="M353.09 162.68c0-2.34 1.64-3.29 3.67-2.12 2.03 1.17 3.67 4.02 3.67 6.36 0 2.34-1.64 3.29-3.67 2.12-2.03-1.17-3.67-4.02-3.67-6.36ZM353.09 174.95c0-2.34 1.64-3.29 3.67-2.12 2.03 1.17 3.67 4.02 3.67 6.36 0 2.34-1.64 3.29-3.67 2.12-2.03-1.17-3.67-4.02-3.67-6.36Z"
            class="cls-24"
          />
          <path
            d="m356.52 130.14.37-.46 2.91-3.59-1.01-1.33-2.54 3.14-1.28-1.97-.77.62 1.8 2.78.52.81zM356.25 140.18l-1.28-1.97-.77.61 1.8 2.78.52.81.37-.45 2.91-3.6-1.01-1.32-2.54 3.14zM356.25 152.46l-1.28-1.98-.77.62 1.8 2.78.52.81.37-.45 2.91-3.6-1.01-1.33-2.54 3.15z"
            class="cls-64"
          />
          <path
            fill="url(#linear-gradient-9)"
            d="M319.8 241.09h56.52l-57.3-33.08-45.83 26.32c-2.05 1.18-2.05 3.12 0 4.31 0 0 21.89 12.63 21.99 12.68l-3.34 1.2h5.37c2.06 0 3.79-.57 5.15-1.36l17.45-10.08Z"
            style="mix-blend-mode: multiply"
          />
          <path
            d="M267.75 207.11c2.05-1.18 5.41-1.18 7.46 0l42.05 24.28c2.05 1.19 2.05 3.12 0 4.31l-21.7 12.53c-2.05 1.18-5.41 1.18-7.46 0l-42.05-24.28c-2.05-1.18-2.05-3.12 0-4.31l21.7-12.53Z"
            class="cls-31"
          />
          <path
            fill="url(#linear-gradient-10)"
            d="m246.05 223.95 42.05 24.28c2.05 1.18 5.41 1.18 7.46 0l21.7-12.53c.99-.57 1.49-1.31 1.53-2.06v3.31c0 .78-.51 1.56-1.54 2.16l-21.7 12.53c-2.05 1.19-5.41 1.19-7.46 0l-42.05-24.28c-1.07-.62-1.57-1.43-1.53-2.25v-3.22c.04.75.55 1.49 1.53 2.06Z"
          />
          <path
            fill="url(#linear-gradient-11)"
            d="M290.69 219.72h-19.78c.09.71.59 1.4 1.52 1.93l23.17 13.38-.17.36-3.99 2.3h22.39l3.99-2.3-27.13-15.66Z"
            style="mix-blend-mode: multiply"
          />
          <path d="M267.31 215.45c1.69-5.18 1.69-9.59 1.69-11.41l2.99-1.72c0 .76 0 1.93-.1 3.39l24.24 14c0 2.56 0 10.23-4.69 17.98l-27.13-15.66 3-6.58Z" class="cls-54" />
          <path fill="#c8b7bd" d="m269 204.04 27.13 15.66 2.99-1.72-27.13-15.67-2.99 1.73z" />
          <path d="M291.44 237.68c4.69-7.75 4.69-15.42 4.69-17.98l2.99-1.72c0 2.55 0 9.52-3.69 17.4l-3.99 2.3Z" class="cls-72" />
          <path d="m294.64 230.49 3.21-1.85c.55-2.14.86-4.1 1.04-5.77l-3.02 1.74c-.21 1.72-.58 3.72-1.23 5.88Z" class="cls-12" />
          <path d="M224.09 97.82c0-2.37 1.68-3.34 3.73-2.15l100.57 58.06c2.05 1.19 3.73 4.09 3.73 6.46v67.41l-108.03-62.37V97.82Z" class="cls-70" />
          <path
            fill="url(#linear-gradient-12)"
            d="m231.87 93.33 100.57 58.06c2.05 1.19 3.73 4.09 3.73 6.46v67.41l-4.05 2.33v-67.41c0-2.37-1.68-5.28-3.73-6.46L227.82 95.66c-.84-.48-1.61-.6-2.23-.42l3.24-1.84c.68-.71 1.79-.8 3.04-.07Z"
          />
          <path fill="#d9dfff" d="M332.12 227.6v13.63c0 2.37-1.68 3.34-3.73 2.15l-100.57-58.06c-2.05-1.18-3.73-4.09-3.73-6.46v-13.63l108.03 62.37Z" />
          <path d="M332.12 241.23V227.6l4.05-2.33v13.63c0 1.19-.43 2.03-1.11 2.42l-3.88 2.22c.58-.43.94-1.21.94-2.3Z" class="cls-72" />
          <path d="m227.82 167.38 100.57 58.07v-67.41L227.82 99.97v67.41z" class="cls-21" />
          <path fill="url(#linear-gradient-13)" d="M324.18 171.46v.86l-61.26-35.37v47.09l62.12 35.86v-47.09l-.86-1.35z" style="mix-blend-mode: multiply" />
          <path d="m261.33 183.11 62.12 35.86v-47.08l-62.12-35.87v47.09z" class="cls-64" />
          <path fill="#e8edf9" d="m321.48 173.02-58.18-33.59v42.54l58.18 33.6v-42.55z" />
          <path d="m324.18 171.46-.73.43v47.08l.73-.42v-47.09z" class="cls-38" />
          <path d="m262.06 135.6-.73.42 62.12 35.87.73-.43-62.12-35.86z" class="cls-62" />
          <path d="m263.77 139.7-.47-.27v42.54l.47-.27v-42z" class="cls-38" />
          <path d="m263.77 181.7-.47.27 58.18 33.6v-.55l-57.71-33.32z" class="cls-62" />
          <path
            d="M304.58 195.64c0-2.36 1.66-3.32 3.71-2.14 2.05 1.18 3.71 4.06 3.71 6.42s-1.66 3.32-3.71 2.14c-2.05-1.18-3.71-4.06-3.71-6.42ZM269.18 165.62c0-1.4.98-1.96 2.19-1.26s2.19 2.4 2.19 3.79c0 1.4-.98 1.96-2.19 1.27-1.21-.7-2.19-2.4-2.19-3.79ZM315.29 182.34c0-.97.68-1.37 1.53-.88.84.49 1.53 1.67 1.53 2.64s-.68 1.37-1.53.88c-.84-.49-1.53-1.67-1.53-2.64Z"
            class="cls-53"
          />
          <path fill="#d1d7f3" d="m279.18 164.83 28.48 16.45v15.25l-28.48-16.44v-15.26z" style="mix-blend-mode: multiply" />
          <path d="m306.63 181.63-.48.28v15.26l.48-.28v-15.26z" class="cls-38" />
          <path d="m301.61 180.21-9.84-15.39-9.72 3.99-.26-.64 9.99-4.1c.15-.06.33 0 .42.13l9.99 15.64-.58.37Z" class="cls-49" />
          <path d="m278.15 165.19-.48.27 28.48 16.45.48-.28-28.48-16.44z" class="cls-62" />
          <path d="m277.67 165.46 28.48 16.45v15.26l-28.48-16.45v-15.26z" class="cls-64" />
          <path
            d="M285.37 177.16c-.5-.43-.83-.75-.99-.97-.16-.21-.23-.43-.23-.66s.08-.36.23-.38c.16-.02.35.03.6.17.24.14.49.33.74.57.25.24.45.48.59.72l.44-.47c-.22-.35-.49-.67-.8-.97-.31-.3-.62-.54-.94-.72-.49-.28-.9-.38-1.23-.28-.33.09-.5.4-.5.93s.15 1 .44 1.42c.15.22.31.43.5.62s.46.44.82.75c.36.31.62.57.77.78.15.21.22.42.22.64s-.08.35-.24.39c-.16.04-.37-.01-.64-.17-.54-.31-1.05-.86-1.55-1.65l-.52.42c.6.96 1.28 1.66 2.05 2.1.53.3.95.4 1.28.27.32-.12.49-.43.49-.93s-.13-.95-.38-1.35c-.26-.4-.64-.82-1.14-1.25Zm3.99-.05-2.17 4.44.89.51.49-1.01 2.47 1.42.49 1.58.89.51-2.17-6.94-.89-.51Zm-.45 3.25.89-1.83.9 2.86-1.79-1.03Zm5.03-.61-.83-.48v5.69l3.08 1.78v-.91l-2.25-1.3v-4.78Zm3.99 7.09v-1.52l2.36 1.36v-.85l-2.36-1.36v-1.51l2.63 1.52v-.9l-3.46-2v5.69l3.55 2.05v-.9l-2.71-1.57Z"
            class="cls-21"
          />
          <path d="m257.36 178.13-23.84-13.77V118.5l23.84 13.77v45.86z" class="cls-64" />
          <path d="m230.04 120.51 3.48-2.01v45.86l-3.48 2.01v-45.86z" class="cls-72" />
          <path d="m230.04 166.37 3.48-2.01 23.84 13.77-3.47 2-23.85-13.76z" class="cls-68" />
          <path fill="url(#linear-gradient-14)" d="m235.48 163.23 11.69-6.75 8.23 4.75v13.49l-19.92-11.49z" style="mix-blend-mode: multiply" />
          <path d="m235.1 121.67 1.16.69v40.42l-1.16.67v-41.78z" class="cls-38" />
          <path d="m235.48 121.91.39.22V163l-.39.23v-41.32z" class="cls-36" />
          <path d="m235.1 163.45 1.16-.67 19.14 11.05v1.34l-20.3-11.72z" class="cls-62" />
          <path d="m235.48 163.23.39-.23 19.53 11.28v.44l-19.92-11.49z" class="cls-36" />
          <path fill="#201970" d="M235.48 121.91v41.32c3.01 1.74 16.9 9.76 19.91 11.5v-41.32c-3.01-1.74-16.9-9.76-19.91-11.5Z" style="mix-blend-mode: screen" />
          <path d="m253.89 134.28 3.47-2.01v45.86l-3.47 2v-45.85zM230.04 120.51l3.48-2.01 23.84 13.77-3.47 2.01-23.85-13.77z" class="cls-21" />
          <path fill="url(#linear-gradient-15)" d="m235.48 161.58 19.92-22.94v-5.23l-19.92-11.5v39.67z" style="mix-blend-mode: screen" />
          <path fill="url(#linear-gradient-16)" d="m241.91 166.93 13.49-5.7v13.49l-13.49-7.79z" style="mix-blend-mode: screen" />
          <path d="M328.39 158.04v13.05l-5.67 3.28c.62 2.13 2.12 4.25 3.88 5.27 2.31 1.34 4.19.25 4.19-2.42 0 1.39.51 2.94 1.33 4.3v-18.44l-3.73-5.03Z" class="cls-12" />
          <path d="m317.61 177.31 10.78-6.22v-13.05l-10.78 14.53v4.74z" class="cls-72" />
          <path d="m225.42 119.35-8.38-4.84 10.78-14.53 8.38 4.83-10.78 14.54z" class="cls-24" />
          <path d="m233.8 124.19-8.38-4.84 10.78-14.54 8.38 4.84-10.78 14.54z" class="cls-31" />
          <path d="m242.18 129.03-8.38-4.84 10.78-14.54 8.38 4.84-10.78 14.54z" class="cls-24" />
          <path d="m250.57 133.86-8.39-4.83 10.78-14.54 8.39 4.84-10.78 14.53z" class="cls-31" />
          <path d="m258.94 138.7-8.37-4.84 10.78-14.53 8.38 4.84-10.79 14.53z" class="cls-24" />
          <path d="m267.33 143.54-8.39-4.84 10.79-14.53 8.38 4.84-10.78 14.53z" class="cls-31" />
          <path d="m275.71 148.38-8.38-4.84 10.78-14.53 8.38 4.84-10.78 14.53z" class="cls-24" />
          <path d="m284.09 153.22-8.38-4.84 10.78-14.53 8.38 4.83-10.78 14.54z" class="cls-31" />
          <path d="m292.47 158.06-8.38-4.84 10.78-14.54 8.38 4.84-10.78 14.54z" class="cls-24" />
          <path d="m300.85 162.89-8.38-4.83 10.78-14.54 8.38 4.84-10.78 14.53z" class="cls-31" />
          <path d="m309.23 167.73-8.38-4.84 10.78-14.53 8.38 4.84-10.78 14.53z" class="cls-24" />
          <path d="m317.61 172.57-8.38-4.84 10.78-14.53 8.38 4.84-10.78 14.53z" class="cls-31" />
          <path d="M217.04 114.51v4.74c0 2.67 1.87 5.92 4.19 7.26 2.31 1.34 4.19.25 4.19-2.42v-4.74l-8.38-4.84Z" class="cls-33" />
          <path d="M225.42 119.35v4.74c0 2.67 1.88 5.92 4.19 7.26 2.31 1.34 4.19.25 4.19-2.42v-4.74l-8.38-4.84Z" class="cls-54" />
          <path d="M233.8 124.19v4.74c0 2.67 1.88 5.92 4.19 7.26 2.31 1.34 4.19.25 4.19-2.42v-4.74l-8.38-4.84Z" class="cls-33" />
          <path d="M242.18 129.02v4.74c0 2.67 1.88 5.92 4.19 7.26 2.31 1.34 4.19.25 4.19-2.42v-4.74l-8.38-4.84Z" class="cls-54" />
          <path d="M250.56 133.86v4.74c0 2.67 1.87 5.92 4.19 7.26 2.31 1.34 4.19.25 4.19-2.42v-4.74l-8.38-4.84Z" class="cls-33" />
          <path d="M258.94 138.7v4.74c0 2.67 1.88 5.92 4.19 7.26 2.31 1.34 4.19.25 4.19-2.42v-4.74l-8.38-4.84Z" class="cls-54" />
          <path d="M267.32 143.54v4.74c0 2.67 1.88 5.92 4.19 7.26 2.31 1.34 4.19.25 4.19-2.42v-4.74l-8.38-4.84Z" class="cls-33" />
          <path d="M275.71 148.38v4.74c0 2.67 1.87 5.92 4.19 7.26 2.31 1.34 4.19.25 4.19-2.42v-4.74l-8.38-4.84Z" class="cls-54" />
          <path d="M284.09 153.22v4.74c0 2.67 1.88 5.92 4.19 7.26 2.31 1.34 4.19.25 4.19-2.42v-4.74l-8.38-4.84Z" class="cls-33" />
          <path d="M292.47 158.06v4.74c0 2.67 1.88 5.92 4.19 7.26 2.31 1.34 4.19.25 4.19-2.42v-4.74l-8.38-4.84Z" class="cls-54" />
          <path d="M300.85 162.89v4.74c0 2.67 1.87 5.92 4.19 7.26 2.31 1.34 4.19.25 4.19-2.42v-4.74l-8.38-4.84Z" class="cls-33" />
          <path d="M309.23 167.73v4.74c0 2.67 1.88 5.92 4.19 7.26 2.31 1.34 4.19.25 4.19-2.42v-4.74l-8.38-4.84Z" class="cls-54" />
          <path
            d="M227.82 208.07c0-.52.09-.97.25-1.33-1.25-.14-2.14.77-2.14 2.42 0 2.18 1.53 4.83 3.42 5.92 1.44.83 2.66.51 3.17-.64-.4-.04-.83-.19-1.28-.45-1.89-1.09-3.42-3.74-3.42-5.92Z"
            class="cls-38"
          />
          <path
            fill="url(#linear-gradient-17)"
            d="M236.36 207.08c-2.83-4.9-7.42-7.55-10.25-5.92l-1.89 1.09c2.83-1.63 7.42 1.02 10.25 5.92s2.83 10.19 0 11.83l1.88-1.09c2.83-1.63 2.83-6.93 0-11.83Z"
          />
          <path
            d="M234.47 208.17c-2.83-4.9-7.42-7.55-10.25-5.92s-2.83 6.93 0 11.83l5.12 8.87 5.12-2.96c2.83-1.63 2.83-6.93 0-11.83Zm-5.12 6.91c-1.89-1.09-3.42-3.74-3.42-5.92s1.53-3.06 3.42-1.97 3.42 3.74 3.42 5.92-1.53 3.06-3.42 1.97Z"
            class="cls-64"
          />
          <path fill="url(#linear-gradient-18)" d="M242.42 218.78c-3.81 0-5.73.16-7.95 1.22l-5.13 2.96 12.85 2.47.23-6.66Z" style="mix-blend-mode: multiply" />
          <path d="M244.86 95.32 210.17 75.3V51.77l34.69 20.03v23.52z" class="cls-23" />
          <path d="m244.86 71.8-34.69-20.03 1.71-.99 34.69 20.03-1.71.99z" class="cls-50" />
          <path d="M210.17 51.77v3.27l17.34 21.23 17.35-1.2V71.8l-34.69-20.03z" class="cls-24" />
          <path d="m246.57 94.34-1.71.98V75.07l1.71-.99v20.26z" class="cls-33" />
          <path d="m246.57 74.08-1.71.99V71.8l1.71-.99v3.27z" class="cls-33" />
          <path
            fill="url(#linear-gradient-19)"
            d="m382.53 289.91-1.41-.81c.76.63.65 1.5-.31 2.06l-19.47 11.24c-.54.31-1.26.47-1.97.47v1.03h1.87c.66-.02 1.32-.18 1.82-.47l19.47-11.24c1.08-.63 1.08-1.65 0-2.28Z"
            style="mix-blend-mode: multiply"
          />
          <path
            fill="url(#linear-gradient-20)"
            d="m321.87 281.93 35.48 20.48c1.08.63 2.89.6 3.97-.02l19.48-11.25c.53-.31.8-.71.81-1.12s0 1.03 0 1.03v-.13c0 .41-.28.94-.81 1.25l-19.48 11.25c-1.08.63-2.89.65-3.97.02l-35.48-20.48c-.54-.31-.8-.79-.81-1.2v-1.03c0 .41.27.89.81 1.2Z"
          />
          <path
            d="M361.28 302.41c-1.08.63-2.86.63-3.94 0l-35.48-20.48c-1.08-.62-1.08-1.65 0-2.27l19.52-11.27c1.08-.63 2.85-.63 3.93 0l35.48 20.48c1.08.62 1.08 1.65 0 2.27l-19.52 11.27Z"
            class="cls-31"
          />
          <path
            d="M341.39 269.9c1.09-.63 2.86-.63 3.95 0 1.09.63 1.09 1.65 0 2.28-1.09.63-2.86.63-3.95 0-1.09-.63-1.09-1.65 0-2.28ZM347.29 272.17l12.43 7.18-1.96 1.14-12.44-7.18 1.97-1.14z"
            class="cls-64"
          />
          <path
            d="m334.32 276.78 6.93 4.01-2.46 1.42-6.94-4 2.47-1.43zM342.65 281.6l6.94 4-2.47 1.43-6.93-4.01 2.46-1.42zM350.99 286.41l6.94 4.01-2.47 1.42-6.94-4.01 2.47-1.42zM359.33 291.22l6.93 4.01-2.46 1.42-6.94-4 2.47-1.43zM323.51 281.13l12.7 7.34 1.45-.84-12.7-7.33-1.45.83zM326.67 279.31l21.07 12.17-1.44.84-21.08-12.17 1.45-.84z"
            class="cls-68"
          />
          <path d="m353.31 294.7 8.9 5.13-3.15 1.83-8.91-5.14 3.16-1.82z" class="cls-21" />
          <path
            d="M345.74 277.58c.43-.25.44-.66 0-.91l-4.29-2.47c-.43-.25-1.14-.25-1.57 0l-3.3 1.91c-.43.25-.44.66 0 .91l4.29 2.47c.43.25 1.14.25 1.57 0l3.3-1.91Z"
            class="cls-54"
          />
          <path
            d="m345.39 277.78.28-.16-5.86-3.38-.28.16 1.8 1.03-.64.37-1.79-1.04-.27.16 1.79 1.04-.8.45-1.79-1.03-.28.16 1.79 1.03-.61.36-1.8-1.03-.27.16 5.85 3.38.28-.16-1.79-1.04.62-.35 1.79 1.03.28-.16-1.8-1.03.8-.46 1.79 1.03.28-.16-2.07-1.19-1.97 1.14-1.72-1 2.6-1.5 3.79 2.19z"
            class="cls-72"
          />
          <path
            d="m375.97 290.86-.57-.05c-.39 1.58-2.56 2.76-5.17 2.98l.08.33c2.85-.24 5.23-1.54 5.66-3.27Zm-4.57-.37c-.13.53-.86.92-1.73 1l.08.33c1.12-.09 2.05-.6 2.22-1.28l-.57-.05Zm1.9.15-.57-.05c-.13.52-.6.97-1.32 1.29-.47.2-1 .33-1.56.37l.08.33c.65-.05 1.28-.2 1.82-.44.84-.37 1.39-.9 1.54-1.5Zm1.33.11-.57-.04c-.31 1.23-2 2.15-4.02 2.32l.08.33c2.28-.19 4.17-1.23 4.51-2.6Z"
            class="cls-62"
          />
          <path
            fill="url(#linear-gradient-21)"
            d="M322.41 303.57c-3.37-1.95-7.85-2.84-12.25-2.71h-6.9v1.13c-1.31.41-2.54.94-3.65 1.58-6.27 3.65-6.24 9.56.08 13.21 1.09.63 2.3 1.14 3.57 1.55v1.18h8.27c3.98-.07 7.92-.97 10.95-2.73 6.27-3.65 6.24-9.56-.08-13.21Z"
            style="mix-blend-mode: multiply"
          />
          <path
            d="M288.19 305.89c0-2.33 1.54-4.67 4.62-6.45 3.08-1.78 7.12-2.67 11.17-2.67s8.08.89 11.16 2.67c3.08 1.78 4.63 4.11 4.63 6.45 0 2.33-1.54 4.67-4.63 6.45-3.08 1.78-7.12 2.67-11.16 2.67s-8.08-.89-11.17-2.67c-3.08-1.78-4.63-4.11-4.63-6.45Z"
            class="cls-58"
          />
          <path
            fill="url(#linear-gradient-22)"
            d="M315.14 312.34c-3.08 1.78-7.12 2.67-11.16 2.67s-8.08-.89-11.17-2.67c-3.08-1.78-4.63-4.11-4.63-6.45v4.5c0 2.33 1.54 4.66 4.63 6.45 3.08 1.78 7.12 2.67 11.17 2.67s8.08-.89 11.16-2.67c3.08-1.78 4.63-4.11 4.63-6.45v-4.5c0 2.33-1.54 4.67-4.63 6.45Z"
          />
          <path
            d="M294.91 311.13c2.5 1.45 5.79 2.17 9.07 2.17s6.56-.72 9.07-2.17c2.31-1.33 3.55-3.05 3.73-4.8-.18-1.75-1.42-3.46-3.73-4.8-2.5-1.45-5.79-2.17-9.07-2.17s-6.56.72-9.07 2.17c-2.31 1.33-3.55 3.05-3.73 4.8.18 1.75 1.42 3.46 3.73 4.8Z"
            class="cls-53"
          />
          <path
            d="M294.91 301.53c2.51-1.45 5.79-2.17 9.07-2.17s6.56.72 9.07 2.17c2.31 1.33 3.55 3.05 3.73 4.8.01-.15.02-.29.02-.44 0-1.9-1.25-3.79-3.76-5.23-2.5-1.45-5.79-2.17-9.07-2.17s-6.56.72-9.07 2.17c-2.5 1.45-3.76 3.34-3.76 5.24 0 .15.01.29.03.44.18-1.75 1.42-3.46 3.73-4.8Z"
            class="cls-46"
          />
          <path d="m310.29 304.01 1.22-.7v-.88l-1.22.7v.88z" class="cls-46" />
          <path
            d="M304.7 305.47c-.45-.26-.7-.61-.7-.98s.25-.72.7-.98c.93-.54 2.45-.54 3.39 0 .93.54.93 1.42 0 1.96l1.54.89c1.52-.88 1.74-2.22.67-3.23l1.21-.7-1.54-.89-1.21.7c-1.76-.61-4.08-.49-5.59.39-.86.5-1.34 1.16-1.34 1.86 0 .7.47 1.37 1.34 1.86.93.54.93 1.42 0 1.96s-2.45.54-3.39 0c-.93-.54-.93-1.42 0-1.96l-1.54-.89c-1.52.88-1.74 2.22-.67 3.23l-1.12.65 1.54.89 1.12-.65c1.76.62 4.08.49 5.6-.39 1.78-1.03 1.78-2.7 0-3.73Z"
            class="cls-58"
          />
          <path d="m296.45 310.23 1.54.89v-.88l-1.54-.89v.88z" class="cls-61" />
          <path d="m297.99 311.12 1.11-.65v-.88l-1.11.65v.88z" class="cls-46" />
          <path d="m308.09 306.35 1.53.89v-.88l-1.53-.89v.88z" class="cls-61" />
          <path d="M299.78 307.24v-.88c-.66.38-.85.93-.57 1.42.11-.2.3-.38.57-.54Z" class="cls-46" />
          <path
            d="M296.91 307.3v.99c.01.23.07.47.19.69l.47-.27c-.45-.43-.67-.92-.66-1.41ZM303.16 307.24c.27.16.46.34.57.54.28-.48.09-1.03-.57-1.42-.86-.5-1.34-1.16-1.34-1.86v.88c0 .7.47 1.37 1.34 1.86ZM306.03 307.34v-.02.02Z"
            class="cls-61"
          />
          <path d="M310.95 304.5c0 .68-.44 1.35-1.33 1.87v.88c.91-.53 1.35-1.22 1.33-1.92s0-.83 0-.83Z" class="cls-46" />
          <path fill="url(#linear-gradient-23)" d="M304.7 309.2c-1.52.88-3.84 1-5.6.39v.88c1.76.61 4.08.49 5.6-.39.88-.51 1.33-1.18 1.33-1.85v-.89c0 .67-.45 1.35-1.34 1.86Z" />
          <path
            d="M308.09 303.52c-.93-.54-2.45-.54-3.39 0-.45.26-.7.61-.7.98 0 .15.04.3.12.44.12-.2.31-.39.58-.54.93-.54 2.45-.54 3.39 0 .27.16.46.34.57.54.28-.48.09-1.03-.57-1.42Z"
            class="cls-46"
          />
          <path
            d="M295.31 297.46c0-2.33 1.54-4.67 4.62-6.45 3.08-1.78 7.12-2.67 11.17-2.67s8.08.89 11.16 2.67c3.08 1.78 4.62 4.11 4.63 6.45 0 2.33-1.54 4.67-4.63 6.45-3.08 1.78-7.12 2.67-11.16 2.67s-8.08-.89-11.17-2.67c-3.08-1.78-4.63-4.11-4.63-6.45Z"
            class="cls-58"
          />
          <path
            fill="url(#linear-gradient-24)"
            d="M322.27 303.9c-3.08 1.78-7.12 2.67-11.16 2.67s-8.08-.89-11.17-2.67c-3.08-1.78-4.63-4.11-4.63-6.45v4.5c0 2.33 1.54 4.66 4.63 6.44 3.08 1.78 7.12 2.67 11.17 2.67s8.08-.89 11.16-2.67c3.08-1.78 4.63-4.11 4.63-6.45v-4.5c0 2.33-1.54 4.67-4.63 6.45Z"
          />
          <path
            d="M302.03 302.69c2.5 1.45 5.79 2.17 9.07 2.17s6.56-.72 9.07-2.17c2.31-1.33 3.55-3.05 3.73-4.8-.18-1.75-1.42-3.46-3.73-4.8-2.5-1.45-5.79-2.17-9.07-2.17s-6.56.72-9.07 2.17c-2.31 1.33-3.55 3.05-3.73 4.8.18 1.75 1.42 3.46 3.73 4.8Z"
            class="cls-53"
          />
          <path
            d="M302.03 293.1c2.51-1.45 5.79-2.17 9.07-2.17s6.56.72 9.07 2.17c2.31 1.33 3.55 3.05 3.73 4.8.02-.15.03-.29.03-.44 0-1.9-1.25-3.79-3.76-5.24-2.5-1.44-5.79-2.17-9.07-2.17s-6.56.72-9.07 2.17c-2.5 1.45-3.76 3.34-3.76 5.24 0 .15.01.29.02.44.18-1.75 1.42-3.46 3.73-4.8Z"
            class="cls-46"
          />
          <path d="m317.42 295.57 1.21-.7V294l-1.21.7v.87z" class="cls-46" />
          <path
            d="M311.82 297.04c-.45-.26-.7-.61-.7-.98s.25-.72.7-.98c.93-.54 2.45-.54 3.39 0 .93.54.93 1.42 0 1.96l1.54.89c1.52-.88 1.74-2.22.67-3.23l1.21-.7-1.54-.89-1.21.7c-1.76-.61-4.08-.49-5.59.39-.86.5-1.34 1.16-1.34 1.86 0 .7.47 1.37 1.34 1.86.93.54.93 1.42 0 1.96s-2.45.54-3.39 0c-.93-.54-.93-1.42 0-1.96l-1.54-.89c-1.52.88-1.74 2.22-.67 3.23l-1.12.65 1.54.89 1.12-.65c1.76.62 4.08.49 5.6-.39 1.78-1.03 1.78-2.7 0-3.73Z"
            class="cls-58"
          />
          <path d="m303.57 301.79 1.54.89v-.88l-1.54-.88v.87z" class="cls-61" />
          <path d="m305.11 302.68 1.12-.64v-.88l-1.12.64v.88z" class="cls-46" />
          <path d="m315.21 297.92 1.54.88v-.87l-1.54-.89v.88z" class="cls-61" />
          <path d="M306.9 298.8v-.88c-.66.38-.85.94-.57 1.42.11-.2.3-.38.57-.54Z" class="cls-46" />
          <path
            d="M304.03 298.86v.99c.01.23.07.47.19.69l.46-.27c-.45-.43-.67-.92-.66-1.41ZM310.29 298.8c.27.16.46.34.57.54.28-.48.09-1.03-.57-1.42-.86-.5-1.34-1.16-1.34-1.86v.88c0 .7.47 1.37 1.34 1.86ZM313.16 298.9v-.02.02Z"
            class="cls-61"
          />
          <path d="M318.08 296.06c0 .68-.44 1.35-1.33 1.87v.88c.91-.53 1.35-1.22 1.33-1.92s0-.83 0-.83Z" class="cls-46" />
          <path fill="url(#linear-gradient-25)" d="M311.82 300.77c-1.52.88-3.84 1-5.6.39v.88c1.76.61 4.08.49 5.6-.39.88-.51 1.33-1.18 1.33-1.85v-.89c0 .67-.45 1.35-1.34 1.86Z" />
          <path
            d="M315.21 295.08c-.93-.54-2.45-.54-3.39 0-.45.26-.7.61-.7.98 0 .15.04.3.12.44.12-.2.31-.38.58-.54.93-.54 2.45-.54 3.39 0 .27.16.46.34.57.54.28-.48.09-1.03-.57-1.42Z"
            class="cls-46"
          />
          <path
            fill="url(#linear-gradient-26)"
            d="M137.83 128.31c3.3-1.91 6.3-2.08 8.46-.83l4.18 2.43c-2.16-1.26-5.16-1.08-8.46.83-6.57 3.79-11.87 12.98-11.85 20.53.01 3.75 1.33 6.39 3.47 7.63l-4.18-2.43c-2.14-1.24-3.46-3.88-3.47-7.63-.02-7.54 5.29-16.74 11.85-20.53Z"
          />
          <path d="M142.02 130.74c6.57-3.79 11.91-.75 11.93 6.8.02 7.55-5.29 16.74-11.85 20.53-6.57 3.79-11.91.75-11.93-6.8-.02-7.54 5.29-16.74 11.85-20.53Z" class="cls-72" />
          <path
            d="M140.81 141.82c-.5-.13-1.12-.02-1.79.37-1.69.98-3.07 3.36-3.07 5.32 0 .98.34 1.67.9 1.99l5.24 3.02 5.24-9.07c.56-.96.9-2.05.9-3.03 0-1.96-1.37-2.75-3.07-1.77-.67.39-1.29.99-1.79 1.7l-1.28 1.91-1.28-.43Z"
            class="cls-70"
          />
          <path
            fill="url(#linear-gradient-27)"
            d="M424.2 208.34c-3.3-1.91-6.3-2.08-8.46-.83l-4.18 2.43c2.16-1.26 5.16-1.08 8.46.83 6.57 3.79 11.87 12.98 11.85 20.53-.01 3.75-1.33 6.39-3.47 7.63l4.18-2.43c2.13-1.24 3.46-3.88 3.47-7.63.02-7.54-5.28-16.74-11.85-20.53Z"
          />
          <path d="M420.01 210.78c-6.57-3.79-11.91-.75-11.93 6.79-.02 7.55 5.29 16.74 11.85 20.53 6.57 3.79 11.91.75 11.93-6.8.02-7.54-5.28-16.74-11.85-20.53Z" class="cls-31" />
          <path
            d="M423.7 224.72c1.18.68 2.14.13 2.14-1.24 0-1.36-.96-3.03-2.14-3.71-1.18-.68-2.14-.13-2.14 1.24 0 .2.03.41.07.62l-6.26.25c-.36-.65-.87-1.21-1.43-1.54-1.1-.63-1.99-.12-1.99 1.15s.89 2.81 1.99 3.44c.64.37 1.2.34 1.57 0l4.9 5.11c0 .08-.02.16-.02.24 0 1.28.9 2.84 2.01 3.47 1.11.64 2.01.12 2.01-1.16s-.9-2.84-2.01-3.48c-.65-.37-1.22-.34-1.59 0l-4.9-5.11c0-.08.02-.15.02-.24 0-.17-.02-.35-.05-.52l6.26-.25c.39.72.95 1.35 1.57 1.71Z"
            class="cls-55"
          />
          <path
            d="m261.34 98.32-1.48.85s.71-.01 1.48-.25c.99-.25 1.89-.67 2.69-1.26-.83.36-1.73.59-2.69.66ZM317.9 102.75c-3.34 1.45-5.45 5.19-5.45 10.72 0 6.9 3.28 14.81 8.14 20.78l1.48-.85c-4.86-5.97-8.14-13.88-8.14-20.78 0-4.66 1.5-8.04 3.97-9.86Z"
            class="cls-51"
          />
          <path
            fill="#807cf9"
            d="M312.46 113.46c0-6.9 3.28-11.02 8.14-11.38v-4.81l-60.73-35.06v4.81c4.86 5.97 8.14 13.88 8.14 20.78s-3.28 11.02-8.14 11.38v4.81l60.73 35.06v-4.81c-4.86-5.97-8.14-13.88-8.14-20.78Z"
          />
          <path
            d="m304.81 90.97 1.11.64V88.8l-1.11-.64v2.81zM304.81 95.85l1.11.63v-2.81l-1.11-.64v2.82zM304.81 100.72l1.11.64v-2.82l-1.11-.64v2.82zM304.81 105.59l1.11.64v-2.82l-1.11-.64v2.82zM304.81 110.46l1.11.64v-2.82l-1.11-.64v2.82zM304.81 115.33l1.11.64v-2.82l-1.11-.64v2.82zM304.81 120.2l1.11.64v-2.82l-1.11-.64v2.82zM304.81 125.07l1.11.64v-2.82l-1.11-.63v2.81zM304.81 129.94l1.11.64v-2.82l-1.11-.63v2.81z"
            class="cls-21"
          />
          <path
            d="m292.75 119.75 9.11 5.27v-3.32l-9.11-5.26v3.31zM286.58 116.2l4.42 2.55v-3.31l-4.42-2.55v3.31zM281.84 113.46l2.67 1.54v-3.31l-2.67-1.54v3.31zM276.81 110.55l2.67 1.54v-3.31l-2.67-1.54v3.31z"
            class="cls-52"
          />
          <path
            d="M285.65 92.59c0-2.39-1.68-5.31-3.75-6.5-2.07-1.19-3.75-.22-3.75 2.17s1.68 5.31 3.75 6.5c2.07 1.19 3.75.22 3.75-2.17Zm-6.1-3.52c0-1.49 1.05-2.1 2.35-1.36 1.3.75 2.35 2.57 2.35 4.07s-1.05 2.1-2.35 1.36c-1.29-.75-2.35-2.57-2.35-4.07Zm11.58 13.02c-2.07-1.19-3.75-.22-3.75 2.17s1.68 5.31 3.75 6.5c2.07 1.19 3.75.22 3.75-2.17s-1.68-5.31-3.75-6.5Zm0 7.05c-1.3-.75-2.35-2.57-2.35-4.07 0-1.49 1.05-2.1 2.35-1.36 1.29.75 2.35 2.57 2.35 4.07s-1.05 2.1-2.35 1.36Zm.64-14.89-11.51 6.64.99 1.72 11.51-6.64-.99-1.72Z"
            class="cls-21"
          />
          <path d="m306.29 87.31-44.95-25.95-1.48.85 44.95 25.95 1.48-.85zM322.07 96.42l-14.67-8.47-1.48.85 14.68 8.47 1.47-.85z" class="cls-51" />
          <path d="M322.07 101.24v-4.82l-1.47.85v4.82l1.47-.85zM322.07 138.2v-4.81l-1.47.85v4.81l1.47-.85z" class="cls-51" />
          <path
            fill="url(#linear-gradient-28)"
            d="m291.64 261.76-2.87-1.66c1.11.64 1.11 1.69 0 2.34l-20.17 11.65c-1.11.64-2.93.64-4.05 0l2.82 1.63-.89.52h2.87c.77 0 1.54-.15 2.12-.48l20.17-11.65c1.11-.64 1.11-1.69 0-2.34Z"
            style="mix-blend-mode: multiply"
          />
          <path
            fill="url(#linear-gradient-29)"
            d="m213.97 244.99 50.38 29.09c1.11.64 2.93.64 4.05 0l20.47-11.82c.53-.3.8-.7.83-1.1v1.59c0 .42-.28.85-.83 1.17l-20.47 11.82c-1.11.64-2.93.64-4.05 0l-50.38-29.09c-.6-.35-.88-.82-.83-1.28v-1.55c0 .42.28.85.83 1.17Z"
          />
          <path fill="#1a67a7" d="M213.14 243.79v.04-.04Z" />
          <path
            d="M268.4 274.08c-1.11.64-2.93.64-4.05 0l-50.38-29.09c-1.11-.64-1.11-1.69 0-2.34l20.47-11.82c1.11-.64 2.93-.64 4.05 0l50.38 29.09c1.11.64 1.11 1.69 0 2.34l-20.47 11.82Z"
            class="cls-21"
          />
          <path
            d="m236.87 235.14-2.57-1.48 2.57-1.48 2.56 1.48-2.56 1.48zM241.19 237.63l-2.57-1.48 2.57-1.48 2.57 1.48-2.57 1.48zM245.51 240.13l-2.56-1.48 2.56-1.48 2.57 1.48-2.57 1.48zM249.83 242.62l-2.56-1.48 2.56-1.48 2.57 1.48-2.57 1.48zM254.15 245.12l-2.56-1.48 2.56-1.48 2.57 1.48-2.57 1.48zM258.47 247.61l-2.56-1.48 2.56-1.48 2.57 1.48-2.57 1.48zM262.8 250.11l-2.57-1.48 2.57-1.49 2.56 1.49-2.56 1.48zM267.12 252.6l-2.57-1.48 2.57-1.48 2.56 1.48-2.56 1.48zM271.44 255.1l-2.57-1.48 2.57-1.49 2.56 1.49-2.56 1.48zM275.76 257.59l-2.57-1.48 2.57-1.48 2.56 1.48-2.56 1.48zM280.08 260.09l-2.56-1.48 2.56-1.49 2.57 1.49-2.57 1.48zM284.4 262.58l-2.56-1.48 2.56-1.48 2.57 1.48-2.57 1.48zM234.59 238.81l-4.61-2.66 2.57-1.48 4.61 2.66-2.57 1.48zM232.21 242.22l-6.37-3.68 2.57-1.48 6.36 3.68-2.56 1.48zM229.64 245.73l-8.12-4.69 2.56-1.48 8.13 4.69-2.57 1.48zM220.9 246.72l-4.61-2.66 3.47-2.01 4.62 2.67-3.48 2zM227.27 250.4l-4.61-2.67 3.47-2 4.61 2.66-3.47 2.01zM233.64 254.07l-4.61-2.66 3.47-2.01 4.61 2.67-3.47 2zM255.6 266.75l-4.62-2.66 3.48-2.01 4.61 2.67-3.47 2zM266.39 272.98l-9.05-5.22 3.47-2.01 9.05 5.23-3.47 2zM249.24 263.08l-13.85-7.99 3.48-2.01 13.84 8-3.47 2zM240.12 242.01l-3.77-2.18 2.57-1.48 3.77 2.18-2.57 1.48zM237.74 245.41l-3.78-2.18 2.57-1.48 3.77 2.18-2.56 1.48zM235.29 248.85l-3.77-2.18 2.56-1.48 3.78 2.18-2.57 1.48zM240.82 252.05l-3.77-2.18 2.56-1.48 3.78 2.18-2.57 1.48zM246.35 255.24l-3.77-2.18 2.56-1.48 3.78 2.18-2.57 1.48zM251.88 258.43l-3.77-2.18 2.56-1.48 3.78 2.18-2.57 1.48zM257.41 261.62l-3.77-2.17 2.56-1.49 3.78 2.18-2.57 1.48zM262.94 264.82l-3.77-2.18 2.56-1.48 3.78 2.18-2.57 1.48zM271.74 269.89l-7.04-4.06 2.56-1.48 7.04 4.06-2.56 1.48zM243.27 248.61l-3.78-2.18 2.57-1.48 3.77 2.17-2.56 1.49zM248.8 251.8l-3.78-2.18 2.57-1.48 3.77 2.18-2.56 1.48zM254.33 254.99l-3.77-2.18 2.56-1.48 3.78 2.18-2.57 1.48zM259.86 258.19l-3.77-2.18 2.56-1.49 3.78 2.18-2.57 1.49zM265.39 261.38l-3.77-2.18 2.56-1.48 3.78 2.18-2.57 1.48zM275.94 267.47l-8.79-5.08 2.56-1.48 8.79 5.08-2.56 1.48zM245.66 245.2l-3.78-2.18 2.57-1.48 3.77 2.18-2.56 1.48zM251.19 248.39l-3.78-2.18 2.57-1.48 3.77 2.18-2.56 1.48zM256.72 251.59l-3.78-2.18 2.57-1.48 3.77 2.18-2.56 1.48zM262.25 254.78l-3.78-2.18 2.57-1.48 3.77 2.18-2.56 1.48zM267.78 257.97l-3.78-2.18 2.57-1.48 3.77 2.18-2.56 1.48zM273.31 261.17l-3.78-2.18 2.57-1.48 3.77 2.18-2.56 1.48zM280.08 265.08l-5.02-2.9 2.57-1.48 5.02 2.9-2.57 1.48z"
            class="cls-75"
          />
          <path
            fill="url(#linear-gradient-30)"
            d="M211.55 262.96c1.92-1.64 3.9-3.35 6.06-5.02.14-.42.2-.84.21-1.24.57-.24 1.08-.41 1.32-.39 1.71.11 2.98-.03 3.96-.33 3.51-.9 7.65-3.7 8.84-4.68-1.75-1.58-3.44-.23-3.4-.29-.58.36 2.19-3.08 4.27-4.75-7.46-.43-10.61 8.28-12.06 8.65-.98.3-2.25.44-3.96.33-.24-.02-.75.16-1.32.39 0 .41-.07.82-.21 1.24-2.16 1.67-4.15 3.38-6.06 5.02 0 3.23 2.09 1.46 2.35 1.08Z"
            style="mix-blend-mode: multiply"
          />
          <path
            fill="url(#linear-gradient-31)"
            d="M270.6 257.57c-1.37-.86-3.15-1.62-3.68-1.87-.14-.07-.29-.13-.44-.18.58.29 1.21.62 1.77.97 2.28 1.43.46 3.33-1.93 3.33s-2.87.75-5 2.89-4.01 6.87-11.03 6.44c-.03.32-.08.65-.19.99-9.86 7.6-16.11 16.07-28.43 14.99-3.66-.32-7.33-1.26-11.14-2.88 4.66 2.29 9.08 3.57 13.49 3.96 12.32 1.08 18.58-7.39 28.43-14.99.11-.33.16-.66.19-.99 7.02.43 8.9-4.31 11.03-6.44 2.13-2.14 2.62-2.89 5-2.89s4.2-1.9 1.93-3.33Z"
            style="mix-blend-mode: multiply"
          />
          <path
            fill="url(#linear-gradient-32)"
            d="M193.66 271.42c-2.08.48-4.33.66-6.83.44-.58-.05-1.15-.17-1.71-.34 1.26.77 2.63 1.28 4.06 1.41 2.18.19 4.15.07 6-.28-.5-.4-1.01-.81-1.52-1.23Z"
          />
          <g clip-path="url(#clippath)">
            <path
              fill="url(#linear-gradient-33)"
              d="M222.55 369.34c0-11.83 7.49-12.16 7.49-12.16s4.06 0 10.65-2.74c6.5-2.7 15.67-1.66 10.55 7.79-.04.12-.1.23-.17.35-.32.5-.85.99-1.66 1.46l-16.38 9.6c-2.5 1.43-10.43-1.87-10.48-4.3Z"
            />
            <path
              d="M222.59 368.28c.15 2.43 7.97 5.66 10.44 4.25l16.38-9.61c.54-.31 1.47-.94 2.31-1.68-.15.33-.28.64-.47.99-.04.12-.1.23-.17.35-.32.5-.85.99-1.66 1.46l-16.38 9.6c-2.34 1.34-9.44-1.47-10.38-3.83-.04-.18-.07-.35-.07-.48-.03-.37 0-.7.01-1.05Z"
              class="cls-49"
            />
            <path
              d="M225.6 355.62c1.93 0 8.72 1.73 8.72 1.73s.04.94.61 1.76c.07.08.13.15.19.23 1.34.94 2.7 2.41-.48 4.4-2.61 1.64-4.72.6-5.73-.4-.41-.76-1.01-1.61-1.85-2.09-.86-.5-1.39-.72-1.77-.75 0-.05-.02-.16-.02-.16s-.49-4.7.32-4.7Z"
              class="cls-21"
            />
            <path
              d="M161.76 338.21c3.04-10.99 4.39-22.62 7.36-35.52 7.1-1.41 63.8-28.95 71.45-14.13.27.52.38 1.11.37 1.75 2.72 13.8-6.37 67.75-6.37 67.75-.14.53-.56 1.04-1.27 1.45-1.79 1.03-4.67 1.03-6.45 0-.81-.47-1.48-1.07-1.55-1.68h-.02s-3.95-32.09-2.74-46.29c-19.49 15.12-49.02 30.6-60.78 26.67Z"
              class="cls-49"
            />
          </g>
          <path d="m191.4 381.25-4.34 2.51-7.9-57.12 4.34-2.51 7.9 57.12z" class="cls-64" />
          <path d="m187.06 383.76-4.35-2.51-7.9-57.12 4.35 2.51 7.9 57.12z" class="cls-62" />
          <path d="m179.95 442.66 4.34-2.51 7.9-66.23-4.35 2.5-7.89 66.24z" class="cls-64" />
          <path d="m175.6 440.15 4.35 2.51 7.89-66.24-4.34-2.5-7.9 66.23z" class="cls-62" />
          <path d="m238.86 408.65-4.35 2.51-7.89-57.12 4.34-2.51 7.9 57.12z" class="cls-64" />
          <path d="m234.51 411.16-4.34-2.51-7.9-57.12 4.35 2.51 7.89 57.12zM128.14 412.75l4.35 2.51 7.9-66.24-4.35-2.5-7.9 66.23z" class="cls-62" />
          <path d="m132.49 415.26 4.34-2.51 7.9-66.23-4.34 2.5-7.9 66.24z" class="cls-64" />
          <path
            fill="url(#linear-gradient-34)"
            d="M236.03 352.72c3.52-2.03 3.52-5.35 0-7.38l-46.13-26.63c-3.52-2.03-9.27-2.03-12.79 0l-46.13 26.63c-3.52 2.03-3.52 5.35 0 7.38l46.13 26.63c3.52 2.03 9.27 2.03 12.79 0l46.13-26.63Z"
          />
          <g clip-path="url(#clippath-1)">
            <path
              fill="url(#linear-gradient-35)"
              d="M245.81 385.23c0-11.83 7.5-12.17 7.5-12.17s4.06 0 10.65-2.74c6.5-2.7 15.67-1.66 10.55 7.79-.05.11-.1.23-.18.35-.32.5-.85.99-1.66 1.46l-16.37 9.61c-2.5 1.43-10.42-1.87-10.48-4.3Z"
            />
            <path
              d="M245.85 384.17c.14 2.43 7.96 5.66 10.44 4.25l16.37-9.6c.54-.31 1.48-.94 2.31-1.68-.15.33-.28.64-.47.99-.05.11-.1.23-.18.35-.32.5-.85.99-1.66 1.46l-16.37 9.61c-2.34 1.34-9.44-1.47-10.38-3.83-.04-.18-.07-.35-.07-.48-.03-.37 0-.7.01-1.05Z"
              class="cls-49"
            />
            <path
              d="M248.85 371.51c1.93 0 8.72 1.73 8.72 1.73s.05.94.61 1.76c.07.07.13.15.19.23 1.34.94 2.7 2.41-.48 4.4-2.6 1.64-4.72.6-5.73-.41-.41-.76-1.01-1.61-1.85-2.1-.86-.5-1.39-.72-1.77-.75 0-.05-.02-.16-.02-.16s-.49-4.7.32-4.7Z"
              class="cls-21"
            />
            <path
              fill="url(#linear-gradient-36)"
              d="M192.38 318.58c7.1-1.41 63.8-28.95 71.45-14.13.27.52.38 1.11.37 1.75 2.72 13.8-6.37 67.75-6.37 67.75-.14.53-.56 1.04-1.27 1.45-1.78 1.03-4.67 1.03-6.45 0-.81-.47-1.48-1.07-1.56-1.68h-.01s-3.95-32.09-2.74-46.29c-19.49 15.12-49.02 30.6-60.78 26.67-19.05-6.36-28.63-11.37-34.69-24.33-1.99-4.25-2.41-16.17-2.41-21.26 21.07-10.44 37.53-1.03 44.46 10.06Z"
            />
          </g>
          <path
            d="M232.49 243.61c-1.37-.86-3.15-1.62-3.68-1.87-2.38-1.13-6.18-.23-7.24.51-1.05.73-7.61 4.75-8.85 7.35 0 0-2.46 1.27-3.42 1.76l3.6 5.5s3.16-1.68 3.9-1.63c1.71.11 2.98-.03 3.96-.33 3.51-.9 7.65-3.7 8.84-4.68-1.75-1.58-3.69.17-5 .87.27-.45.57-.88.95-1.27 2.13-2.14 2.62-2.89 5-2.89s4.21-1.9 1.93-3.33Z"
            class="cls-42"
          />
          <path
            d="M215.26 256.87c1.26-3.77-3.21-7.08-5.85-6.83-12.36 5.39-18.35 8.59-22.58 7.34-17.77-8.31-10.53 13.55 0 14.47 12.32 1.08 18.58-7.39 28.43-14.99ZM163.81 229.09c-8.94 1.96-20.14 7.67-12.69 23.25 5.09 10.64 12.69-23.25 12.69-23.25Z"
            class="cls-23"
          />
          <path
            d="M165.44 333.17c17.51 9.82 41.28 6.24 44.56-7.57-11.92-39.99-14.6-66.58-14.32-82.84-7.72-5.96-14.3-11.26-19.96-12.53-5.91-1.32-13.73-2.35-17.17.96-10.75 14.49-7.94 39.56-10.63 77.34 1.85 12.09 8.9 19.82 17.52 24.65Z"
            class="cls-24"
          />
          <path
            d="M167.55 229.8c2.98-2.81 3.89-7.35 4.38-12.5-.31-2.84-.13-5.86.65-8.93 2.79-11.03 12.04-18.2 20.68-16.01 8.63 2.18 13.37 12.89 10.58 23.92-2.58 10.22-11.55 15.86-19.59 16.7-.4.87 1.11 2.12 2.52 3.03-6.6 1.75-12.71-1.71-15.96-3.47-1.68-.91-2.87-1.79-3.26-2.73Z"
            class="cls-42"
          />
          <path
            d="M173.03 193.09c3.2-3.08 6.92-.13 8.78-1.09.32-.15.65-.31 1-.48 2.43-1.45 1.27-2.52 3.52-3.86 2.23-1.33 4.39.52 5.84.03 3.43-1.06 6.52-1.51 7.88-.26.66.61 1.24 1.4 1.76 2.32 1.15 1.93 5.15-.55 4.9 3.62-.23 3.92-1.7 5.23-2.32 11.22-.02.35-.05.69-.09 1.03 0 .07-.01.13-.02.2v-.01c-.47 3.88-1.67 7.35-3.69 9.27-.57.55-1.19 1.07-1.82 1.58.52-2.11-2.72-8.12-5.09 1.25-.25 1.01.45 1.39-.55 2.56-1 1.17-6.1 3.45-9.62 5.55-4.91 2.93-6.32-1.17-12.98-2.1.7-2.78.34-4.36-.21-6.34-.34-1.26-.96-6.13.04-11.34 0-.01-.01 0 0-.02 1.3-5.16-.45-10.11 2.68-13.13Z"
            class="cls-49"
          />
          <path
            d="M244.59 263.89c.96-.49 2.52-1.31 2.52-1.31.03-.56 1.98-6.74 7.25-8.3 1.08 1.64-.78 2.98-2.3 4.52 1.83-1.46 4.21-2.93 5.27-3.66 1.05-.73 4.86-1.64 7.24-.51.53.25 2.32 1.01 3.68 1.87 2.28 1.43.46 3.33-1.93 3.33s-2.87.75-5 2.89-4.01 6.89-11.07 6.44c-.74-.05-1.59.6-1.59.6l-4.07-5.86Z"
            class="cls-42"
          />
          <path
            d="M250.1 270.15c1.26-3.77-3.21-7.08-5.85-6.83-12.36 5.39-18.35 8.59-22.58 7.34-17.77-8.31-21.58-23.83-25.99-27.91-9.92-7.06-21.86 8.56-8.85 22.63 13.72 12.85 24.31 18.83 34.84 19.75 12.32 1.08 18.58-7.39 28.43-14.99Z"
            class="cls-50"
          />
          <path
            fill="url(#linear-gradient-37)"
            d="M128.14 349.02c-1.17-9.04-6.78-50.34-7.73-57.34-1.25-9.21 8.54-15.74 22.66-7.75 14.12 7.99 28.77 18.26 43.03 39.15 7.34 10.75 25.02 7.04 32.48 2.32 10.45-6.61 20.08 1 20.08 23.62-5.76 4.14-45.12 25.9-50.11 28.11-5 2.2-9.07 1.3-19.87-5.62-10.81-6.92-40.53-22.49-40.53-22.49Z"
          />
          <path fill="url(#linear-gradient-38)" d="M395.19 251.99H379.6l26.12 15.08-26.12 15.08h32.95l17.44-10.07-34.8-20.09z" style="mix-blend-mode: multiply" />
          <path d="m385.91 238.53 26.12 15.08-6.31-11.43-26.12-15.08 6.31 11.43zM373.29 238.53l-26.11 15.08 6.31-11.43 26.11-15.08-6.31 11.43z" class="cls-72" />
          <path d="m353.49 267.07 26.11 15.08v-24.89l-26.11-15.08v24.89z" class="cls-54" />
          <path d="m353.49 257.42 26.11 15.08v-15.24l-26.11-15.08v15.24z" class="cls-72" />
          <path d="m349.04 258.13 26.11 15.08 4.45-15.95-26.11-15.08-4.45 15.95z" class="cls-55" />
          <path fill="#a4add0" d="m405.72 267.07-26.12 15.08v-24.89l26.12-15.08v24.89z" />
          <path d="m410.17 258.13-26.12 15.08-4.45-15.95 26.12-15.08 4.45 15.95z" class="cls-64" />
          <path d="M379.6 227.1v30.16l26.12-15.08-26.12-15.08z" class="cls-70" />
          <path d="m353.49 242.18 26.11 15.08V227.1l-26.11 15.08z" class="cls-49" />
          <path d="m379.57 251.99-4.53 2.63 4.56 2.64 4.57-2.64-4.6-2.63z" class="cls-67" />
          <path d="m388.55 240.03-8.95 13.39 17.89-22.33-8.94 8.94zM361.72 231.09l17.88 22.33-8.94-13.39-8.94-8.94z" class="cls-45" />
          <path d="m370.66 240.03 8.94 13.39 8.95-13.39h-17.89zM370.66 240.03l-8.94-8.94 8.94-8.95h17.89l8.94 8.95-8.94 8.94h-17.89z" class="cls-72" />
          <path d="m374.43 230.83-5.18-5.18 5.18-5.18h10.35l5.18 5.18-5.18 5.18h-10.35z" class="cls-21" />
          <path d="m370.66 240.03 3.77-9.2h10.35l3.77 9.2h-17.89z" class="cls-45" />
          <path fill="url(#linear-gradient-39)" d="m370.66 227.34 3.77-6.87h10.35l3.77 6.87h-17.89z" style="mix-blend-mode: multiply" />
          <path d="m369.25 225.65-7.53 5.44 8.94 8.94 3.77-9.2-5.18-5.18z" class="cls-69" />
          <path d="m361.72 231.09 7.53-5.44 5.18-5.18-3.77 1.67-8.94 8.95zM389.96 225.65l7.53 5.44-8.94 8.94-3.77-9.2 5.18-5.18z" class="cls-69" />
          <path d="m397.49 231.09-7.53-5.44-5.18-5.18 3.77 1.67 8.94 8.95z" class="cls-45" />
          <path fill="url(#linear-gradient-40)" d="M361.72 231.09h12.6l.11-.26-5.18-5.18-7.53 5.44z" style="mix-blend-mode: screen" />
          <path fill="url(#linear-gradient-41)" d="M397.49 231.09h-12.6l3.66 8.94 8.94-8.94z" style="mix-blend-mode: screen" />
        </g>
      </g>
    </g>
  </svg>