<svg xmlns="http://www.w3.org/2000/svg" width="526" height="499" fill="none">
    <path
      fill="url(#a)"
      d="M305.73 291.961c24.961 5.109 57.389 7.557 90.243-2.129 8.374-2.448 60.216-17.723 58.349-43.694-.64-9.154-7.413-11.922-8.533-24.11-1.28-14.476 7.413-19.904 15.307-36.084 4.747-9.633 18.561-37.893 5.227-57.691-7.947-11.815-25.281-20.065-39.522-19.107-20.854 1.384-31.148 22.247-48.055 57.905-14.987 31.613-13.707 40.342-24.854 62.907-8.267 16.765-22.454 39.278-48.162 62.003z"
    />
    <g fill="#fff" opacity=".5">
      <path
        d="M266.902 297.549c-23.148 0-46.509-6.067-69.496-18.095l.48-.958c26.081 13.624 52.535 19.585 78.723 17.616 93.657-6.972 143.952-116.554 157.179-149.977 7.467-19 9.974-41.14 7.414-65.888l1.066-.106c2.614 24.907.107 47.207-7.467 66.366-10.827 27.462-30.187 67.059-60.802 99.577-29.441 31.294-62.189 48.431-97.284 51.039-3.253.32-6.56.426-9.813.426z"
        opacity=".5"
      />
      <path
        d="m408.134 199.888-.213-.479c-.054-.106-5.547-11.389-8.907-27.622-3.094-15.008-4.961-37.467 3.786-59.128l1.014.372c-8.641 21.448-6.774 43.642-3.734 58.49 2.934 14.21 7.52 24.588 8.587 26.93 58.882-28.739 65.176-73.605 65.709-86.697 0-.373 0-.532.054-.639l1.066.16-.533-.107.533.107v.532c-.533 13.305-6.933 58.863-66.775 87.868l-.587.213z"
        opacity=".5"
      />
      <path
        d="M413.094 253.429c-10.987 0-24.054-2.023-39.148-7.664l-.267-.107-.053-.266c-.107-.372-9.067-37.946 1.28-84.621l10.454-47.101 1.066.213-10.453 47.101c-9.814 44.333-2.134 80.417-1.334 83.876 31.415 11.655 53.816 7.611 67.043 2.182 14.4-5.907 21.441-14.742 21.494-14.849l.853.639c-.053.106-7.253 9.101-21.867 15.168-7.147 2.874-16.854 5.429-29.068 5.429z"
        opacity=".5"
      />
    </g>
    <path
      fill="url(#b)"
      d="M229.14 305.372c14.401-9.42 33.975-25.386 46.029-50.666 15.787-33.157 4.693-53.275 16.587-111.978 7.467-37.148 13.12-62.96 34.401-73.604 16.694-8.356 40.962-6.334 53.709 6.28 10.614 10.484 14.454 29.591 14.347 42.736-.106 10.698-2.773 18.042 2.24 24.535 5.174 6.653 12.374 4.63 17.388 9.793 10.187 10.431-1.44 37.148-3.307 41.459-20.908 48.006-73.07 73.711-95.95 84.675-18.935 9.048-47.736 20.49-85.444 26.77z"
    />
    <g fill="#fff" opacity=".5">
      <path
        d="m213.353 312.184-.213-1.064c40.268-7.717 92.056-25.706 110.404-67.484 6.72-15.328 8.267-32.199 10.347-55.51 1.653-18.627 1.173-31.986.747-43.748-.587-15.381-1.014-27.568 3.68-44.28 4.8-16.977 13.494-33.103 25.867-48.058l.8.691c-12.267 14.796-20.907 30.869-25.654 47.633-4.693 16.552-4.213 28.633-3.627 43.908.427 11.815.96 25.173-.746 43.907-2.027 22.566-3.627 40.342-10.401 55.882-8.693 19.852-25.867 36.244-50.988 48.698-16.961 8.462-37.228 15.008-60.216 19.425z"
        opacity=".5"
      />
      <path
        d="m335.544 175.087-.48-.319c-.106-.054-11.414-7.611-21.441-22.3-9.28-13.572-19.36-36.191-14.72-66.9l1.067.16c-4.587 30.337 5.386 52.689 14.56 66.101 8.747 12.773 18.401 20.065 20.641 21.661 15.841-31.454 37.388-49.176 52.642-58.49 16.694-10.165 29.814-12.879 29.921-12.879l.213 1.064c-.106 0-13.12 2.714-29.601 12.773-15.254 9.314-36.748 27.036-52.482 58.597l-.32.532z"
        opacity=".5"
      />
      <path
        d="m329.624 225.274-.16-.372c-.107-.213-9.12-19.905-22.027-37.894-12.854-17.882-48.269-29.484-48.589-29.591l.32-1.011c.373.107 36.108 11.815 49.122 29.964 12.054 16.711 20.694 34.966 21.974 37.68 16.534-2.075 38.455-17.776 63.469-45.504 19.094-21.182 33.335-42.045 33.495-42.204l.906.585c-.16.213-14.453 21.129-33.547 42.364-25.708 28.527-47.416 44.014-64.536 45.93l-.427.053z"
        opacity=".5"
      />
      <path
        d="M286.689 289.512c-3.36 0-5.28-.106-5.333-.106l-1.067-.053.693-.799c12.694-15.168 14.347-33.156 5.014-53.434-7.041-15.168-17.921-25.972-18.028-26.078l.747-.745c.107.106 11.147 11.017 18.241 26.398 6.507 13.997 10.88 34.647-4.48 53.753 4.266.106 21.12.372 42.881-3.247 23.254-3.831 57.069-12.826 86.084-34.221l56.428-41.512.64.851-56.428 41.513c-29.228 21.501-63.203 30.602-86.564 34.434-17.334 2.767-31.521 3.246-38.828 3.246z"
        opacity=".5"
      />
    </g>
    <path
      fill="url(#c)"
      d="M304.557 347.896c-16.961-2.981-41.229-9.953-62.296-28.474-27.628-24.269-25.334-47.1-59.522-96.383-21.601-31.134-37.015-52.689-60.749-54.073-18.614-1.117-40.162 10.272-46.882 26.93-5.6 13.838-1.6 32.891 3.68 44.919 4.32 9.792 9.707 15.434 7.627 23.417-2.134 8.143-9.494 9.154-12.107 15.86-5.227 13.625 16 33.582 19.414 36.776 38.135 35.871 96.27 39.011 121.658 40.075 21.067.905 52.055.053 89.177-9.047z"
    />
    <g fill="#fff" opacity=".5">
      <path
        d="M268.982 354.123c-3.467 0-6.88-.107-10.241-.267-28.001-1.596-50.241-9.899-66.082-24.694-12.374-11.549-20.908-27.303-31.681-47.261-8.907-16.498-13.761-29.005-18.028-40.022-5.493-14.263-9.867-25.546-20.694-38.904-10.987-13.572-25.28-24.908-42.401-33.689l.48-.958c17.28 8.834 31.681 20.277 42.775 33.955 10.933 13.518 15.307 24.854 20.854 39.224 4.267 11.016 9.067 23.47 17.974 39.916 11.147 20.596 19.2 35.498 31.468 46.941 33.334 31.134 88.056 27.302 128.111 18.574l.214 1.064c-18.828 4.098-36.535 6.121-52.749 6.121z"
        opacity=".5"
      />
      <path
        d="m155.271 270.087-.48-.373c-26.988-22.832-53.762-30.655-71.47-33.21-19.147-2.767-32.108-.106-32.214-.106l-.214-1.065c.107-.053 13.228-2.714 32.588.053 17.761 2.555 44.482 10.379 71.523 33.051 1.44-2.395 7.467-12.933 10.4-28.101 3.094-15.913 3.414-40.342-12.8-66.42l.907-.585c16.374 26.397 16.054 51.145 12.907 67.271-3.414 17.457-10.827 28.846-10.881 28.952l-.266.533z"
        opacity=".5"
      />
      <path
        d="M167.058 315.697c-16.001 0-37.548-6.227-64.323-18.521-25.974-11.975-47.361-25.546-47.575-25.706l.587-.904c.213.159 21.6 13.677 47.468 25.652 33.922 15.647 60.269 21.448 76.323 16.871.107-3.033.854-23.204 5.281-43.269 4.8-21.82 33.014-46.674 33.281-46.887l.693.798c-.266.266-28.214 24.854-32.961 46.302-4.747 21.608-5.28 43.269-5.28 43.482v.373l-.374.106c-3.84 1.118-8.213 1.703-13.12 1.703z"
        opacity=".5"
      />
      <path
        d="M154.631 375.039c-12.641 0-25.975-1.224-39.362-4.364L47 354.761l.267-1.011 68.269 15.913c35.148 8.196 69.763 3.194 92.643-2.448 21.441-5.269 36.802-12.134 40.695-13.944-21.654-11.549-25.761-32.199-25.334-47.633.48-16.871 6.294-31.294 6.347-31.453l1.013.425c-.053.16-5.813 14.37-6.293 31.081-.587 22.3 8.053 38.16 25.707 47.101l.96.479-.96.479c-.16.107-16.96 8.303-41.815 14.423-14.347 3.566-33.174 6.866-53.868 6.866z"
        opacity=".5"
      />
    </g>
    <path
      fill="url(#d)"
      d="M269.248 355.56c-11.893 19.319-30.081 41.885-56.482 57.319-6.72 3.938-48.322 28.26-64.109 11.176-5.547-6.014-3.2-12.081-10.56-20.277-8.641-9.686-17.494-7.345-32.855-12.081-9.173-2.821-36.055-11.123-40.801-31.826-2.827-12.401 2.346-28.633 11.68-37.362 13.654-12.72 33.601-6.706 67.149 4.152 29.761 9.579 34.668 15.753 56.162 22.299 15.948 4.843 39.309 9.367 69.816 6.6z"
    />
    <g fill="#fff" opacity=".5">
      <path
        d="M197.672 371.952c-39.841 0-77.496-11.602-102.03-21.342-17.12-6.812-33.228-18.787-47.842-35.711l.8-.692c14.507 16.765 30.508 28.686 47.415 35.392 29.815 11.868 132.005 46.089 193.714-10.431 17.228-15.807 29.548-36.616 36.588-61.843l1.014.266c-7.094 25.44-19.468 46.409-36.855 62.375-23.201 21.182-54.402 31.933-92.804 31.986z"
        opacity=".5"
      />
      <path
        d="M102.949 374.613c-29.868 0-48.482-13.412-54.829-18.894-.16-.159-.267-.266-.32-.266l.587-.905c.053.054.213.16.426.373 8.854 7.664 41.922 30.922 96.537 10.325-1.92-4.737-18.08-41.779-52.695-55.244l.373-1.011c19.468 7.558 32.962 22.513 40.909 33.689 8.533 12.081 12.533 22.566 12.587 22.672l.213.479-.48.213c-16.374 6.227-30.828 8.569-43.308 8.569z"
        opacity=".5"
      />
      <path
        d="M135.803 422.246c-1.066 0-1.706-.053-1.76-.053l.107-1.065c.107 0 10.134.852 22.774-4.896 11.627-5.269 27.895-17.297 39.522-44.812-1.867-2.768-20.694-29.698-55.469-50.294l-37.068-21.981.533-.904 37.068 21.98c36.748 21.821 55.789 50.613 56.002 50.879l.16.213-.106.266c-11.734 28.048-28.375 40.289-40.215 45.664-9.921 4.471-18.081 5.003-21.548 5.003z"
        opacity=".5"
      />
    </g>
    <path
      fill="#A5ACB7"
      d="M138.577 447.739c-12.054.372-21.494-8.622-21.494-20.437V182.484c0-12.081 10.027-21.873 22.347-21.82l305.239 1.596h.32c10.027.267 18.134 9.208 18.134 20.012v216.503c0 10.751-8.054 20.171-18.028 21.076L139.91 447.685c-.426.054-.853.054-1.333.054z"
    />
    <path
      fill="#BFC8D6"
      d="M143.004 447.632c-12.054.373-21.441-8.622-21.441-20.437V182.591c0-12.081 10.027-21.874 22.294-21.821l304.758 1.544h.32c10.027.266 18.134 9.207 18.134 19.958v216.344c0 10.697-8.053 20.17-17.974 21.075L144.39 447.526c-.48.053-.906.106-1.386.106z"
    />
    <path
      fill="#F4F7FA"
      d="m448.722 414.209-304.758 27.462c-8.854.799-16.108-5.748-16.108-14.582V182.697c0-8.888 7.254-16.019 16.108-15.966l304.758 1.224c7.094.053 12.8 6.44 12.8 14.263v216.557c0 7.877-5.706 14.795-12.8 15.434z"
    />
    <path
      fill="#D8DEE8"
      d="m220.02 382.756-49.175 3.512c-.587.053-1.067-.426-1.067-1.011v-11.815c0-.586.48-1.118 1.067-1.171l49.175-3.3c.587-.053 1.013.426 1.013 1.012v11.602c0 .638-.48 1.117-1.013 1.171zm139.365 14.795-188.594 15.274c-.586.054-1.066-.372-1.066-1.011v-11.815c0-.585.48-1.117 1.066-1.171l188.594-14.369c.534-.054.96.372.96.958v11.016c0 .586-.426 1.065-.96 1.118zm-191.58-169.35c-2.721 1.703-5.334 5.375-4.747 9.314.586 3.991 4.213 6.493 7.093 7.238 4 1.064 5.334-1.544 9.654-1.277 6.507.425 11.627 6.865 13.707 11.708 2.08 4.737.48 5.961 1.814 11.443 2.346 9.633 9.653 15.327 16.64 20.756 5.814 4.524 14.614 9.899 16.214 8.143.587-.639.054-2.023-.266-2.821-1.227-3.3-4.001-3.938-7.841-6.919-2.72-2.128-6.133-4.79-5.6-7.025.533-2.235 4.854-3.725 8.107-2.874 3.253.852 4.96 3.992 5.814 5.482.693 1.277.586 2.98 1.28 3.034.48.053.96-.692 1.173-1.278.587-1.543-.427-2.98-.8-4.151-.853-2.714 1.173-5.695 3.2-8.728 3.414-5.003 5.387-5.109 10.667-10.964 3.52-3.885 5.28-5.907 5.44-8.675.32-4.736-3.626-8.196-4.32-8.781-3.2-2.768-8.64-4.631-10.987-2.502-2.08 1.916.107 5.376-2.347 8.143-1.706 1.916-4.693 2.395-7.04 1.703-3.307-.958-5.173-4.045-5.387-6.919-.053-.585-.213-3.193 1.494-5.056.48-.532 1.706-1.596 5.706-1.862 5.654-.373 6.827 1.49 10.188.638 2.826-.692 6.186-3.033 6.133-5.269-.053-2.607-4.747-2.767-10.187-8.568-2.08-2.235-3.84-4.151-3.68-6.653.213-3.512 3.947-6.386 4.693-6.919 2.934-2.182 5.494-3.991 5.494-3.991.747-.479 1.76-1.224 1.653-1.916-.053-.426-.64-.745-1.653-1.011-3.2-.852-5.654-.32-5.654-.32-3.84.905-5.013 2.821-9.707 5.429-1.866 1.064-5.066 2.821-9.44 3.885-4.96 1.224-6.72.266-9.174 2.182-2.4 1.81-1.653 3.3-4.107 6.121-2.56 2.927-5.706 3.991-10.613 5.535a57.814 57.814 0 0 1-10.881 2.288c-7.307.905-8.907-.319-11.733 1.437z"
    />
    <path
      fill="#D8DEE8"
      d="M249.088 203.879c-5.174 1.437-9.654 2.714-10.614 5.908-.48 1.649-.053 3.938 1.333 5.109 2.72 2.342 6.827-1.49 9.761.532 1.6 1.064 1.013 2.555 2.826 10.698 1.227 5.428 2.187 8.036 4.107 10.324 1.067 1.331 2.614 3.14 4.107 2.821 2.24-.479 1.387-5.056 4.907-8.409 1.227-1.171 1.44-.745 7.307-3.672 3.413-1.703 5.12-2.608 5.493-3.3 1.92-3.619-3.2-7.877-1.12-12.134.374-.799.427-.373 3.094-3.779 3.04-3.885 2.987-4.47 2.88-4.737-.32-1.224-2.56-1.33-8.427-1.969-9.707-1.064-10.507-1.65-13.387-.905-1.92.479-2.454.958-6.56 2.076-3.201.905-3.574.798-5.707 1.437zm-13.121 91.381c-2.88 2.288-3.467 6.014-3.68 7.557-.587 3.779.48 6.174 2.507 12.241 2.453 7.398 3.627 11.07 3.84 13.199.267 3.3-.32 3.885-2.667 16.977-1.76 9.74-1.92 12.241-.32 13.944 2.347 2.449 7.467 1.916 7.627 1.224.107-.319-1.013-.532-1.813-1.596-1.867-2.342-.534-6.44-.16-7.504 1.386-4.258 4-6.227 8.267-10.591 5.013-5.163 8.32-8.516 10.72-13.359 1.173-2.395 3.733-7.717 2.933-14.423-.16-1.33-.8-5.907-4.106-10.378-4.267-5.801-10.027-7.398-11.681-7.877-3.307-.904-7.947-2.182-11.467.586zm48.695-25.44c-1.866 3.673-3.893 7.771-4.693 11.496-.693 3.353-1.387 10.857 2.24 13.571 3.307 2.502 7.147-1.224 11.734 1.544 2.346 1.384 3.36 3.566 4.64 6.174 2.667 5.641 1.387 8.834 2.56 16.126.533 3.459 2.24 14.316 6.507 14.901 3.573.479 7.414-6.493 8.054-7.61 1.706-3.087 2.346-6.227 3.626-12.347 1.707-8.303 1.067-9.421 2.827-11.762 2.294-3.087 5.014-3.513 5.654-6.387.426-2.129-.64-3.938-1.227-5.109-2.347-4.205-5.6-3.619-7.84-7.664-1.28-2.342-1.6-5.162-1.12-5.482.48-.266 1.76 1.437 2.346 2.236 1.92 2.501 1.654 3.459 2.827 4.736 2.347 2.555 6.294 1.969 6.56 1.916 1.814-.319 5.067-1.49 5.441-3.672.32-1.703-1.174-3.406-2.934-5.535-1.44-1.703-2.507-2.395-2.347-2.714.16-.32 1.44.053 4.801 1.171 3.68 1.224 5.493 1.809 5.76 1.969 1.227.692 2.293 1.65 5.707 7.557 3.467 5.961 4.747 8.941 5.547 8.675.373-.16.32-.958.64-3.832.426-4.257.693-6.386 1.706-7.983.854-1.33 2.667-3.14 4.587-2.98 1.12.106 2.507 1.916 5.174 5.535 2.613 3.565 3.52 4.79 5.333 5.694.96.479 2.614 1.331 3.947.479 1.44-.904 1.973-3.565 1.333-5.428-.746-2.289-2.773-2.395-2.72-3.832.107-2.023 4.321-3.46 4.694-3.619 2.72-.905 3.413 0 4.8-1.011 2.08-1.437 2.934-5.11 2.4-7.877-.533-2.874-2.347-3.885-1.813-5.163.48-1.064 1.92-.745 4.8-1.596 2.133-.639 5.28-1.597 6.987-4.258 1.013-1.597 1.227-3.246 1.493-5.854.054-.426.267-2.448 0-5.163-.32-3.778-1.12-4.044-.746-5.162.8-2.448 4.64-1.863 12-4.311 4.16-1.384 7.2-3.034 7.52-2.395.374.745-4.533 3.034-4.853 7.025-.267 3.034 2.187 6.014 3.253 5.695.854-.266.214-2.608 1.76-6.174.587-1.277 1.387-3.246 3.2-4.577 2.187-1.543 3.467-.532 5.387-2.182 1.547-1.33 1.174-2.342 2.454-3.725 2.933-3.14 7.947-1.065 8.267-2.236.32-1.064-3.52-4.311-8.534-4.949-4.48-.586-5.12 1.49-10.187 1.596-2.88.054-6.4-1.117-13.387-3.459-3.947-1.33-6.027-2.288-9.654-2.448-2.507-.107-2.613.266-5.227.053-2.987-.213-6.72-.532-9.6-3.14-2.294-2.022-1.6-3.3-3.467-4.524-3.04-1.969-7.2-.266-10.774 1.278-3.786 1.649-6.453 3.565-10.987 6.865-5.28 3.832-7.093 5.748-10.027 5.429-2.187-.213-2.667-1.437-5.12-1.384-1.973.053-2.613.851-6.667 2.767-3.947 1.863-5.92 2.768-7.68 2.449-2.667-.479-2.774-2.395-5.654-3.566-3.093-1.224-6.027-.213-9.653 1.011-4.481 1.543-8.854 3.034-10.988 7.078-2.24 4.311-.16 8.037-2.72 9.953-2.133 1.65-4.32-.373-6.24 1.33-2.347 2.023-1.653 7.025-1.28 9.633.747 5.163 2.56 6.387 1.92 10.059-.373 1.597-.853 2.129-2.347 5.109z"
    />
    <path
      fill="#D8DEE8"
      d="M327.757 311.545c-1.12-.053-2.933 4.684-2.506 9.101 0 .266.373 3.672 1.386 3.726.96.053 1.92-2.821 2.027-3.087.16-.479.64-2.076.48-4.684 0-.691-.32-4.949-1.387-5.056zm39.255-12.506c-.106.212.214.532 1.067 1.224 2.293 1.862 3.413 2.767 5.28 3.353 1.6.532 5.6 1.437 6.454-.16.533-1.011-.267-2.98-1.494-3.832-1.333-.905-2.346-.053-5.6-.053-3.253-.053-5.493-1.065-5.707-.532zm11.361-8.995c-.64.16-.48 1.543-1.814 4.63-.587 1.437-.96 1.863-.747 2.342.427 1.064 2.934 1.49 4.214.159 1.173-1.224.64-3.352.427-4.098-.374-1.437-1.334-3.193-2.08-3.033zm13.44 11.283c.48.745 1.334 1.703 3.414 2.608.746.319 6.08 2.608 7.413.638.534-.798.267-2.128-.16-2.873-.64-1.225-1.867-1.437-3.84-1.916-5.92-1.437-7.254-2.183-7.734-1.437-.533.798.64 2.554.907 2.98zm-10.027-17.137c-.693.266-.64 3.778.587 6.493.64 1.437 1.866 3.086 2.4 2.82.587-.266.267-2.714-.16-4.364-.587-2.448-2.134-5.215-2.827-4.949zm5.707-16.605c0-.799 1.867-.692 4.32-2.395 1.707-1.224 4.16-3.673 5.494-6.972.266-.692.533-1.49.746-1.49.32.053.32 2.075 0 3.885-.64 3.299-2.613 6.28-5.173 7.77-1.014.585-1.76.745-2.4.745-1.387-.053-2.987-.798-2.987-1.543zm-5.067 47.846c-3.307 3.246-5.067 2.767-5.547 4.524-.533 1.969 1.707 2.767 2.08 6.706.267 2.448-.426 3.885.16 4.204.907.532 2.4-2.821 5.867-4.258.267-.106 3.894-1.49 6.88.266 1.707 1.012 1.494 2.076 4.321 4.631 1.813 1.596 2.72 2.448 3.84 2.182 1.867-.373 2.88-3.247 3.573-5.056.534-1.49 1.76-4.843.907-8.782-.373-1.703-.64-1.277-5.76-8.888-1.44-2.129-1.974-3.033-3.254-3.566-2.613-1.117-5.493.533-5.973.799-1.014.585-1.92 1.543-3.734 3.406-2.24 2.342-2.08 2.555-3.36 3.832z"
    />
    <path
      fill="url(#e)"
      d="M267.328 191.426c0 44.493-34.881 79.512-79.416 78.129-46.402-1.437-85.39-41.406-85.39-89.252s38.988-82.546 85.39-77.756c44.535 4.683 79.416 44.386 79.416 88.879z"
    />
    <path
      fill="url(#f)"
      d="M279.382 187.594c0 44.493-34.881 79.512-79.416 78.129-46.402-1.437-85.39-41.406-85.39-89.252s38.988-82.546 85.39-77.756c44.535 4.683 79.416 44.386 79.416 88.879z"
    />
    <path
      fill="url(#g)"
      d="M275.915 187.381c0 42.524-33.388 75.947-75.949 74.563-44.215-1.437-81.39-39.596-81.39-85.154 0-45.557 37.121-78.714 81.39-74.19 42.561 4.364 75.949 42.258 75.949 84.781z"
    />
    <path
      fill="url(#h)"
      d="M273.409 187.221c0 41.14-32.268 73.392-73.443 72.009-42.668-1.437-78.51-38.266-78.51-82.227 0-43.961 35.788-76 78.51-71.689 41.121 4.151 73.443 40.767 73.443 81.907z"
    />
    <path
      fill="url(#i)"
      d="M199.539 119.311c2.187.213 3.947 2.182 3.947 4.417v7.558c4.373.479 8.747 1.224 13.174 2.288 3.253.745 6.453 1.65 9.654 2.714 1.92.639 3.2 2.555 3.04 4.524l-.907 9.474c-.267 2.501-2.72 3.991-5.12 2.98a47.035 47.035 0 0 0-6.454-2.395c-3.84-1.171-7.947-1.916-12.214-2.288l-1.12-.107v21.714c11.414 3.194 19.788 7.505 25.228 12.88 5.387 5.375 8.107 12.081 8.107 20.117 0 8.676-2.987 15.647-8.96 20.916-5.974 5.269-14.401 8.25-25.281 8.888v8.356c0 2.235-1.76 3.938-3.947 3.885h-.054c-2.186-.106-4-1.969-4-4.204v-8.25l-1.76-.053c-5.12-.213-9.973-.745-14.667-1.543a90.57 90.57 0 0 1-10.134-2.342c-1.973-.585-3.36-2.448-3.2-4.524l1.12-12.187c.214-2.661 2.88-4.152 5.387-3.194 2.934 1.171 5.92 2.129 8.907 2.928a81.182 81.182 0 0 0 14.241 2.394l.053-24.109c-10.987-2.714-19.201-6.706-24.588-12.028-5.44-5.322-8.16-12.187-8.16-20.49 0-8.568 2.934-15.221 8.8-19.905 5.867-4.63 14.134-6.918 24.855-6.918v-7.717c.053-2.342 1.866-3.992 4.053-3.779zm-4 28.952c-3.413.266-6.027 1.171-7.947 2.768-1.92 1.596-2.827 3.778-2.827 6.493 0 2.554.854 4.736 2.614 6.493 1.76 1.703 4.48 3.087 8.16 4.151v-19.905zm7.04 43.695v22.14c3.68 0 6.507-.852 8.481-2.608 1.973-1.756 2.933-4.258 2.933-7.451 0-2.927-.907-5.375-2.72-7.291-1.813-1.969-4.747-3.566-8.694-4.79z"
    />
    <path
      fill="url(#j)"
      d="M186.632 197.281c2.507-24.429 25.014-34.807 22.081-57.32-1.814-13.837-12.321-25.546-24.108-34.647-35.628 3.726-63.202 33.157-63.202 71.689 0 43.961 35.788 80.79 78.509 82.227 4.161.16 8.214-.053 12.108-.585-16.908-16.818-27.468-40.342-25.388-61.364z"
      opacity=".3"
    />
    <path
      fill="url(#k)"
      d="M465.523 372.164c0 44.493-34.882 79.513-79.417 78.129-46.401-1.437-85.39-41.406-85.39-89.252s38.989-82.546 85.39-77.756c44.535 4.684 79.417 44.387 79.417 88.879z"
    />
    <path
      fill="url(#l)"
      d="M477.576 368.333c0 44.493-34.881 79.512-79.416 78.128-46.402-1.437-85.39-41.406-85.39-89.251 0-47.846 38.988-82.546 85.39-77.756 44.535 4.683 79.416 44.386 79.416 88.879z"
    />
    <path
      fill="url(#m)"
      d="M474.056 368.12c0 42.524-33.388 75.947-75.949 74.563-44.215-1.437-81.39-39.597-81.39-85.154 0-45.557 37.175-78.714 81.443-74.19 42.562 4.364 75.896 42.257 75.896 84.781z"
    />
    <path
      fill="url(#n)"
      d="M471.55 367.96c0 41.14-32.268 73.392-73.443 72.008-42.668-1.437-78.51-38.266-78.51-82.226 0-43.961 35.788-76 78.51-71.689 41.175 4.151 73.443 40.767 73.443 81.907z"
    />
    <path
      fill="url(#o)"
      d="M384.826 378.019c2.507-24.428 25.015-34.806 22.081-57.319-1.813-13.837-12.32-25.546-24.107-34.647-35.628 3.726-63.203 33.157-63.203 71.689 0 43.961 35.788 80.79 78.51 82.227 4.16.159 8.213-.053 12.107-.586-16.907-16.817-27.521-40.341-25.388-61.364z"
      opacity=".3"
    />
    <path
      fill="url(#p)"
      d="M410.641 332.249c3.146.266 6.24.958 9.173 2.075 2.934 1.171 6.134.16 7.627-2.341l2.987-5.163c.853-1.49 1.013-3.406.373-5.162-.64-1.756-2.026-3.247-3.733-4.045-5.12-2.395-10.667-3.938-16.374-4.63-29.228-3.353-55.629 17.456-55.629 46.834 0 29.325 26.455 51.146 55.629 48.911 5.227-.426 10.347-1.597 15.094-3.46 1.76-.692 3.2-2.075 3.893-3.832.694-1.703.64-3.619-.213-5.215l-2.827-5.376c-1.387-2.608-4.533-3.832-7.52-2.874-2.667.852-5.44 1.331-8.32 1.491-17.068.638-31.788-12.401-31.788-29.166-.16-16.818 14.56-29.324 31.628-28.047z"
    />
    <path
      fill="url(#q)"
      d="M406.214 351.035c0 2.342-2.027 4.205-4.534 4.099l-54.402-1.597c-3.093-.107-5.653-2.289-5.653-4.95s2.56-4.683 5.653-4.523l54.402 2.554c2.507.053 4.534 2.076 4.534 4.417z"
    />
    <path
      fill="url(#r)"
      d="M406.214 370.355c0 2.342-2.027 4.258-4.534 4.258l-54.402.479c-3.093.053-5.653-2.076-5.653-4.737s2.56-4.79 5.653-4.737l54.402.426c2.507.053 4.534 1.969 4.534 4.311z"
    />
    <path
      fill="#F55C59"
      d="M156.924 328.683a237.75 237.75 0 0 0 13.281 5.748 215.11 215.11 0 0 1-13.707-40.98 299.46 299.46 0 0 0-29.388 41.512c4.64-2.342 9.333-4.683 13.974-7.078.693 26.291 13.653 49.549 30.561 65.568 17.014 16.286 37.975 25.28 56.802 28.899 38.935 7.292 65.549-6.439 65.336-6.12-30.508 4.737-57.389-1.437-77.657-11.017-20.48-9.686-34.348-22.779-43.148-34.647-17.441-24.482-15.894-42.098-16.054-41.885zm257.557-95.638a237.75 237.75 0 0 0-13.281-5.748 215.064 215.064 0 0 1 13.707 40.98 299.47 299.47 0 0 0 29.388-41.513c-4.64 2.342-9.334 4.684-13.974 7.079-.693-26.291-13.654-49.549-30.561-65.569-17.014-16.285-37.975-25.28-56.802-28.899-38.935-7.291-65.549 6.44-65.336 6.121 30.508-4.737 57.389 1.437 77.656 11.017 20.481 9.686 34.348 22.778 43.149 34.647 17.44 24.481 15.84 42.097 16.054 41.885z"
    />
    <defs>
      <linearGradient id="a" x1="305.73" x2="452.162" y1="216.545" y2="125.573" gradientUnits="userSpaceOnUse">
        <stop stop-color="#FFE6E6" />
        <stop offset="1" stop-color="#D6F5FF" />
      </linearGradient>
      <linearGradient id="b" x1="229.14" x2="406.423" y1="202.485" y2="105.334" gradientUnits="userSpaceOnUse">
        <stop stop-color="#FFE6E6" />
        <stop offset="1" stop-color="#D6F5FF" />
      </linearGradient>
      <linearGradient id="c" x1="72.398" x2="234.81" y1="276.915" y2="136.729" gradientUnits="userSpaceOnUse">
        <stop stop-color="#FFE6E6" />
        <stop offset="1" stop-color="#D6F5FF" />
      </linearGradient>
      <linearGradient id="d" x1="63.669" x2="161.154" y1="381.152" y2="258.831" gradientUnits="userSpaceOnUse">
        <stop stop-color="#FFE6E6" />
        <stop offset="1" stop-color="#D6F5FF" />
      </linearGradient>
      <linearGradient id="e" x1="156.679" x2="60.589" y1="194.929" y2="225.834" gradientUnits="userSpaceOnUse">
        <stop stop-color="#FCB148" />
        <stop offset=".052" stop-color="#FDBA46" />
        <stop offset=".142" stop-color="#FFC244" />
        <stop offset=".318" stop-color="#FFC444" />
        <stop offset=".485" stop-color="#FDB946" />
        <stop offset=".775" stop-color="#F99C4D" />
        <stop offset=".866" stop-color="#F8924F" />
        <stop offset="1" stop-color="#F8924F" />
      </linearGradient>
      <linearGradient id="f" x1="234.442" x2="148.929" y1="99.447" y2="288.51" gradientUnits="userSpaceOnUse">
        <stop stop-color="#FFDB44" />
        <stop offset="1" stop-color="#FEEF06" />
      </linearGradient>
      <linearGradient id="g" x1="218.656" x2="202.166" y1="298.932" y2="208.653" gradientUnits="userSpaceOnUse">
        <stop stop-color="#FCB148" />
        <stop offset=".052" stop-color="#FDBA46" />
        <stop offset=".142" stop-color="#FFC244" />
        <stop offset=".318" stop-color="#FFC444" />
        <stop offset=".485" stop-color="#FDB946" />
        <stop offset=".775" stop-color="#F99C4D" />
        <stop offset=".866" stop-color="#F8924F" />
        <stop offset="1" stop-color="#F8924F" />
      </linearGradient>
      <linearGradient id="h" x1="183.548" x2="251.55" y1="152.825" y2="297.49" gradientUnits="userSpaceOnUse">
        <stop stop-color="#FCB148" />
        <stop offset=".052" stop-color="#FDBA46" />
        <stop offset=".142" stop-color="#FFC244" />
        <stop offset=".318" stop-color="#FFC444" />
        <stop offset=".485" stop-color="#FDB946" />
        <stop offset=".775" stop-color="#F99C4D" />
        <stop offset=".866" stop-color="#F8924F" />
        <stop offset="1" stop-color="#F8924F" />
      </linearGradient>
      <linearGradient id="i" x1="180.829" x2="215.006" y1="121.719" y2="250.083" gradientUnits="userSpaceOnUse">
        <stop stop-color="#FFDB44" />
        <stop offset="1" stop-color="#FEEF06" />
      </linearGradient>
      <linearGradient id="j" x1="163.472" x2="231.336" y1="162.18" y2="306.553" gradientUnits="userSpaceOnUse">
        <stop stop-color="#FCB148" />
        <stop offset=".052" stop-color="#FDBA46" />
        <stop offset=".142" stop-color="#FFC244" />
        <stop offset=".318" stop-color="#FFC444" />
        <stop offset=".485" stop-color="#FDB946" />
        <stop offset=".775" stop-color="#F99C4D" />
        <stop offset=".866" stop-color="#F8924F" />
        <stop offset="1" stop-color="#F8924F" />
      </linearGradient>
      <linearGradient id="k" x1="354.867" x2="258.776" y1="375.67" y2="406.575" gradientUnits="userSpaceOnUse">
        <stop stop-color="#FCB148" />
        <stop offset=".052" stop-color="#FDBA46" />
        <stop offset=".142" stop-color="#FFC244" />
        <stop offset=".318" stop-color="#FFC444" />
        <stop offset=".485" stop-color="#FDB946" />
        <stop offset=".775" stop-color="#F99C4D" />
        <stop offset=".866" stop-color="#F8924F" />
        <stop offset="1" stop-color="#F8924F" />
      </linearGradient>
      <linearGradient id="l" x1="432.63" x2="347.116" y1="280.189" y2="469.252" gradientUnits="userSpaceOnUse">
        <stop stop-color="#FFDB44" />
        <stop offset="1" stop-color="#FEEF06" />
      </linearGradient>
      <linearGradient id="m" x1="416.843" x2="400.353" y1="479.674" y2="389.395" gradientUnits="userSpaceOnUse">
        <stop stop-color="#FCB148" />
        <stop offset=".052" stop-color="#FDBA46" />
        <stop offset=".142" stop-color="#FFC244" />
        <stop offset=".318" stop-color="#FFC444" />
        <stop offset=".485" stop-color="#FDB946" />
        <stop offset=".775" stop-color="#F99C4D" />
        <stop offset=".866" stop-color="#F8924F" />
        <stop offset="1" stop-color="#F8924F" />
      </linearGradient>
      <linearGradient id="n" x1="381.736" x2="449.737" y1="333.567" y2="478.232" gradientUnits="userSpaceOnUse">
        <stop stop-color="#FCB148" />
        <stop offset=".052" stop-color="#FDBA46" />
        <stop offset=".142" stop-color="#FFC244" />
        <stop offset=".318" stop-color="#FFC444" />
        <stop offset=".485" stop-color="#FDB946" />
        <stop offset=".775" stop-color="#F99C4D" />
        <stop offset=".866" stop-color="#F8924F" />
        <stop offset="1" stop-color="#F8924F" />
      </linearGradient>
      <linearGradient id="o" x1="361.659" x2="429.524" y1="342.922" y2="487.295" gradientUnits="userSpaceOnUse">
        <stop stop-color="#FCB148" />
        <stop offset=".052" stop-color="#FDBA46" />
        <stop offset=".142" stop-color="#FFC244" />
        <stop offset=".318" stop-color="#FFC444" />
        <stop offset=".485" stop-color="#FDB946" />
        <stop offset=".775" stop-color="#F99C4D" />
        <stop offset=".866" stop-color="#F8924F" />
        <stop offset="1" stop-color="#F8924F" />
      </linearGradient>
      <linearGradient id="p" x1="385.418" x2="410.392" y1="315.864" y2="409.666" gradientUnits="userSpaceOnUse">
        <stop stop-color="#FFDB44" />
        <stop offset="1" stop-color="#FEEF06" />
      </linearGradient>
      <linearGradient id="q" x1="403.851" x2="343.943" y1="341.703" y2="357.722" gradientUnits="userSpaceOnUse">
        <stop stop-color="#FFDB44" />
        <stop offset="1" stop-color="#FEEF06" />
      </linearGradient>
      <linearGradient id="r" x1="404.158" x2="343.631" y1="362.184" y2="378.369" gradientUnits="userSpaceOnUse">
        <stop stop-color="#FFDB44" />
        <stop offset="1" stop-color="#FEEF06" />
      </linearGradient>
    </defs>
  </svg>