  <svg xmlns="http://www.w3.org/2000/svg" xmlns:xlink="http://www.w3.org/1999/xlink" viewBox="0 0 526 499">
    <defs>
      <linearGradient id="linear-gradient" x1="207.07" x2="319.1" y1="153.37" y2="347.4" gradientUnits="userSpaceOnUse">
        <stop offset="0" stop-color="#fff" />
        <stop offset=".45" stop-color="#f1f1f6" />
      </linearGradient>
      <linearGradient id="linear-gradient-2" x1="96.65" x2="429.18" y1="338.11" y2="338.11" gradientUnits="userSpaceOnUse">
        <stop offset=".27" stop-color="#807cfb" />
        <stop offset=".3" stop-color="#7c78f7" />
        <stop offset=".32" stop-color="#736feb" />
        <stop offset=".35" stop-color="#635fd8" />
        <stop offset=".38" stop-color="#4d49bc" />
        <stop offset=".39" stop-color="#423eaf" />
      </linearGradient>
      <linearGradient id="linear-gradient-3" x1="96.65" x2="429.18" y1="338.11" y2="338.11" gradientUnits="userSpaceOnUse">
        <stop offset=".27" stop-color="#435699" />
        <stop offset=".33" stop-color="#405395" />
        <stop offset=".39" stop-color="#374c89" />
        <stop offset=".39" stop-color="#374c89" />
      </linearGradient>
      <linearGradient id="linear-gradient-4" x1="267.82" x2="323.84" y1="286.95" y2="286.95" gradientUnits="userSpaceOnUse">
        <stop offset=".18" stop-color="#a3a9d0" />
        <stop offset=".47" stop-color="#c0c4df" />
        <stop offset="1" stop-color="#fff" />
      </linearGradient>
      <linearGradient id="linear-gradient-5" x1="256.78" x2="311.65" y1="291.38" y2="291.38" gradientUnits="userSpaceOnUse">
        <stop offset="0" stop-color="#fd9009" />
        <stop offset="1" stop-color="#dd3b10" />
      </linearGradient>
      <linearGradient xlink:href="#linear-gradient-5" id="linear-gradient-6" x1="275.75" x2="287.79" y1="285.12" y2="285.12" />
      <linearGradient id="linear-gradient-7" x1="256.78" x2="311.65" y1="239.15" y2="239.15" gradientUnits="userSpaceOnUse">
        <stop offset="0" stop-color="#fff1b5" />
        <stop offset=".07" stop-color="#fff5cc" />
        <stop offset=".16" stop-color="#fff9e2" />
        <stop offset=".25" stop-color="#fffcf2" />
        <stop offset=".36" stop-color="#fffefc" />
        <stop offset=".51" stop-color="#fff" />
        <stop offset=".64" stop-color="#fffefb" />
        <stop offset=".75" stop-color="#fffcf1" />
        <stop offset=".85" stop-color="#fff9e0" />
        <stop offset=".94" stop-color="#fff4c8" />
        <stop offset="1" stop-color="#fff1b5" />
      </linearGradient>
      <linearGradient xlink:href="#linear-gradient-2" id="linear-gradient-8" x1="-8752.74" x2="-8420.21" y1="216.48" y2="216.48" gradientTransform="matrix(-1 0 0 1 -8323.39 0)" />
      <linearGradient id="linear-gradient-9" x1="-8752.74" x2="-8420.21" y1="216.48" y2="216.48" gradientTransform="matrix(-1 0 0 1 -8323.39 0)" gradientUnits="userSpaceOnUse">
        <stop offset=".27" stop-color="#374c89" />
        <stop offset=".33" stop-color="#394e8c" />
        <stop offset=".39" stop-color="#425598" />
        <stop offset=".39" stop-color="#435699" />
      </linearGradient>
      <linearGradient xlink:href="#linear-gradient-5" id="linear-gradient-10" y1="244.92" y2="244.92" />
      <linearGradient xlink:href="#linear-gradient-5" id="linear-gradient-11" x1="275.75" x2="287.79" y1="238.67" y2="238.67" />
      <linearGradient xlink:href="#linear-gradient-7" id="linear-gradient-12" y1="239.15" y2="239.15" />
      <linearGradient id="linear-gradient-13" x1="306.31" x2="366.77" y1="217.15" y2="217.15" gradientUnits="userSpaceOnUse">
        <stop offset="0" stop-color="#c4cae9" />
        <stop offset="1" stop-color="#dae0f5" />
      </linearGradient>
      <linearGradient id="linear-gradient-14" x1="303.19" x2="363.65" y1="219.45" y2="219.45" gradientUnits="userSpaceOnUse">
        <stop offset="0" stop-color="#5652cc" />
        <stop offset=".39" stop-color="#362e94" />
      </linearGradient>
      <linearGradient xlink:href="#linear-gradient-4" id="linear-gradient-15" y1="190.52" y2="190.52" />
      <linearGradient xlink:href="#linear-gradient-5" id="linear-gradient-16" y1="194.95" y2="194.95" />
      <linearGradient xlink:href="#linear-gradient-5" id="linear-gradient-17" x1="275.75" x2="287.79" y1="188.69" y2="188.69" />
      <linearGradient id="linear-gradient-18" x1="359.84" x2="387.51" y1="96.79" y2="144.7" gradientUnits="userSpaceOnUse">
        <stop offset="0" stop-color="#f55c59" />
        <stop offset="1" stop-color="#c13d3d" />
      </linearGradient>
      <linearGradient id="linear-gradient-19" x1="98.22" x2="127.02" y1="287.2" y2="287.2" gradientUnits="userSpaceOnUse">
        <stop offset="0" stop-color="#f55c59" />
        <stop offset="1" stop-color="#c13d3d" />
      </linearGradient>
      <linearGradient id="linear-gradient-20" x1="374.7" x2="416.64" y1="308.88" y2="308.88" gradientUnits="userSpaceOnUse">
        <stop offset="0" stop-color="#a3a9d0" />
        <stop offset="1" stop-color="#ced3f8" />
      </linearGradient>
      <linearGradient xlink:href="#linear-gradient-20" id="linear-gradient-21" x1="412.14" x2="369.87" y1="332.85" y2="305.55" />
      <linearGradient id="linear-gradient-22" x1="387.58" x2="399.2" y1="317.98" y2="317.98" gradientUnits="userSpaceOnUse">
        <stop offset="0" stop-color="#ced3f8" />
        <stop offset="1" stop-color="#a3a9d0" />
      </linearGradient>
      <linearGradient
        id="linear-gradient-23"
        x1="-2539.24"
        x2="-2517.22"
        y1="5089.56"
        y2="5127.71"
        gradientTransform="scale(1 -1) rotate(-60 -5984.928 .319)"
        gradientUnits="userSpaceOnUse"
      >
        <stop offset="0" stop-color="#f55c59" />
        <stop offset="1" stop-color="#c13d3d" />
      </linearGradient>
      <linearGradient id="linear-gradient-24" x1="152.25" x2="176.76" y1="66.63" y2="66.63" gradientUnits="userSpaceOnUse">
        <stop offset="0" stop-color="#374c89" />
        <stop offset=".49" stop-color="#3f5394" />
        <stop offset="1" stop-color="#435699" />
      </linearGradient>
      <clipPath id="clippath"><path d="m299.77 263.57 110.43-63.76L220.51 90.29l-110.43 63.76 189.69 109.52z" class="cls-40" /></clipPath>
      <style>
        .cls-1,
        .cls-5 {
          mix-blend-mode: multiply;
        }
        .cls-1,
        .cls-12 {
          fill: #807dfb;
        }
        .cls-14 {
          fill: #fff;
        }
        .cls-18 {
          fill: #f6f6fb;
        }
        .cls-28,
        .cls-5 {
          fill: #dfe4f4;
        }
        .cls-31 {
          fill: #ef4e16;
        }
        .cls-32 {
          fill: #ffad02;
        }
        .cls-34 {
          fill: #fd9009;
        }
        .cls-35 {
          fill: #ffd03e;
        }
        .cls-36 {
          fill: #ced3f8;
        }
        .cls-40 {
          fill: none;
        }
        .cls-41 {
          fill: #a3a9d0;
        }
        .cls-43 {
          fill: #bbc0e6;
        }
        .cls-47 {
          fill: #435699;
        }
      </style>
    </defs>
    <g style="isolation: isolate">
      <g id="Layer_2" data-name="Layer 2">
        <g id="Layer_1-2" data-name="Layer 1">
          <path d="M0 0h526v499H0z" class="cls-40" />
          <path
            d="M277.32 129.89c-1.69-.98-4.43-.98-6.12 0-1.69.98-1.69 2.56 0 3.53 1.69.98 4.43.98 6.12 0 1.69-.98 1.69-2.56 0-3.53ZM262.35 138.54c-1.69-.98-4.43-.98-6.12 0-1.69.98-1.69 2.56 0 3.53s4.43.98 6.12 0c1.69-.98 1.69-2.56 0-3.53ZM247.37 147.19c-1.69-.98-4.43-.98-6.12 0-1.69.97-1.69 2.56 0 3.53 1.69.98 4.43.98 6.12 0 1.69-.97 1.69-2.56 0-3.53ZM232.39 155.84c-1.69-.98-4.43-.98-6.12 0-1.69.98-1.69 2.56 0 3.54s4.43.98 6.12 0c1.69-.98 1.69-2.56 0-3.54ZM217.41 164.48c-1.69-.98-4.43-.98-6.12 0-1.69.98-1.69 2.56 0 3.53 1.69.98 4.43.98 6.12 0 1.69-.98 1.69-2.56 0-3.53Z"
            class="cls-14"
          />
          <path
            fill="url(#linear-gradient)"
            d="M303.04 343.7c6.18 3.57 16.3 3.57 22.48 0l99.2-57.27c6.18-3.57 6.18-9.41 0-12.98L223.14 157.07c-6.18-3.57-16.3-3.57-22.48 0l-99.2 57.27c-6.18 3.57-6.18 9.41 0 12.98L303.04 343.7Z"
            style="mix-blend-mode: multiply"
          />
          <path
            fill="url(#linear-gradient-2)"
            d="M96.65 329.66v.14-.14Zm332.52-59.02v.07-.07Zm-4.63 6.56L222.96 393.58c-6.18 3.57-16.3 3.57-22.48 0l-99.2-57.27c-3.08-1.78-4.62-4.12-4.63-6.46v9.21c-.03 2.38 1.5 4.77 4.63 6.58l99.2 57.27c6.18 3.57 16.3 3.57 22.48 0l201.58-116.38c3.09-1.79 4.64-4.14 4.64-6.49v-9.32c0 2.35-1.55 4.7-4.64 6.49Z"
          />
          <path
            fill="#f1f1f6"
            d="M222.97 393.58c-6.18 3.57-16.3 3.57-22.48 0l-99.2-57.27c-6.18-3.57-6.18-9.41 0-12.98l201.58-116.38c6.18-3.57 16.3-3.57 22.48 0l99.2 57.27c6.18 3.57 6.18 9.41 0 12.98L222.97 393.58Z"
          />
          <path
            fill="url(#linear-gradient-3)"
            d="M96.65 329.66v.14-.14Zm332.52-59.02v.07-.07Zm-4.63 6.56L222.96 393.58c-6.18 3.57-16.3 3.57-22.48 0l-99.2-57.27c-3.08-1.78-4.62-4.12-4.63-6.46v9.21c-.03 2.38 1.5 4.77 4.63 6.58l99.2 57.27c6.18 3.57 16.3 3.57 22.48 0l201.58-116.38c3.09-1.79 4.64-4.14 4.64-6.49v-9.32c0 2.35-1.55 4.7-4.64 6.49Z"
          />
          <path d="M226.23 385.21 115.8 321.44l189.69-109.51 110.43 63.76-189.69 109.52z" class="cls-14" />
          <path d="m354.84 231.68 26.87 15.51-1.73 1-26.87-15.51 1.73-1z" class="cls-43" />
          <path
            d="M169.27 354.33c-4.6-2.65-12.05-2.65-16.64 0-4.6 2.65-4.6 6.96 0 9.61 4.6 2.65 12.05 2.65 16.65 0 4.6-2.65 4.6-6.96 0-9.61Zm-2.33 8.26c-3.31 1.91-8.67 1.91-11.98 0-3.31-1.91-3.31-5 0-6.91 3.31-1.91 8.67-1.91 11.98 0 3.31 1.91 3.31 5.01 0 6.91Z"
            class="cls-36"
          />
          <path
            fill="#f1f1f6"
            d="m424.54 264.22-99.2-57.27c-6.18-3.57-16.3-3.57-22.48 0l-110.27 63.66 110.44 63.76c6.18 3.57 16.3 3.57 22.48 0l99.03-57.17c6.18-3.57 6.18-9.41 0-12.98Z"
            style="mix-blend-mode: multiply"
          />
          <path
            fill="url(#linear-gradient-4)"
            d="M315.57 275.47c-5.86-3.38-13.64-4.94-21.29-4.71H282.3v1.97c-2.28.72-4.42 1.63-6.34 2.75-10.9 6.34-10.84 16.61.13 22.95 1.89 1.09 3.99 1.98 6.21 2.69v2.05h14.37c6.91-.12 13.77-1.68 19.03-4.74 10.9-6.34 10.85-16.61-.13-22.95Z"
            style="mix-blend-mode: multiply"
          />
          <path
            d="M256.78 279.55c0-4.05 2.68-8.11 8.04-11.2 5.36-3.09 12.38-4.64 19.4-4.64s14.04 1.55 19.4 4.64c5.36 3.09 8.04 7.15 8.04 11.2 0 4.05-2.68 8.11-8.04 11.2-5.36 3.09-12.38 4.64-19.4 4.64s-14.04-1.55-19.4-4.64c-5.36-3.09-8.04-7.15-8.04-11.2Z"
            class="cls-35"
          />
          <path
            fill="url(#linear-gradient-5)"
            d="M303.61 290.75c-5.36 3.09-12.38 4.64-19.4 4.64s-14.04-1.55-19.4-4.64c-5.36-3.09-8.04-7.15-8.04-11.2v7.82c0 4.05 2.68 8.1 8.04 11.2 5.36 3.09 12.38 4.64 19.4 4.64s14.04-1.55 19.4-4.64c5.36-3.09 8.04-7.15 8.04-11.2v-7.82c0 4.05-2.68 8.11-8.04 11.2Z"
          />
          <path
            d="M268.46 288.64c4.35 2.51 10.05 3.77 15.76 3.77s11.4-1.26 15.75-3.77c4.01-2.32 6.17-5.3 6.48-8.33-.31-3.03-2.47-6.02-6.48-8.34-4.35-2.51-10.05-3.77-15.76-3.77s-11.4 1.26-15.75 3.77c-4.01 2.32-6.17 5.3-6.48 8.33.31 3.03 2.47 6.02 6.48 8.33Z"
            class="cls-32"
          />
          <path
            d="M268.46 271.98c4.35-2.51 10.05-3.77 15.75-3.77s11.4 1.26 15.76 3.77c4.01 2.32 6.17 5.3 6.48 8.34.03-.25.04-.51.04-.76 0-3.29-2.17-6.58-6.52-9.1-4.35-2.51-10.05-3.77-15.76-3.77s-11.4 1.26-15.75 3.77-6.53 5.8-6.53 9.1c0 .25.02.51.04.76.31-3.04 2.47-6.02 6.48-8.33Z"
            class="cls-31"
          />
          <path d="m295.19 276.28 2.11-1.22v-1.53l-2.11 1.22v1.53z" class="cls-31" />
          <path
            d="M285.47 278.82c-.79-.45-1.22-1.06-1.22-1.7s.43-1.25 1.22-1.7c1.62-.94 4.26-.94 5.89 0 1.62.94 1.62 2.46 0 3.4l2.67 1.54c2.63-1.52 3.02-3.85 1.16-5.61l2.11-1.22-2.67-1.54-2.11 1.22c-3.05-1.07-7.09-.85-9.72.67-1.5.87-2.33 2.02-2.32 3.24 0 1.22.83 2.37 2.32 3.24 1.62.94 1.62 2.46 0 3.4s-4.26.94-5.89 0c-1.62-.94-1.62-2.46 0-3.4l-2.67-1.54c-2.64 1.52-3.02 3.85-1.17 5.61l-1.94 1.12 2.67 1.54 1.94-1.12c3.05 1.07 7.09.85 9.72-.67 3.09-1.79 3.09-4.69 0-6.48Z"
            class="cls-35"
          />
          <path d="m271.13 287.08 2.67 1.55v-1.53l-2.67-1.54v1.52z" class="cls-34" />
          <path d="m273.8 288.63 1.95-1.13v-1.52l-1.95 1.12v1.53z" class="cls-31" />
          <path d="m291.36 280.35 2.67 1.54v-1.52l-2.67-1.55v1.53z" class="cls-34" />
          <path d="M276.92 281.89v-1.52c-1.15.67-1.48 1.62-1 2.46.2-.34.53-.66 1-.94Z" class="cls-31" />
          <path
            d="M271.93 281.99v1.72c.02.41.13.81.33 1.2l.81-.47c-.79-.75-1.16-1.6-1.14-2.44ZM282.8 281.89c.47.27.8.6 1 .94.48-.84.15-1.8-1-2.46-1.5-.86-2.33-2.01-2.32-3.24v1.52c0 1.22.83 2.37 2.32 3.24ZM287.79 282.06v-.03.03Z"
            class="cls-34"
          />
          <path d="M296.34 277.12c0 1.17-.76 2.35-2.31 3.24v1.52c1.59-.92 2.35-2.13 2.31-3.33s0-1.44 0-1.44Z" class="cls-31" />
          <path
            fill="url(#linear-gradient-6)"
            d="M285.47 285.3c-2.63 1.52-6.67 1.74-9.72.67v1.52c3.05 1.07 7.09.85 9.72-.67 1.54-.89 2.31-2.05 2.32-3.21s0-1.55 0-1.55c0 1.17-.78 2.34-2.32 3.23Z"
          />
          <path
            d="M291.36 275.43c-1.62-.94-4.26-.94-5.89 0-.79.45-1.22 1.06-1.22 1.7 0 .26.08.52.22.76.2-.35.54-.67 1-.94 1.62-.94 4.26-.94 5.89 0 .47.27.8.59 1 .94.48-.84.15-1.8-1-2.46Z"
            class="cls-31"
          />
          <path fill="url(#linear-gradient-7)" d="M256.78 190.94h54.87v96.43h-54.87z" style="mix-blend-mode: multiply" />
          <path
            fill="url(#linear-gradient-8)"
            d="M429.35 208.16v-.14.14ZM96.82 149.07V149v.07Zm0 0v9.32c0 2.35 1.55 4.71 4.64 6.49l201.58 116.38c6.18 3.57 16.3 3.57 22.48 0l99.2-57.27c3.13-1.81 4.67-4.2 4.63-6.58v-9.21c-.01 2.34-1.55 4.69-4.63 6.46l-99.2 57.27c-6.18 3.57-16.3 3.57-22.48 0L101.46 155.56c-3.09-1.78-4.64-4.14-4.64-6.49Z"
          />
          <path
            d="M303.04 271.95c6.18 3.57 16.3 3.57 22.48 0l99.2-57.27c6.18-3.57 6.18-9.41 0-12.98L223.14 85.32c-6.18-3.57-16.3-3.57-22.48 0l-99.2 57.27c-6.18 3.57-6.18 9.41 0 12.98l201.58 116.38Z"
            class="cls-18"
          />
          <path
            fill="url(#linear-gradient-9)"
            d="M429.35 208.16v-.14.14ZM96.82 149.07V149v.07Zm0 0v9.32c0 2.35 1.55 4.71 4.64 6.49l201.58 116.38c6.18 3.57 16.3 3.57 22.48 0l99.2-57.27c3.13-1.81 4.67-4.2 4.63-6.58v-9.21c-.01 2.34-1.55 4.69-4.63 6.46l-99.2 57.27c-6.18 3.57-16.3 3.57-22.48 0L101.46 155.56c-3.09-1.78-4.64-4.14-4.64-6.49Z"
          />
          <path
            d="M303.04 271.95c6.18 3.57 16.3 3.57 22.48 0l99.2-57.27c6.18-3.57 6.18-9.41 0-12.98L223.14 85.32c-6.18-3.57-16.3-3.57-22.48 0l-99.2 57.27c-6.18 3.57-6.18 9.41 0 12.98l201.58 116.38Z"
            class="cls-18"
          />
          <path d="m299.77 263.57 110.43-63.76L220.51 90.29l-110.43 63.76 189.69 109.52z" class="cls-14" />
          <path d="m171.16 110.04-26.87 15.52 1.73.99 26.87-15.51-1.73-1z" class="cls-43" />
          <path
            d="M356.73 242.31c4.6 2.65 12.05 2.65 16.65 0 4.6-2.65 4.6-6.96 0-9.61-4.6-2.65-12.05-2.65-16.65 0-4.6 2.65-4.6 6.96 0 9.61Zm2.33-8.26c3.31-1.91 8.67-1.91 11.98 0 3.31 1.91 3.31 5.01 0 6.91-3.31 1.91-8.67 1.91-11.98 0-3.31-1.91-3.31-5 0-6.91Z"
            class="cls-36"
          />
          <g clip-path="url(#clippath)">
            <g opacity=".5">
              <path
                d="M256.78 233.1c0-4.05 2.68-8.11 8.04-11.2 5.36-3.09 12.38-4.64 19.4-4.64s14.04 1.55 19.4 4.64c5.36 3.09 8.04 7.15 8.04 11.2 0 4.05-2.68 8.11-8.04 11.2-5.36 3.09-12.38 4.64-19.4 4.64s-14.04-1.55-19.4-4.64c-5.36-3.09-8.04-7.15-8.04-11.2Z"
                class="cls-35"
              />
              <path
                fill="url(#linear-gradient-10)"
                d="M303.61 244.3c-5.36 3.09-12.38 4.64-19.4 4.64s-14.04-1.55-19.4-4.64c-5.36-3.09-8.04-7.15-8.04-11.2v7.82c0 4.05 2.68 8.11 8.04 11.2 5.36 3.09 12.38 4.64 19.4 4.64s14.04-1.54 19.4-4.64c5.36-3.09 8.04-7.15 8.04-11.2v-7.82c0 4.05-2.68 8.11-8.04 11.2Z"
              />
              <path
                d="M268.46 242.19c4.35 2.51 10.05 3.77 15.76 3.77s11.4-1.26 15.75-3.77c4.01-2.32 6.17-5.3 6.48-8.33-.31-3.03-2.47-6.02-6.48-8.33-4.35-2.51-10.05-3.77-15.76-3.77s-11.4 1.26-15.75 3.77c-4.01 2.32-6.17 5.3-6.48 8.33.31 3.03 2.47 6.02 6.48 8.33Z"
                class="cls-32"
              />
              <path
                d="M268.46 225.52c4.35-2.51 10.05-3.77 15.75-3.77s11.4 1.26 15.76 3.77c4.01 2.32 6.17 5.3 6.48 8.33.03-.25.04-.51.04-.76 0-3.29-2.17-6.58-6.52-9.1-4.35-2.51-10.05-3.77-15.76-3.77s-11.4 1.26-15.75 3.77-6.53 5.8-6.53 9.1c0 .25.02.51.04.76.31-3.03 2.47-6.02 6.48-8.33Z"
                class="cls-31"
              />
              <path d="m295.19 229.82 2.11-1.21v-1.53l-2.11 1.22v1.52z" class="cls-31" />
              <path
                d="M285.47 232.37c-.79-.45-1.22-1.06-1.22-1.7s.43-1.25 1.22-1.7c1.62-.94 4.26-.94 5.89 0 1.62.94 1.62 2.46 0 3.4l2.67 1.54c2.63-1.52 3.02-3.85 1.16-5.61l2.11-1.22-2.67-1.54-2.11 1.22c-3.05-1.07-7.09-.85-9.72.67-1.5.87-2.33 2.02-2.32 3.24 0 1.22.83 2.37 2.32 3.24 1.62.94 1.62 2.46 0 3.4s-4.26.94-5.89 0c-1.62-.94-1.62-2.46 0-3.4l-2.67-1.54c-2.64 1.52-3.02 3.85-1.17 5.61l-1.94 1.12 2.67 1.54 1.94-1.12c3.05 1.07 7.09.85 9.72-.67 3.09-1.79 3.09-4.69 0-6.48Z"
                class="cls-35"
              />
              <path d="m271.13 240.63 2.67 1.54v-1.52l-2.67-1.54v1.52z" class="cls-34" />
              <path d="m273.8 242.17 1.95-1.12v-1.53l-1.95 1.13v1.52z" class="cls-31" />
              <path d="m291.36 233.89 2.67 1.55v-1.53l-2.67-1.54v1.52z" class="cls-34" />
              <path d="M276.92 235.44v-1.52c-1.15.67-1.48 1.63-1 2.46.2-.34.53-.66 1-.94Z" class="cls-31" />
              <path
                d="M271.93 235.53v1.72c.02.41.13.81.33 1.2l.81-.47c-.79-.75-1.16-1.6-1.14-2.44ZM282.8 235.43c.47.27.8.6 1 .94.48-.83.15-1.79-1-2.46-1.5-.86-2.33-2.02-2.32-3.24v1.52c0 1.22.83 2.37 2.32 3.24ZM287.79 235.6v-.03.03Z"
                class="cls-34"
              />
              <path d="M296.34 230.67c0 1.17-.76 2.35-2.31 3.24v1.52c1.59-.92 2.35-2.13 2.31-3.33s0-1.44 0-1.44Z" class="cls-31" />
              <path
                fill="url(#linear-gradient-11)"
                d="M285.47 238.85c-2.63 1.52-6.67 1.74-9.72.67v1.52c3.05 1.07 7.09.85 9.72-.67 1.54-.89 2.31-2.05 2.32-3.21v-1.55c0 1.17-.78 2.34-2.32 3.23Z"
              />
              <path
                d="M291.36 228.97c-1.62-.94-4.26-.94-5.89 0-.79.45-1.22 1.06-1.22 1.7 0 .26.08.52.22.76.2-.35.54-.67 1-.94 1.62-.94 4.26-.94 5.89 0 .47.27.8.59 1 .94.48-.84.15-1.8-1-2.46Z"
                class="cls-31"
              />
            </g>
            <path fill="url(#linear-gradient-12)" d="M256.78 190.94h54.87v96.43h-54.87z" style="mix-blend-mode: multiply" />
          </g>
          <path
            fill="url(#linear-gradient-13)"
            d="m309.97 222.28 35.46-20.47c4.88-2.82 12.8-2.82 17.68 0 4.88 2.82 4.88 7.39 0 10.21l-35.46 20.47c-4.88 2.82-12.8 2.82-17.68 0-4.88-2.82-4.88-7.39 0-10.21Z"
            style="mix-blend-mode: multiply"
          />
          <path
            d="m306.85 219.65 35.46-20.47c4.88-2.82 12.8-2.82 17.68 0 4.88 2.82 4.88 7.39 0 10.21l-35.46 20.47c-4.88 2.82-12.8 2.82-17.68 0-4.88-2.82-4.88-7.39 0-10.21Z"
            class="cls-47"
          />
          <path
            fill="url(#linear-gradient-14)"
            d="m359.99 209.39-35.46 20.47c-4.88 2.82-12.8 2.82-17.68 0-2.4-1.38-3.61-3.19-3.65-5v2.69c.07 1.79 1.28 3.57 3.65 4.93 4.88 2.82 12.8 2.82 17.68 0l35.46-20.47c2.4-1.39 3.62-3.2 3.65-5.02v-2.69c0 1.84-1.23 3.68-3.66 5.09Z"
          />
          <path
            d="M328.51 219.41c-1.5-.87-3.17-.64-5.18.09l-.54.19c-1.39.5-2.39.8-3.34.25-.8-.46-.58-1.19.43-1.76 1.11-.64 2.49-.83 3.65-.16l.38.22 1.21-.7-.46-.27c-1.71-.99-4.05-.77-5.87.28-1.66.96-2 2.27-.54 3.11 1.53.88 3.15.64 5.17-.09l.55-.19c1.44-.53 2.49-.74 3.37-.24.84.48.85 1.24-.39 1.96-1.44.83-3.02.85-4.42.04l-.25-.14-1.23.71.3.17c2.06 1.19 4.52 1.11 6.66-.13 1.8-1.04 2.17-2.38.5-3.34Zm4-.75-2.73-1.57 4-2.31-1.13-.65-4 2.31-2.68-1.55 4.35-2.51-1.11-.64-5.59 3.23 8.76 5.06 5.66-3.27-1.11-.64-4.42 2.55Zm3.29-10.73 7.52 4.34-.15.09-10.41-2.67-2.18 1.26 8.76 5.06 1.24-.72-7.53-4.35.15-.09 10.42 2.68 2.18-1.26-8.76-5.06-1.24.72Zm14.56-2.37-1.7-.98c-2.43-1.4-4.8-1.3-7.09.02l-2.83 1.63 8.76 5.06 2.83-1.63c2.29-1.32 2.47-2.69.04-4.1Zm-1.15 3.45-1.59.92-6.53-3.77 1.59-.92c1.64-.95 3.05-.92 4.68.01l1.83 1.05c1.63.94 1.69 1.74.03 2.7Z"
            class="cls-35"
          />
          <path fill="#fff" d="m110.08 154.05 110.43-63.76 89.85 51.87L149.82 177l-39.74-22.95z" style="mix-blend-mode: screen" />
          <path
            fill="url(#linear-gradient-15)"
            d="M315.57 179.04c-5.86-3.38-13.64-4.94-21.29-4.71H282.3v1.96c-2.28.72-4.42 1.63-6.34 2.75-10.9 6.34-10.84 16.61.13 22.95 1.89 1.09 3.99 1.98 6.21 2.69v2.05h14.37c6.91-.12 13.77-1.68 19.03-4.74 10.9-6.34 10.85-16.61-.13-22.95Z"
            style="mix-blend-mode: multiply"
          />
          <path
            d="M256.78 183.12c0-4.05 2.68-8.11 8.04-11.2 5.36-3.09 12.38-4.64 19.4-4.64s14.04 1.55 19.4 4.64c5.36 3.09 8.04 7.15 8.04 11.2 0 4.05-2.68 8.11-8.04 11.2-5.36 3.09-12.38 4.64-19.4 4.64s-14.04-1.55-19.4-4.64c-5.36-3.09-8.04-7.15-8.04-11.2Z"
            class="cls-35"
          />
          <path
            fill="url(#linear-gradient-16)"
            d="M303.61 194.32c-5.36 3.09-12.38 4.64-19.4 4.64s-14.04-1.55-19.4-4.64c-5.36-3.09-8.04-7.15-8.04-11.2v7.82c0 4.05 2.68 8.11 8.04 11.2 5.36 3.09 12.38 4.64 19.4 4.64s14.04-1.54 19.4-4.64c5.36-3.09 8.04-7.15 8.04-11.2v-7.82c0 4.05-2.68 8.11-8.04 11.2Z"
          />
          <path
            d="M268.46 192.21c4.35 2.51 10.05 3.77 15.76 3.77s11.4-1.26 15.75-3.77c4.01-2.32 6.17-5.3 6.48-8.33-.31-3.03-2.47-6.01-6.48-8.33-4.35-2.51-10.05-3.77-15.76-3.77s-11.4 1.26-15.75 3.77c-4.01 2.32-6.17 5.3-6.48 8.33.31 3.03 2.47 6.02 6.48 8.33Z"
            class="cls-32"
          />
          <path
            d="M268.46 175.55c4.35-2.51 10.05-3.77 15.75-3.77s11.4 1.26 15.76 3.77c4.01 2.32 6.17 5.3 6.48 8.33.03-.25.04-.51.04-.76 0-3.29-2.17-6.58-6.52-9.1-4.35-2.51-10.05-3.77-15.76-3.77s-11.4 1.26-15.75 3.77-6.53 5.8-6.53 9.1c0 .25.02.51.04.76.31-3.03 2.47-6.02 6.48-8.33Z"
            class="cls-31"
          />
          <path d="m295.19 179.85 2.11-1.22v-1.53l-2.11 1.22v1.53z" class="cls-31" />
          <path
            d="M285.47 182.39c-.79-.45-1.22-1.06-1.22-1.7s.43-1.25 1.22-1.7c1.62-.94 4.26-.94 5.89 0 1.62.94 1.62 2.46 0 3.4l2.67 1.54c2.63-1.52 3.02-3.85 1.16-5.61l2.11-1.22-2.67-1.54-2.11 1.22c-3.05-1.07-7.09-.85-9.72.67-1.5.87-2.33 2.02-2.32 3.24 0 1.22.83 2.37 2.32 3.24 1.62.94 1.62 2.46 0 3.4s-4.26.94-5.89 0c-1.62-.94-1.62-2.46 0-3.4l-2.67-1.54c-2.64 1.52-3.02 3.85-1.17 5.61l-1.94 1.12 2.67 1.54 1.94-1.12c3.05 1.07 7.09.85 9.72-.67 3.09-1.79 3.09-4.69 0-6.48Z"
            class="cls-35"
          />
          <path d="m271.13 190.65 2.67 1.55v-1.53l-2.67-1.54v1.52z" class="cls-34" />
          <path d="m273.8 192.2 1.95-1.13v-1.52l-1.95 1.12v1.53z" class="cls-31" />
          <path d="m291.36 183.92 2.67 1.54v-1.53l-2.67-1.54v1.53z" class="cls-34" />
          <path d="M276.92 185.46v-1.52c-1.15.67-1.48 1.63-1 2.46.2-.34.53-.66 1-.94Z" class="cls-31" />
          <path
            d="M271.93 185.56v1.72c.02.41.13.81.33 1.2l.81-.47c-.79-.75-1.16-1.6-1.14-2.44ZM282.8 185.46c.47.27.8.6 1 .94.48-.83.15-1.8-1-2.46-1.5-.86-2.33-2.02-2.32-3.24v1.52c0 1.22.83 2.37 2.32 3.24ZM287.79 185.63v-.03.03Z"
            class="cls-34"
          />
          <path d="M296.34 180.69c0 1.17-.76 2.35-2.31 3.24v1.52c1.59-.92 2.35-2.13 2.31-3.33s0-1.44 0-1.44Z" class="cls-31" />
          <path
            fill="url(#linear-gradient-17)"
            d="M285.47 188.87c-2.63 1.52-6.67 1.74-9.72.67v1.52c3.05 1.07 7.09.85 9.72-.67 1.54-.89 2.31-2.05 2.32-3.21v-1.55c0 1.17-.78 2.34-2.32 3.23Z"
          />
          <path
            d="M291.36 179c-1.62-.94-4.26-.94-5.89 0-.79.45-1.22 1.06-1.22 1.7 0 .26.08.52.22.76.2-.35.54-.67 1-.94 1.62-.94 4.26-.94 5.89 0 .47.27.8.59 1 .94.48-.84.15-1.8-1-2.46Z"
            class="cls-31"
          />
          <path
            fill="url(#linear-gradient-18)"
            d="M370.29 100.18c-5.45-3.15-10.39-3.44-13.96-1.37l-6.9 4.01c3.57-2.07 8.51-1.78 13.96 1.37 10.83 6.25 19.59 21.41 19.55 33.86-.02 6.18-2.2 10.54-5.72 12.58l6.9-4.01c3.52-2.04 5.71-6.4 5.73-12.58.03-12.45-8.72-27.61-19.56-33.86Z"
          />
          <path
            d="M363.39 104.2c-10.83-6.26-19.65-1.24-19.68 11.21-.04 12.45 8.72 27.62 19.55 33.87 10.84 6.26 19.65 1.23 19.68-11.22.03-12.45-8.72-27.61-19.55-33.86Z"
            class="cls-18"
          />
          <path
            d="M363.39 114.18c-1.33.77-2.56 1.3-4.47.2-1.74-1-4.47-2.58-4.47-2.58v10.5c0 6.52 5.6 15.69 8.94 18.93 3.34.61 8.94-2.09 8.94-8.61v-10.5s-2.62-1.51-4.47-2.58c-1.86-1.07-3.04-2.89-4.47-5.36Z"
            class="cls-36"
          />
          <path
            fill="url(#linear-gradient-19)"
            d="M102.47 291.39c-2.84-1.64-4.26-3.79-4.25-5.94v-4.9c0 2.15 1.42 4.3 4.26 5.94 5.64 3.26 14.75 3.26 20.36 0 2.78-1.62 4.18-3.74 4.18-5.86v4.9c-.02 2.12-1.41 4.24-4.2 5.85-5.6 3.26-14.72 3.26-20.36 0Z"
          />
          <path d="M102.48 286.5c-5.64-3.25-5.67-8.54-.07-11.79 5.6-3.26 14.72-3.26 20.36 0 5.64 3.26 5.67 8.54.07 11.79s-14.71 3.25-20.36 0Z" class="cls-18" />
          <path d="m120.01 279.93-10.65.54.33-2.39h-2.94l-.8 4.36 14.06-.81v-1.7z" class="cls-43" />
          <path
            fill="url(#linear-gradient-20)"
            d="M411.16 301.64c-2.87-2.91-6.46-5.08-10.26-6.4-6.34-2.2-13.25-2.06-18.33.89-2.64 1.54-4.47 3.65-5.47 6.06l-2.4 5.8c1-2.42 2.83-4.53 5.47-6.06 3.3-1.92 7.39-2.65 11.59-2.32 6.12.48 12.48 3.22 17.01 7.83 5.15 5.24 6.65 11.56 4.58 16.58l2.39-5.8c2.07-5.01.58-11.34-4.58-16.57Z"
          />
          <path d="M410.53 303.19c7.64 7.76 7.24 17.92-.89 22.64-8.13 4.72-20.95 2.25-28.59-5.5-7.64-7.77-7.24-17.92.89-22.64 8.13-4.72 20.95-2.25 28.6 5.51Z" class="cls-28" />
          <path
            fill="url(#linear-gradient-21)"
            d="M420.21 320.06c-.8 1.93-1.59 3.86-2.39 5.8-1.23 2.98-3.48 5.58-6.74 7.47-10.02 5.82-25.78 2.79-35.19-6.78-6.35-6.45-8.19-14.22-5.65-20.39.8-1.93 1.6-3.87 2.4-5.8-2.54 6.16-.7 13.94 5.65 20.39 9.41 9.56 25.17 12.6 35.19 6.77 3.26-1.9 5.52-4.5 6.74-7.47Z"
          />
          <path
            d="M414.56 299.67c9.41 9.56 8.93 22.04-1.1 27.86-10.02 5.82-25.78 2.79-35.19-6.77-9.42-9.57-8.92-22.04 1.1-27.86s25.77-2.79 35.19 6.77Zm-32.88 19.11c7.63 7.76 20.46 10.23 28.59 5.51 8.13-4.72 8.53-14.88.89-22.64s-20.47-10.23-28.6-5.51c-8.13 4.72-8.53 14.88-.89 22.64Z"
            class="cls-14"
          />
          <path
            d="m384.71 315.1 1.11-.65c-.98-1.55-1.2-3.2-.67-4.61l-.63 1.51c-.43 1.14-.37 2.45.19 3.74ZM394.43 312.54c.71.73 1.06 1.56 1.04 2.33.96-1 .84-2.61-.41-3.88-1.35-1.38-2.07-2.99-2-4.55.02-.57.15-1.11.37-1.61s-.6 1.47-.6 1.47c-.24.52-.38 1.08-.41 1.68-.06 1.56.65 3.18 2 4.55Z"
            class="cls-43"
          />
          <path d="M389.59 309.94c-.8.46-1.2 1.2-1.22 2 .16-.17.36-.33.58-.46l.64-1.54ZM406.87 306.06c.19.3.34.59.47.9l.91-.53.64-1.54-2.02 1.17Z" class="cls-41" />
          <path d="m403.1 310.56-.64 1.55 2.4 2.44.64-1.54-2.4-2.45z" class="cls-43" />
          <path d="m405.5 313.01-.64 1.54c.94-.54 1.6-1.29 1.96-2.15s0-.02.01-.03l.63-1.52c-.37.86-1.02 1.61-1.97 2.16Z" class="cls-41" />
          <path
            d="m408.89 304.88-2.02 1.17c1.63 2.58 1.16 5.48-1.37 6.95l-2.4-2.44c1.56-.9 1.63-2.85.17-4.33-1.46-1.49-3.92-1.96-5.47-1.06-.76.44-1.19 1.13-1.22 1.95-.03.82.34 1.67 1.05 2.39 2.79 2.83 2.64 6.54-.32 8.26-2.53 1.47-6.29 1.03-9.08-.88l-1.86 1.09-2.4-2.44 1.87-1.09c-1.63-2.58-1.16-5.48 1.37-6.95l2.4 2.44c-1.56.9-1.64 2.85-.17 4.34 1.46 1.49 3.91 1.96 5.48 1.05 1.55-.9 1.63-2.85.17-4.33-1.35-1.38-2.07-2.99-2-4.55.06-1.56.89-2.88 2.33-3.72 2.52-1.46 6.29-1.03 9.07.88l2.02-1.17 2.4 2.44Z"
            class="cls-14"
          />
          <path d="m383.95 315.54-.64 1.54 2.41 2.44.63-1.54-2.4-2.44z" class="cls-43" />
          <path d="m386.35 317.98-.63 1.54 1.86-1.08.64-1.55-1.87 1.09z" class="cls-41" />
          <path
            fill="url(#linear-gradient-22)"
            d="M398.89 316.3c-.11.17-.24.33-.38.48-.33.37-.73.71-1.22.99-2.53 1.47-6.29 1.03-9.08-.88l-.64 1.55c2.79 1.91 6.55 2.35 9.08.88.88-.51 1.51-1.2 1.88-1.99s.65-1.57.65-1.57c-.09.18-.19.37-.31.54Z"
          />
          <path
            d="M403.69 310.1c.95-1 .83-2.6-.42-3.87-1.46-1.49-3.92-1.96-5.47-1.06-.76.44-1.19 1.13-1.22 1.95v.05c.17-.17.36-.33.58-.46 1.55-.9 4.01-.43 5.47 1.06.69.7 1.03 1.5 1.04 2.24v.08Z"
            class="cls-41"
          />
          <path d="M186.56 344.27c-7.45-4.3-7.49-11.28-.09-15.58 7.4-4.3 19.44-4.3 26.89 0 7.45 4.3 7.49 11.27.09 15.58-7.4 4.3-19.44 4.3-26.89 0Z" class="cls-28" />
          <path d="m210.59 335.05-15.22.78.47-3.42h-4.21l-1.14 6.23 20.1-1.16v-2.43z" class="cls-14" />
          <path d="m220.05 183.65-33.45-19.31c-3.33-1.92-8.79-1.92-12.12 0l-28.91 16.69 45.57 26.31 28.91-16.69c3.33-1.92 3.33-5.07 0-7Z" class="cls-5" />
          <path fill="#d1d7f3" d="m145.57 190.35 45.57 26.31v-9.32l-45.57-26.31v9.32z" style="mix-blend-mode: multiply" />
          <path
            fill="#f55c59"
            d="M220.05 170.8c3.33 1.92 3.33 5.07 0 7l-72.73 41.99c-3.33 1.92-8.79 1.92-12.12 0l-33.45-19.31c-3.33-1.92-3.33-5.07 0-7l72.73-41.99c3.33-1.92 8.79-1.92 12.12 0l33.45 19.31Z"
          />
          <path
            d="m108.37 197.7 18.59-10.73 1.37.79-18.58 10.73-1.38-.79zM132.41 183.82 151 173.09l1.37.79-18.58 10.73-1.38-.79zM156.46 169.94l23.03-13.3 1.37.79-23.03 13.3-1.37-.79zM164.37 196.44l42.03-24.26 1.37.79-42.02 24.26-1.38-.79z"
            class="cls-14"
          />
          <path
            d="M208.74 177.26c-.75-.43-.75-1.13 0-1.57.75-.43 1.96-.43 2.72 0 .75.43.75 1.13 0 1.57-.75.43-1.97.43-2.72 0ZM202.15 181.16c-.75-.43-.75-1.13 0-1.57.75-.43 1.96-.43 2.71 0s.75 1.13 0 1.57-1.96.43-2.71 0ZM194.96 185.32c-.75-.43-.75-1.13 0-1.57.75-.43 1.96-.43 2.71 0s.75 1.13 0 1.57c-.75.43-1.96.43-2.71 0Z"
            class="cls-1"
          />
          <g style="mix-blend-mode: multiply">
            <path
              d="m160.26 179.75 1.39.8-5.71 3.3 3.55 2.05.19-.11c-.25-.51-.39-1.35 1.19-2.26 1.8-1.04 4.64-1.13 6.88.16 2.36 1.36 2.45 3.21.06 4.59s-5.49 1.45-7.74.15l-.34-.2 1.53-.89.25.14c1.56.9 3.39.88 4.88.02 1.53-.88 1.44-1.97-.16-2.89-1.44-.83-3.16-.85-4.42-.12-1.08.62-.97 1.25-.75 1.64l-2.11 1.22-5.94-3.43 7.26-4.19ZM165.6 176.42c2.49-1.44 5.63-1.43 8.49.23l2.5 1.44c2.91 1.68 2.88 3.47.39 4.9-2.49 1.44-5.6 1.46-8.51-.22l-2.5-1.44c-2.86-1.65-2.86-3.48-.38-4.91Zm4.5 5.51c1.86 1.07 3.82 1.25 5.51.27 1.71-.98 1.36-2.12-.47-3.18l-2.66-1.54c-1.84-1.07-3.89-1.2-5.5-.27-1.64.95-1.35 2.13.47 3.18l2.66 1.53ZM175.11 170.93c2.49-1.44 5.63-1.43 8.49.23l2.5 1.44c2.91 1.68 2.88 3.47.39 4.9-2.49 1.44-5.6 1.46-8.51-.22l-2.5-1.44c-2.86-1.65-2.86-3.48-.38-4.91Zm4.5 5.51c1.86 1.07 3.82 1.25 5.51.27 1.71-.98 1.36-2.12-.47-3.18l-2.66-1.53c-1.84-1.07-3.89-1.2-5.5-.27-1.64.95-1.35 2.13.47 3.18l2.66 1.54ZM196.7 167.71l.14.08c1.81 1.05 1.64 2.48-.03 3.7l1.64.95-1.41.81-1.63-.94c-2.5 1.17-5.27 1.15-7.62-.21l-.38-.22 1.55-.89.3.17c1.49.86 3.11.95 4.68.3l-3.77-2.18c-2.44.87-4.39 1.13-6.21.08l-.09-.05c-1.64-.95-1.41-2.38.22-3.54l-1.63-.94 1.41-.81 1.66.96c2.1-.9 4.58-.98 6.44.09l.58.33-1.55.89-.47-.27c-1.11-.64-2.36-.62-3.53-.2l3.41 1.97c2.49-.89 4.5-1.12 6.29-.09Zm-8.04.7-3.11-1.8c-.8.64-.89 1.35-.06 1.82.92.53 1.92.39 3.17-.03Zm6.6.27c-.89-.51-1.97-.42-3.32 0l3.41 1.97c.88-.74.75-1.48-.09-1.97Z"
              class="cls-12"
            />
          </g>
          <path
            fill="#c13d3d"
            d="m220.05 177.8-72.73 41.99c-3.33 1.92-8.79 1.92-12.12 0l-33.45-19.31c-1.52-.88-2.34-2.01-2.47-3.17v2.19c-.02.21-.02.41 0 .62v.02c.13 1.15.95 2.29 2.47 3.17l33.45 19.31c3.33 1.92 8.79 1.92 12.12 0l72.73-41.99c1.7-.98 2.52-2.27 2.49-3.56v-2.77c0 1.27-.83 2.54-2.5 3.5Z"
          />
          <path d="M272 343.21c-3.33-1.92-8.79-1.92-12.12 0l-33.45 19.31c-3.33 1.92-3.33 5.07 0 7l19.1 11.03 45.57-26.31-19.1-11.03Z" class="cls-5" />
          <path
            d="M311.28 401.69c-3.33 1.92-8.79 1.92-12.12 0l-72.73-41.99c-3.33-1.92-3.33-5.07 0-7l33.45-19.31c3.33-1.92 8.79-1.92 12.12 0l72.73 41.99c3.33 1.92 3.33 5.08 0 7l-33.45 19.31Z"
            class="cls-47"
          />
          <path
            d="m265.81 337.85 71.18 41.1-1.38.79-71.18-41.09 1.38-.8zM261.56 340.3l35.59 20.55-1.37.79-35.59-20.54 1.37-.8zM295.23 390.88c.75-.43 1.97-.43 2.71 0 .75.43.75 1.13 0 1.57-.75.43-1.96.43-2.71 0s-.75-1.14 0-1.57ZM288.04 386.73c.75-.43 1.96-.43 2.71 0s.75 1.13 0 1.57c-.75.43-1.96.43-2.71 0s-.75-1.13 0-1.57ZM280.85 382.58c.75-.43 1.96-.43 2.71 0s.75 1.14 0 1.57c-.75.43-1.97.43-2.71 0-.75-.43-.75-1.13 0-1.57Z"
            class="cls-14"
          />
          <path
            d="m288.19 362.79-10.96 6.31-1.55-.89 9.29-5.36-.19-.11-5.08.69-1.69-.97 7.79-1.05 2.39 1.38ZM294.23 366.02c2.49 1.44 2.47 3.25-.39 4.9l-2.5 1.44c-2.91 1.68-6.01 1.66-8.49.23-2.49-1.44-2.53-3.23.38-4.91l2.5-1.44c2.86-1.65 6.02-1.65 8.51-.22Zm-9.54 2.6c-1.86 1.07-2.16 2.2-.47 3.18 1.71.98 3.68.79 5.5-.27l2.66-1.54c1.84-1.06 2.08-2.25.47-3.18-1.64-.95-3.69-.78-5.5.27l-2.66 1.54ZM303.74 371.51c2.49 1.44 2.47 3.25-.39 4.9l-2.5 1.45c-2.91 1.68-6.01 1.66-8.49.23-2.49-1.44-2.53-3.23.38-4.91l2.5-1.45c2.86-1.65 6.02-1.65 8.51-.22Zm-9.54 2.6c-1.86 1.07-2.16 2.2-.47 3.18 1.71.99 3.67.79 5.5-.27l2.66-1.53c1.84-1.07 2.08-2.25.47-3.18-1.64-.95-3.69-.78-5.5.27l-2.66 1.53ZM313.24 377c2.49 1.44 2.47 3.25-.39 4.9l-2.5 1.44c-2.91 1.68-6.01 1.66-8.49.23-2.49-1.44-2.53-3.23.38-4.91l2.5-1.44c2.86-1.65 6.02-1.65 8.51-.22Zm-9.54 2.6c-1.86 1.07-2.16 2.2-.47 3.18 1.71.98 3.68.79 5.51-.27l2.66-1.54c1.85-1.06 2.08-2.25.47-3.18-1.64-.95-3.69-.78-5.51.27l-2.66 1.54ZM318.82 389.47l-.14.08c-1.81 1.05-4.3.95-6.41-.02l-1.64.95-1.41-.81 1.63-.94c-2.03-1.44-1.99-3.04.36-4.4l.38-.22 1.55.89-.3.17c-1.49.86-1.64 1.8-.52 2.7l3.77-2.18c-1.5-1.41-1.95-2.54-.14-3.59l.09-.05c1.64-.95 4.13-.81 6.13.13l1.63-.94 1.41.81-1.66.96c1.56 1.21 1.71 2.65-.16 3.72l-.58.33-1.55-.89.47-.27c1.11-.64 1.08-1.36.34-2.04l-3.41 1.97c1.55 1.44 1.94 2.6.16 3.63Zm-1.22-4.64 3.11-1.8c-1.11-.46-2.33-.52-3.16-.04-.92.53-.67 1.11.05 1.83Zm-.47 3.81c.89-.51.72-1.14 0-1.91l-3.41 1.97c1.28.51 2.57.43 3.41-.05Z"
            class="cls-35"
          />
          <path
            fill="#374c89"
            d="m226.42 359.69 72.73 41.99c3.33 1.92 8.79 1.92 12.12 0l33.45-19.31c1.52-.88 2.34-2.01 2.47-3.17v2.19c.02.21.02.41 0 .62v.02c-.13 1.15-.95 2.29-2.47 3.17l-33.45 19.31c-3.33 1.92-8.79 1.92-12.12 0l-72.73-41.99c-1.7-.98-2.52-2.27-2.49-3.56v-2.77c0 1.27.83 2.54 2.5 3.5Z"
          />
          <path
            fill="url(#linear-gradient-23)"
            d="M151.51 444.87c-4.22-2.44-6.33-5.63-6.32-8.83l.02-6.18c0 3.19 2.1 6.39 6.32 8.83 8.38 4.84 21.93 4.84 30.26 0 4.14-2.4 6.21-5.55 6.22-8.7l-.02 6.18c0 3.15-2.08 6.3-6.22 8.7-8.33 4.84-21.88 4.84-30.26 0Z"
          />
          <path d="M151.53 438.69c-8.38-4.84-8.43-12.69-.1-17.53 8.33-4.84 21.88-4.84 30.26 0 8.39 4.84 8.43 12.69.1 17.53-8.33 4.84-21.88 4.84-30.26 0Z" class="cls-14" />
          <path
            d="M168.19 431.73c2.53.5 5.44.17 7.46-.99 2.82-1.63 2.83-4.27 0-5.9-2.82-1.63-7.4-1.63-10.23 0-2.02 1.17-2.59 2.85-1.72 4.31-3.35-1.12-8.69-2.18-11.12.07l7.74 4.47s6.21 3.58 7.74 4.47c3.9-1.41 2.06-4.49.12-6.42Z"
            class="cls-36"
          />
          <path d="M168.63 81.99c-6.56 3.79-11.89.75-11.92-6.79-.02-7.54 5.28-16.72 11.84-20.5 6.56-3.79 11.89-.75 11.92 6.79.02 7.53-5.28 16.71-11.84 20.5Z" class="cls-18" />
          <path
            fill="url(#linear-gradient-24)"
            d="M156.71 75.21c-.02-7.54 5.28-16.72 11.84-20.5 3.18-1.84 6.07-2.06 8.21-.96l-4.01-2.31c-2.17-1.4-5.25-1.28-8.66.69-6.56 3.79-11.86 12.97-11.84 20.5.01 3.6 1.23 6.17 3.22 7.46l-.96-.44 5.37 3.1.05-.08c-1.99-1.29-3.21-3.86-3.22-7.46Z"
          />
          <path
            d="M170.42 67.99c1.33-1.52 2.25-3.62 2.25-5.44 0-2.55-1.79-3.59-4-2.31-2.21 1.28-4 4.38-4 6.93 0 1.82.92 2.86 2.25 2.85-2.07 1.83-4.88 5.03-4.3 7.56 1.2-.69 6.06-3.5 6.06-3.5s4.85-2.8 6.06-3.5c.57-3.19-2.24-3.15-4.3-2.59Z"
            class="cls-36"
          />
        </g>
      </g>
    </g>
  </svg>