<svg xmlns="http://www.w3.org/2000/svg" xmlns:xlink="http://www.w3.org/1999/xlink" id="Layer_2" data-name="Layer 2" viewBox="0 0 526 499">
    <defs>
      <linearGradient id="linear-gradient" x1="339.43" x2="327.21" y1="461.85" y2="461.85" gradientTransform="matrix(1 0 0 -1 0 744.01)" gradientUnits="userSpaceOnUse">
        <stop offset="0" stop-color="#b6bee0" />
        <stop offset="1" stop-color="#a5aed9" />
      </linearGradient>
      <linearGradient xlink:href="#linear-gradient" id="linear-gradient-2" x1="333.74" x2="330.93" y1="461.28" y2="461.28" />
      <linearGradient xlink:href="#linear-gradient" id="linear-gradient-3" x1="401.43" x2="389.22" y1="426.05" y2="426.05" />
      <linearGradient xlink:href="#linear-gradient" id="linear-gradient-4" x1="395.75" x2="392.93" y1="425.48" y2="425.48" />
      <linearGradient xlink:href="#linear-gradient" id="linear-gradient-5" x1="417.25" x2="405.04" y1="416.75" y2="416.75" />
      <linearGradient xlink:href="#linear-gradient" id="linear-gradient-6" x1="411.57" x2="408.75" y1="416.18" y2="416.18" />
      <linearGradient id="linear-gradient-7" x1="354.2" x2="342.83" y1="501.66" y2="516.98" gradientTransform="matrix(1 0 0 -1 0 744.01)" gradientUnits="userSpaceOnUse">
        <stop offset="0" stop-color="#dee4fd" />
        <stop offset="1" stop-color="#fff" />
      </linearGradient>
      <linearGradient xlink:href="#linear-gradient" id="linear-gradient-8" x1="340.06" x2="317.6" y1="485.85" y2="485.85" />
      <linearGradient xlink:href="#linear-gradient" id="linear-gradient-9" x1="340.06" x2="328.34" y1="499.15" y2="499.15" />
      <linearGradient id="linear-gradient-10" x1="373.5" x2="340.06" y1="495.66" y2="495.66" gradientTransform="matrix(1 0 0 -1 0 744.01)" gradientUnits="userSpaceOnUse">
        <stop offset="0" stop-color="#a5aed9" />
        <stop offset="1" stop-color="#5c5f9c" />
      </linearGradient>
      <linearGradient xlink:href="#linear-gradient" id="linear-gradient-11" x1="252.44" x2="239.07" y1="385.66" y2="385.66" />
      <linearGradient xlink:href="#linear-gradient" id="linear-gradient-12" x1="317.48" x2="304.11" y1="399.46" y2="399.46" />
      <linearGradient xlink:href="#linear-gradient-7" id="linear-gradient-13" x1="247.49" x2="245.68" y1="400.44" y2="402.88" />
      <linearGradient xlink:href="#linear-gradient-7" id="linear-gradient-14" x1="242.67" x2="241.02" y1="397.25" y2="399.47" />
      <linearGradient id="linear-gradient-15" x1="289.42" x2="272.94" y1="394.79" y2="418.67" gradientTransform="matrix(1 0 0 -1 0 744.01)" gradientUnits="userSpaceOnUse">
        <stop offset="0" stop-color="#f0d39c" />
        <stop offset="1" stop-color="#e4974f" />
      </linearGradient>
      <linearGradient xlink:href="#linear-gradient-7" id="linear-gradient-16" x1="291.49" x2="289.24" y1="384.81" y2="387.84" />
      <linearGradient xlink:href="#linear-gradient-7" id="linear-gradient-17" x1="274.82" x2="273.01" y1="384.67" y2="387.12" />
      <linearGradient id="linear-gradient-18" x1="284.29" x2="272.98" y1="415.72" y2="415.72" gradientTransform="matrix(1 0 0 -1 0 744.01)" gradientUnits="userSpaceOnUse">
        <stop offset="0" stop-color="#494a59" />
        <stop offset="1" stop-color="#34353f" />
      </linearGradient>
      <linearGradient xlink:href="#linear-gradient-18" id="linear-gradient-19" x1="282.46" x2="268.51" y1="411.05" y2="411.05" />
      <linearGradient xlink:href="#linear-gradient-18" id="linear-gradient-20" x1="267.95" x2="260.61" y1="401.65" y2="401.65" />
      <linearGradient xlink:href="#linear-gradient" id="linear-gradient-21" x1="276.87" x2="263.5" y1="371.75" y2="371.75" />
      <linearGradient xlink:href="#linear-gradient-18" id="linear-gradient-22" x1="256.77" x2="253.82" y1="372.18" y2="372.18" />
      <linearGradient xlink:href="#linear-gradient-7" id="linear-gradient-23" x1="256.41" x2="254.65" y1="375.77" y2="378.14" />
      <linearGradient xlink:href="#linear-gradient-18" id="linear-gradient-24" x1="244.88" x2="241.93" y1="379.03" y2="379.03" />
      <linearGradient xlink:href="#linear-gradient-7" id="linear-gradient-25" x1="244.52" x2="242.76" y1="382.63" y2="384.99" />
      <linearGradient xlink:href="#linear-gradient-7" id="linear-gradient-26" x1="270" x2="268.36" y1="381.49" y2="383.71" />
      <linearGradient xlink:href="#linear-gradient-18" id="linear-gradient-27" x1="303.08" x2="298.21" y1="418.73" y2="418.73" />
      <linearGradient xlink:href="#linear-gradient" id="linear-gradient-28" x1="85.91" x2="76.33" y1="447.67" y2="447.67" />
      <linearGradient xlink:href="#linear-gradient" id="linear-gradient-29" x1="82.91" x2="79.51" y1="447.54" y2="447.54" />
      <linearGradient xlink:href="#linear-gradient" id="linear-gradient-30" x1="137.1" x2="127.52" y1="475.38" y2="475.38" />
      <linearGradient xlink:href="#linear-gradient" id="linear-gradient-31" x1="134.1" x2="130.7" y1="475.25" y2="475.25" />
      <linearGradient xlink:href="#linear-gradient" id="linear-gradient-32" x1="98.91" x2="70.89" y1="465.4" y2="465.4" />
      <linearGradient xlink:href="#linear-gradient-7" id="linear-gradient-33" x1="82.94" x2="61.23" y1="458.39" y2="487.63" />
      <linearGradient xlink:href="#linear-gradient-7" id="linear-gradient-34" x1="67.74" x2="50.05" y1="446.79" y2="470.62" />
      <linearGradient xlink:href="#linear-gradient" id="linear-gradient-35" x1="61.27" x2="54.65" y1="452.21" y2="452.21" />
      <linearGradient xlink:href="#linear-gradient" id="linear-gradient-36" x1="53.69" x2="51.47" y1="455.32" y2="455.32" />
      <linearGradient xlink:href="#linear-gradient" id="linear-gradient-37" x1="64.47" x2="62.24" y1="449.1" y2="449.1" />
      <style>
        .cls-1 {
          fill: #d18242;
        }
        .cls-3 {
          fill: #cddaeb;
        }
        .cls-4 {
          fill: #272425;
        }
        .cls-5 {
          fill: #fff;
        }
        .cls-8 {
          fill: #52558b;
        }
        .cls-9 {
          fill: #27282f;
        }
        .cls-13 {
          fill: #525465;
        }
        .cls-14 {
          fill: #e59f59;
        }
        .cls-22 {
          fill: #4e4f60;
        }
        .cls-23 {
          fill: #474978;
        }
        .cls-26 {
          fill: #a4b5ea;
        }
        .cls-32 {
          fill: #71728c;
        }
        .cls-33 {
          fill: #34353f;
        }
        .cls-37 {
          fill: #bacaf4;
        }
        .cls-39 {
          fill: #edab70;
        }
        .cls-43 {
          fill: #393b46;
        }
        .cls-48 {
          fill: #d7ddf5;
        }
        .cls-49 {
          fill: #61abeb;
        }
        .cls-53 {
          fill: #494a59;
        }
        .cls-60 {
          fill: #616276;
        }
      </style>
    </defs>
    <g id="Layer_1-2" data-name="Layer 1">
      <path fill="none" d="M0 0h526v499H0z" />
      <path
        d="m375.33 271.68-33.45 19.3v-14.07l33.45-19.3v14.07ZM425.68 331.73l-33.87-19.56v-10.51l33.87 19.56v10.51ZM359.54 262.77l-33.43 19.3V268l33.43-19.3v14.07Z"
        class="cls-33"
      />
      <path d="m421.56 296.15-33.43 19.3v-14.07l33.43-19.3v14.07Z" class="cls-53" />
      <path fill="url(#linear-gradient)" d="M333.31 275.1c3.38 1.95 6.1 6.68 6.1 10.58s-2.74 5.47-6.1 3.52c-3.38-1.95-6.1-6.68-6.1-10.59s2.74-5.47 6.1-3.52Z" />
      <path d="M333.31 277.44c2.25 1.31 4.09 4.47 4.09 7.08s-1.83 3.66-4.09 2.35c-2.25-1.31-4.09-4.47-4.09-7.08s1.83-3.66 4.09-2.35Z" class="cls-22" />
      <path
        d="M330.56 279.03c0 2.6 1.83 5.78 4.09 7.08.78.46 1.53.62 2.15.52-.72.93-1.99 1.07-3.46.22-2.25-1.31-4.09-4.47-4.09-7.08 0-1.69.76-2.72 1.93-2.9-.4.52-.62 1.25-.62 2.15Z"
        class="cls-33"
      />
      <path fill="url(#linear-gradient-2)" d="M332.33 281.1c.78.44 1.41 1.55 1.41 2.43s-.62 1.27-1.41.81c-.78-.44-1.41-1.55-1.41-2.44.02-.91.64-1.27 1.41-.8Z" />
      <path
        d="m337.64 289.63.36-.24c.04-.04.08-.06.12-.1.06-.06.14-.12.2-.2.04-.04.08-.1.12-.14.06-.06.1-.12.14-.2.04-.06.1-.12.14-.18.14-.26.24-.46.34-.7.08-.22.12-.34.16-.46.06-.24.1-.38.12-.52.06-.36.1-.76.1-1.19 0-3.9-2.74-8.63-6.1-10.58-.52-.3-1.01-.5-1.49-.64-.22-.06-.36-.1-.48-.12-.36-.06-.58-.08-.83-.08-.14 0-.22.02-.3.02s-.16.02-.24.02c-.06.02-.12.02-.2.04a.99.99 0 0 0-.26.08.37.37 0 0 1-.14.04c-.14.06-.26.12-.38.18l4.91-2.84c1.11-.64 2.64-.54 4.33.42 3.38 1.95 6.1 6.68 6.1 10.59 0 1.95-.68 3.32-1.79 3.94l-4.93 2.88Z"
        class="cls-33"
      />
      <path
        d="M333.74 283.54c0-.9-.62-1.99-1.41-2.43-.4-.22-.74-.24-1.01-.08l.99-.58c.26-.14.6-.12.99.1.79.44 1.41 1.55 1.41 2.44 0 .44-.16.76-.4.91l-.99.56c.28-.14.42-.46.42-.91Z"
        class="cls-33"
      />
      <path d="M370.77 258.26 337.34 277l102.86 59.07 33.43-18.43-102.86-59.37Z" class="cls-22" />
      <path fill="url(#linear-gradient-3)" d="M395.32 310.91c3.38 1.95 6.1 6.68 6.1 10.59s-2.74 5.47-6.1 3.52c-3.38-1.95-6.1-6.68-6.1-10.59s2.74-5.47 6.1-3.52Z" />
      <path d="M395.32 313.24c2.25 1.31 4.09 4.47 4.09 7.08s-1.83 3.66-4.09 2.35c-2.25-1.31-4.09-4.47-4.09-7.08s1.83-3.66 4.09-2.35Z" class="cls-22" />
      <path
        d="M392.56 314.83c0 2.6 1.83 5.78 4.09 7.08.79.46 1.53.62 2.15.52-.72.93-1.99 1.07-3.46.22-2.25-1.31-4.09-4.47-4.09-7.08 0-1.69.76-2.72 1.93-2.88-.4.5-.62 1.23-.62 2.13Z"
        class="cls-33"
      />
      <path fill="url(#linear-gradient-4)" d="M394.35 316.9c.78.44 1.41 1.55 1.41 2.44s-.62 1.27-1.41.8c-.79-.44-1.41-1.55-1.41-2.43s.62-1.27 1.41-.81Z" />
      <path
        d="m399.64 325.43.36-.24c.04-.04.08-.06.12-.1.06-.06.14-.12.2-.2.04-.04.08-.1.12-.14.06-.06.1-.12.14-.2.04-.06.1-.12.14-.18.14-.26.24-.46.34-.7.08-.22.12-.34.16-.46.06-.24.1-.38.12-.52.06-.36.1-.76.1-1.19 0-3.9-2.74-8.63-6.1-10.59-.52-.3-1.01-.5-1.49-.64-.22-.06-.36-.1-.48-.12-.36-.06-.58-.08-.83-.08-.14 0-.22.02-.3.02s-.16.02-.24.02c-.06.02-.12.02-.2.04a.99.99 0 0 0-.26.08.37.37 0 0 1-.14.04c-.14.06-.26.12-.38.18l4.91-2.84c1.11-.64 2.64-.54 4.33.42 3.38 1.95 6.1 6.68 6.1 10.59 0 1.95-.68 3.32-1.79 3.94l-4.93 2.88Z"
        class="cls-33"
      />
      <path
        d="M395.74 319.34c0-.91-.62-1.99-1.41-2.44-.4-.22-.74-.24-1.01-.08l.99-.58c.26-.14.6-.12.99.1.78.44 1.41 1.55 1.41 2.43 0 .44-.16.76-.4.91l-.99.56c.28-.14.42-.46.42-.9Z"
        class="cls-33"
      />
      <path fill="url(#linear-gradient-5)" d="M411.15 320.2c3.38 1.95 6.1 6.68 6.1 10.59s-2.74 5.47-6.1 3.52c-3.38-1.95-6.1-6.68-6.1-10.59-.02-3.88 2.72-5.47 6.1-3.52Z" />
      <path d="M411.15 322.54c2.25 1.31 4.09 4.47 4.09 7.08s-1.83 3.66-4.09 2.35c-2.25-1.31-4.09-4.47-4.09-7.08-.02-2.6 1.81-3.66 4.09-2.35Z" class="cls-22" />
      <path
        d="M408.38 324.15c0 2.6 1.83 5.78 4.09 7.08.79.46 1.53.62 2.15.52-.72.93-1.99 1.07-3.46.22-2.25-1.31-4.09-4.47-4.09-7.08 0-1.69.76-2.72 1.93-2.88-.4.5-.62 1.21-.62 2.13Z"
        class="cls-33"
      />
      <path fill="url(#linear-gradient-6)" d="M410.17 326.2c.78.44 1.41 1.55 1.41 2.44s-.62 1.27-1.41.8c-.79-.44-1.41-1.55-1.41-2.43s.62-1.25 1.41-.81Z" />
      <path
        d="m415.46 334.73.36-.24c.04-.04.08-.06.12-.1.06-.06.14-.12.2-.2.04-.04.08-.1.12-.14.06-.06.1-.12.14-.2.04-.06.1-.12.14-.18.14-.26.24-.46.34-.7.08-.22.12-.34.16-.46.06-.24.1-.38.12-.52.06-.36.1-.76.1-1.19 0-3.9-2.74-8.63-6.1-10.59-.52-.3-1.01-.5-1.49-.64-.22-.06-.36-.1-.48-.12-.36-.06-.58-.08-.83-.08-.14 0-.22.02-.3.02s-.16.02-.24.02c-.06.02-.12.02-.2.04a.99.99 0 0 0-.26.08.37.37 0 0 1-.14.04c-.14.06-.26.12-.38.18l4.91-2.84c1.11-.64 2.64-.54 4.33.42 3.38 1.95 6.1 6.68 6.1 10.59 0 1.95-.68 3.32-1.79 3.94l-4.93 2.88Z"
        class="cls-33"
      />
      <path
        d="M411.58 328.63c0-.91-.62-1.99-1.41-2.44-.4-.22-.74-.24-1.01-.08l.99-.58c.26-.14.6-.12.99.1.78.44 1.41 1.55 1.41 2.43 0 .44-.16.76-.4.91l-.99.56c.26-.14.42-.46.42-.9ZM409.2 289.01l-33.43 19.32v-14.09l33.43-19.3v14.07Z"
        class="cls-33"
      />
      <path d="m474 326.42-33.45 19.3v-14.07L474 312.33v14.09Z" class="cls-60" />
      <path
        fill="url(#linear-gradient-7)"
        d="M323.74 240.39c.56-.24 1.29-.16 2.07.3l14.25 8.23 10.97-6.46 22.46-13.24-14.25-8.23c-.64-.36-1.25-.5-1.75-.38l-.28.08-.38.22-33.08 19.48Z"
      />
      <path fill="url(#linear-gradient-8)" d="M340.06 276.05v-27.13l-14.25-8.23c-1.29-.74-2.46-.5-2.92.6l-5.15 12.11c-.08.22-.14.46-.14.74v8.91l22.46 12.98Z" />
      <path d="M332.11 258.14v-7.53c0-.46-.32-1.03-.72-1.25l-7.69-4.43c-.3-.18-.56-.12-.66.14l-3.44 8.09c-.22.52.26 1.47.87 1.67l11.07 3.78c.34.12.58-.08.58-.48Z" class="cls-8" />
      <path fill="url(#linear-gradient-9)" d="m328.34 242.14 11.71 6.78v-8.13l-11.71 1.35Z" />
      <path
        d="M339.55 275.77 326.11 268l-6.02-3.48-2.5-1.45v14.07l8.53 4.93v-5.73c0-4.17 2.88-5.98 6.48-3.92 4.55 2.62 8.15 8.88 8.15 14.03 0 .44.04 3.9.04 3.9l1.11.64v-11.17c0-1.49-1.05-3.3-2.35-4.05ZM375.78 308.33l-33.87-19.56v-10.51l33.87 19.54v10.52ZM384.01 302.55v10.51l4.15 2.39v-3.88c0-2.92 2.05-4.11 4.59-2.66l21.85 12.62c2.54 1.47 4.59 5.03 4.59 7.95v3.88l21.37 12.34v-10.51l-56.55-32.64Z"
        class="cls-53"
      />
      <path d="m478.85 281.85-33.45 18.43v37.73l33.45-18.74v-37.43Z" class="cls-39" />
      <path fill="url(#linear-gradient-10)" d="M340.06 240.79v34.84l33.45-19.3v-35.26l-33.45 19.72Z" />
      <path d="m376 222.46-33.45 18.74 102.85 59.09 33.45-18.43L376 222.47Z" class="cls-14" />
      <path d="m373.5 221.07-33.45 19.72-11.71 1.35 33.43-19.7 11.73-1.37Z" class="cls-5" />
      <path d="m445.41 338.01-102.85-59.39v-37.73l102.85 59.39v37.73Z" class="cls-1" />
      <path d="m241.31 348.84 4.87-2.8 4.85 4.23v4.47l7.06-4.09v-4.49l-7.35-4.85-5.98 3.46-3.46 3.16v.91Z" class="cls-43" />
      <path d="m278.48 370.51-27.39-15.76v-7.61l27.39 15.76v7.61Z" class="cls-4" />
      <path d="m267.75 373.97-24.89-14.37v-13.1l24.89 14.39v13.08Z" class="cls-33" />
      <path d="m318.4 340.04-27.43-15.8v-7.59l27.43 15.78v7.61Z" class="cls-4" />
      <path d="m250.28 350.07-3.86-2.23c-1.21-.7-2.88-.6-4.73.46-3.68 2.13-6.68 7.3-6.68 11.57 0 2.13.74 3.62 1.95 4.33l3.86 2.23 9.46-16.36Z" class="cls-33" />
      <path fill="url(#linear-gradient-11)" d="M245.75 366.06c-3.68 2.13-6.68.4-6.68-3.86s3-9.44 6.68-11.57c3.68-2.13 6.68-.4 6.68 3.86s-2.98 9.44-6.68 11.57Z" />
      <path d="M245.75 362.34c-1.91 1.11-3.46.2-3.46-1.99s1.55-4.89 3.46-5.98c1.91-1.11 3.46-.2 3.46 1.99s-1.55 4.87-3.46 5.98Z" class="cls-3" />
      <path d="M245.75 361.58c-1.55.89-2.8.16-2.8-1.61s1.25-3.94 2.8-4.83c1.55-.89 2.8-.16 2.8 1.61s-1.25 3.94-2.8 4.83Z" class="cls-22" />
      <path fill="#df922f" d="M246.22 360.01c-.66.38-1.21.08-1.21-.68s.54-1.69 1.21-2.07c.66-.38 1.21-.08 1.21.68s-.54 1.69-1.21 2.07Z" />
      <path
        d="M245.03 359.32c0-.76.54-1.69 1.21-2.07.32-.18.62-.2.85-.08l-.42-.24c-.22-.14-.52-.14-.89.06-.66.38-1.21 1.31-1.21 2.07 0 .4.14.66.38.78l.42.24c-.22-.14-.34-.4-.34-.76ZM315.32 336.26l-3.86-2.23c-1.21-.7-2.88-.6-4.73.46-3.68 2.13-6.68 7.31-6.68 11.57 0 2.13.74 3.62 1.95 4.33l3.86 2.23 9.46-16.36Z"
        class="cls-33"
      />
      <path fill="url(#linear-gradient-12)" d="M310.79 352.26c-3.68 2.13-6.68.4-6.68-3.86s3-9.44 6.68-11.57c3.68-2.13 6.68-.4 6.68 3.86s-2.98 9.46-6.68 11.57Z" />
      <path d="M310.8 348.54c-1.91 1.11-3.46.2-3.46-1.99s1.55-4.89 3.46-5.98c1.91-1.11 3.46-.2 3.46 1.99s-1.55 4.87-3.46 5.98Z" class="cls-22" />
      <path d="M310.79 347.77c-1.55.89-2.8.16-2.8-1.61s1.25-3.94 2.8-4.83c1.55-.89 2.8-.16 2.8 1.61s-1.25 3.94-2.8 4.83Z" class="cls-22" />
      <path
        d="M310.07 345.52c0-.76.54-1.69 1.21-2.07.32-.18.62-.2.85-.08l-.42-.24c-.22-.14-.52-.14-.89.06-.66.38-1.21 1.31-1.21 2.07 0 .4.14.66.38.78l.42.24c-.22-.14-.34-.4-.34-.76Z"
        class="cls-22"
      />
      <path d="M241.31 347.93v.91l-2.35-1.37-.02-.91 2.37 1.37Z" class="cls-53" />
      <path fill="url(#linear-gradient-13)" d="m250.76 341.33-5.98 3.42-2.35-1.35 5.96-3.46 2.37 1.39Z" />
      <path fill="url(#linear-gradient-14)" d="m244.79 344.75-3.48 3.18-2.37-1.37 3.48-3.18 2.37 1.37Z" />
      <path d="m264.49 340.59 9.78-5.63 9.78 5.63-9.78 5.64-9.78-5.64Zm9.76-5.17-8.95 5.17 8.95 5.17 8.96-5.17-8.96-5.17Z" class="cls-49" />
      <path fill="url(#linear-gradient-15)" d="m318.44 331.05-48.8 28.17-19.56-11.29-5.29-3.18 48.7-28.11 24.95 14.41Z" />
      <path
        d="M283.41 335.56c-.46-.26-.72-.64-.72-1.05s.26-.76.72-1.05c.87-.5 2.33-.5 3.2 0 .46.26.72.64.72 1.05s-.26.76-.72 1.05c-.42.24-1.01.38-1.61.38s-1.17-.14-1.59-.38Zm.2-1.73c-.34.2-.52.44-.52.68s.18.5.52.68c.74.42 2.05.42 2.8 0 .34-.2.52-.44.52-.68 0-.26-.18-.5-.52-.68-.36-.22-.87-.32-1.41-.32-.52-.02-1.03.1-1.39.32Z"
        class="cls-49"
      />
      <path
        d="m268.29 306.96-9.18 5.29c-1.65.97-3.14 3.02-3.66 5.15l-6.86 27.25 21.05-12.15s-1.33-25.54-1.35-25.54Zm-16.52 31.17 5.29-21.03c.3-1.19 1.13-2.33 2.05-2.88l7.59-4.39.99 19.08-15.92 9.22Z"
        class="cls-22"
      />
      <path
        d="m273.65 356.89 3.2 7.16 4.89-2.84 1.61 2.07 19.82-11.45.34-.62c-.22-.68-.32-1.47-.32-2.35 0-4.85 3.4-10.75 7.61-13.16 4.19-2.42 7.59-.46 7.61 4.37l.04-.02v-8.98l-44.8 25.82Z"
        class="cls-1"
      />
      <path d="m270.67 337.21 3.54-2.05v-5.11l-3.54 2.05v5.11Z" class="cls-22" />
      <path d="m268.51 333.32 6.14-3.52 1.27-7.97-1.11.62-1.83 6.26-4.47 3.08v1.53Z" class="cls-3" />
      <path d="m297.55 359.4-12.13 7.02v-4.49l12.13-7.02v4.49Z" class="cls-60" />
      <path d="m288.28 340.57.16 3.12 24.75-14.29v-3.22l-24.91 14.39Z" class="cls-1" />
      <path d="m288.28 340.57-.16-2.92 23.3-13.44 1.77 1.97-24.91 14.39Z" class="cls-14" />
      <path fill="url(#linear-gradient-16)" d="m297.55 354.92-12.18 7.06-2.17-1.49 11.97-6.94 2.37 1.37Z" />
      <path d="m288.44 343.73-.32-6.06-16.84-9.74.32 6.04 16.84 9.76Z" class="cls-43" />
      <path fill="url(#linear-gradient-17)" d="m278.09 357.09-5.98 3.42-2.35-1.35 5.96-3.46 2.37 1.39Z" />
      <path d="m294.57 314.45 16.84 9.76-23.3 13.44-16.84-9.74 23.3-13.46Z" class="cls-39" />
      <path d="m275.92 321.83 9.48 5.39-1.11.62-9.48-5.39 1.11-.62Z" class="cls-32" />
      <path fill="url(#linear-gradient-18)" d="m274.81 322.46-1.83 6.26 9.48 5.39 1.83-6.26-9.48-5.39Z" />
      <path fill="#222228" d="m270.67 332.3 9.48 4.69v5.62l-9.48-5.19v-5.11Z" />
      <path fill="url(#linear-gradient-19)" d="m272.98 328.71 9.48 5.39-4.47 3.08-9.48-5.39 4.47-3.08Z" />
      <path d="M268.51 331.79v1.53l9.48 5.39v-1.53l-9.48-5.39Z" class="cls-32" />
      <path
        d="m288.9 318.99-9.2 5.31c-1.65.97-3.12 3.02-3.66 5.15l-6.86 27.25 21.05-12.15-1.33-25.56Zm-16.54 31.17 5.29-21.01c.3-1.19 1.13-2.33 2.05-2.88l7.59-4.39.99 19.08-15.92 9.2Z"
        class="cls-22"
      />
      <path d="m288.28 340.99-.62-.38-.95-18.37.58-.34.99 19.1Z" class="cls-9" />
      <path d="m288.28 340.99-15.92 9.18.22-.87 15.07-8.69.62.38Z" class="cls-13" />
      <path d="m268.31 329.32-.62-.38-.95-18.35.58-.34.99 19.08Z" class="cls-9" />
      <path d="m268.31 329.32-15.92 9.2-.62-.38 15.92-9.2.62.38Z" class="cls-13" />
      <path d="m272.86 336.22-4.91 2.84-2.46 9.5 4.91-2.84 2.46-9.5Z" class="cls-22" />
      <path fill="url(#linear-gradient-20)" d="m263.06 336.16 4.89 2.9-2.46 9.5-4.89-2.88 2.46-9.52Z" />
      <path d="m263.06 336.16 4.91-2.84 4.89 2.9-4.91 2.84-4.89-2.9Z" class="cls-32" />
      <path
        d="m268.29 306.96-9.18 5.29c-1.65.97-3.14 3.02-3.66 5.15l-6.86 27.25 20.57 12.03 6.86-27.25c.54-2.11 2.01-4.19 3.66-5.13l9.2-5.31s-20.57-12.03-20.59-12.03Zm10.75 16.22c-1.97 1.13-3.64 3.48-4.29 5.96l-4.79 19.68-18.21-10.67 4.97-20.43c.44-1.77 1.69-3.54 3.04-4.33l8.53-4.93 17.97 10.52-7.22 4.19Z"
        class="cls-33"
      />
      <path d="m242.86 346.5 24.95 14.39 1.93-1.75-24.95-14.39-1.93 1.75Z" class="cls-53" />
      <path d="m261.85 373.91-2.86 1.65v-46.73l2.84-1.63.02 46.71Z" class="cls-22" />
      <path d="m274.71 363.95-3.86-2.23c-1.21-.7-2.88-.6-4.73.46-3.68 2.13-6.68 7.31-6.68 11.57 0 2.13.74 3.62 1.95 4.33l3.86 2.23 9.46-16.36Z" class="cls-33" />
      <path fill="url(#linear-gradient-21)" d="M270.18 379.97c-3.68 2.13-6.68.4-6.68-3.86s3-9.44 6.68-11.57 6.68-.4 6.68 3.86-3 9.44-6.68 11.57Z" />
      <path d="M270.18 376.25c-1.91 1.11-3.46.2-3.46-1.99s1.55-4.89 3.46-5.98c1.91-1.11 3.46-.2 3.46 1.99-.02 2.19-1.57 4.87-3.46 5.98Z" class="cls-22" />
      <path d="M270.18 375.48c-1.55.89-2.8.16-2.8-1.61s1.25-3.94 2.8-4.83c1.55-.89 2.8-.16 2.8 1.61-.02 1.77-1.27 3.92-2.8 4.83Z" class="cls-22" />
      <path
        d="M269.44 373.21c0-.76.54-1.69 1.21-2.07.32-.18.62-.2.85-.08l-.42-.24c-.22-.14-.52-.14-.89.06-.66.38-1.21 1.31-1.21 2.07 0 .4.14.66.38.78l.42.24c-.22-.12-.34-.38-.34-.76Z"
        class="cls-22"
      />
      <path d="m259 375.56-1.43-.83v-46.71l1.43.83v46.71Z" class="cls-33" />
      <path d="m248.81 366.39-2.84 1.65-.02-46.73 2.86-1.63v46.71Z" class="cls-22" />
      <path d="m244.55 320.48 2.84-1.65 14.45 8.37-2.84 1.65-14.45-8.37Z" class="cls-32" />
      <path d="m245.95 368.04-1.41-.83V320.5l1.41.8v46.73Z" class="cls-33" />
      <path d="M244.55 322.13v-1.65l14.45 8.35v1.65l-14.45-8.35Z" class="cls-33" />
      <path d="M261.13 377.82v-1.03l-21.67-12.52v-3.92l-.89-.5v4.95l22.56 13.02Z" class="cls-4" />
      <path
        d="m259.66 355.68-19.6-11.31c-1.49-.87-2.72-.16-2.72 1.57v19.58l25.03 14.45v-19.58c0-1.73-1.23-3.84-2.72-4.71Zm1.47 3.98v3.24l-5.07-2.94v-4.93l3.6 2.07c.81.48 1.47 1.63 1.47 2.56Zm-11.03-3.12v-4.93l5.45 3.14v4.93l-5.45-3.14Zm-.5-.3-5.45-3.14v-4.93l5.45 3.14v4.93Zm11.53 9.54v4.23l-22.56-13.02v-4.23l22.56 13.02Zm-21.09-19.98 3.6 2.07v4.93l-5.07-2.94v-3.24c0-.91.66-1.29 1.47-.83Zm-1.47 19v-4.93l22.56 13.02v4.93l-22.56-13.02Z"
        class="cls-33"
      />
      <path fill="url(#linear-gradient-22)" d="M253.82 366.35v9.26l2.96 1.69v-9.24l-2.96-1.71Z" />
      <path fill="url(#linear-gradient-23)" d="m253.82 366.37.5-.3 2.94 1.71-.48.28-2.96-1.69Z" />
      <path d="m257.26 377.01-.48.28v-9.24l.48-.28v9.24Z" class="cls-22" />
      <path d="M234.24 388.08c-.85-.48-.85-1.25-.02-1.71l19.6-11.33 2.96 1.71-19.6 11.33c-.83.46-2.13.46-2.94 0Z" class="cls-32" />
      <path d="M237.16 388.08c-.8.46-2.11.46-2.92 0-.46-.26-.66-.6-.62-.93-.04.1 0 .64 0 .66.02.28.22.56.6.79.85.48 2.15.48 2.96.02l19.6-11.33v-.54l-19.62 11.33Z" class="cls-22" />
      <path fill="url(#linear-gradient-24)" d="M241.93 359.5v9.24l2.96 1.71v-9.26l-2.96-1.69Z" />
      <path fill="url(#linear-gradient-25)" d="m241.93 359.5.5-.28 2.94 1.69-.48.3-2.96-1.71Z" />
      <path d="m245.37 370.15-.48.3v-9.24l.48-.3v9.24Z" class="cls-22" />
      <path d="M222.35 381.24c-.85-.48-.85-1.25-.02-1.71l19.6-11.33 2.96 1.71-19.6 11.33c-.83.46-2.13.46-2.94 0Z" class="cls-32" />
      <path
        d="M225.27 381.24c-.81.46-2.11.46-2.92 0-.46-.26-.66-.6-.62-.93-.04.1 0 .64 0 .66.02.28.22.56.6.78.85.48 2.15.48 2.96.02l19.6-11.33v-.54l-19.62 11.33Z"
        class="cls-22"
      />
      <path
        d="M250.1 355.52v1.03l5.45 3.14v-1.01l-4.59-2.66v-3.92l-.87-.5v3.92ZM243.66 352.82v-1.01l-4.21-2.44v-3.24c0-.2.04-.38.08-.52a.753.753 0 0 0-.68.2c-.04.04-.08.1-.12.14-.04.08-.06.12-.08.18-.02.08-.04.14-.06.22v.04c0 .08-.02.14-.02.22v3.24l5.09 2.96ZM244.14 352.1v1.01l5.45 3.14v-1.01l-4.57-2.64v-3.92l-.89-.5v3.92Z"
        class="cls-4"
      />
      <path
        d="m260.53 355.18-19.6-11.31c-.7-.4-1.35-.46-1.83-.22-.18.08-.95.5-1.05.6.18-.12.36-.18.58-.22.08-.02.14-.02.22-.02s.16 0 .24.02c.22.04.4.08.6.18.02 0 .02.02.04.02.1.04.22.1.32.16l19.6 11.31c1.49.87 2.72 2.98 2.72 4.71v19.58l.87-.5v-19.58c0-1.77-1.23-3.86-2.72-4.73Z"
        class="cls-32"
      />
      <path d="M256.04 358.96v1.01l5.09 2.94v-1.01l-4.21-2.44v-3.92l-.89-.5v3.92ZM261.13 369.99v-1.01l-21.67-12.52v-3.2l-.89-.5v4.23l22.56 13Z" class="cls-4" />
      <path d="m268.63 364.6 4.87-2.78 4.85 4.23v4.45l7.06-4.07v-4.49l-7.37-4.85-5.98 3.46-3.44 3.14v.91Z" class="cls-60" />
      <path d="M268.63 363.71v.89l-2.35-1.35-.02-.91 2.37 1.37Z" class="cls-53" />
      <path fill="url(#linear-gradient-26)" d="m272.12 360.51-3.48 3.2-2.37-1.39 3.48-3.18 2.37 1.37Z" />
      <path d="m304.21 327.19-3.18 1.83 2.05-5.78 2.25-1.31-1.13 5.25Z" class="cls-22" />
      <path d="m302.54 320.22 2.8 1.71-2.25 1.31-2.82-1.71 2.27-1.31Z" class="cls-32" />
      <path fill="url(#linear-gradient-27)" d="m298.22 327.31 2.82 1.71 2.05-5.78-2.82-1.71-2.05 5.78Z" />
      <path d="m280.15 342.6 3.54-2.05v-5.11l-3.54 2.05v5.11Z" class="cls-22" />
      <path d="m277.99 338.72 6.12-3.52 1.29-7.97-1.11.62-1.83 6.26-4.47 3.08v1.53Z" class="cls-22" />
      <path fill="#a97e54" d="m253.88 382.95-11.19 6.48V364.4l11.19-6.48v25.03Z" />
      <path fill="#efc9a9" d="m220.78 351.74 11.19-6.46 21.92 12.64-11.19 6.48-21.92-12.66Z" />
      <path fill="#d7a577" d="m242.67 389.43-21.9-12.66v-25.03l21.9 12.66v25.03Z" />
      <path d="m176.85 241.26 134.47-77.64-46.83-50.83-134.47 77.68 46.83 50.79Z" class="cls-48" />
      <path fill="#96a5e2" d="m130.02 190.47 134.47-77.68-46.83-3.22-134.47 77.64 46.83 3.26Z" />
      <path d="M311.32 163.71v71.98l-129.24 70.15-5.15 2.96v-67.52l134.39-77.58Z" class="cls-37" />
      <path d="m83.25 254.65 93.68 54.11-.04-67.5-46.81-50.79-46.83-3.26v67.44Z" class="cls-26" />
      <path d="M89.53 194.31v64.34l12.18 6.98 10.61 6.08 58.34 33.43-.02-61.04-15.52-9.52-12.44-7.63c-.06-.02-24.91-15.29-24.91-15.29l-28.23-17.35Z" class="cls-8" />
      <path d="m242.27 139.23 9.74 5.63 9.74-5.63-9.74-5.63-9.74 5.63Z" class="cls-5" />
      <path d="m259.02 139.23-7-4.04-6.98 4.04 6.98 4.04 7-4.04Z" class="cls-8" />
      <path d="m252.01 163.83 9.74-5.63v-18.96l-9.74 5.63v18.96Z" class="cls-48" />
      <path
        d="m242.27 153.22 9.74 10.61v-18.96l-9.74-5.63v13.99ZM267.37 208.08l34.35-19.82v13.54l-34.35 19.82v-13.54Zm-38.86 35.98 34.35-19.82V210.7l-34.35 19.82v13.54Z"
        class="cls-8"
      />
      <path
        d="m86.11 294.61-30.97-17.89v-8.77l30.97 17.87v8.79ZM98.89 288.09l-30.95-17.87v-8.79l30.95 17.87v8.79ZM109.27 278.61 78.3 260.74v-8.79l30.97 17.89v8.77ZM122.61 274.13l-30.97-17.89v-8.77l30.97 17.87v8.79ZM137.42 265.57l-30.97-17.87v-8.79l30.97 17.87v8.79Z"
        class="cls-33"
      />
      <path fill="url(#linear-gradient-28)" d="M81.12 301.86c-2.64 1.53-4.79.28-4.79-2.76s2.13-6.76 4.79-8.29c2.64-1.53 4.79-.28 4.79 2.76s-2.13 6.76-4.79 8.29Z" />
      <path d="M81.12 299.77c-1.65.95-2.98.18-2.98-1.73s1.33-4.23 2.98-5.17c1.65-.95 2.98-.18 2.98 1.73.02 1.91-1.33 4.23-2.98 5.17Z" class="cls-22" />
      <path
        d="M83.47 294.23c0 1.91-1.33 4.23-2.98 5.17-.66.38-1.27.48-1.77.34.54.54 1.41.6 2.39.02 1.65-.95 2.98-3.26 2.98-5.17 0-1.15-.48-1.87-1.23-2.07.38.36.6.95.6 1.71Z"
        class="cls-33"
      />
      <path d="M81.76 298.56c-.89.52-1.61.1-1.61-.93s.72-2.29 1.61-2.8c.89-.52 1.61-.1 1.61.93.02 1.03-.7 2.29-1.61 2.8Z" class="cls-53" />
      <path
        d="M77.66 302.14a2.02 2.02 0 0 1-.32-.26l-.06-.06c-.08-.08-.14-.16-.22-.24-.02-.04-.06-.06-.08-.1-.04-.06-.08-.1-.1-.16a.81.81 0 0 1-.1-.18c-.04-.06-.06-.14-.1-.2-.02-.06-.06-.14-.08-.2a.37.37 0 0 1-.04-.14c-.14-.44-.2-.93-.2-1.47 0-3.06 2.13-6.76 4.79-8.29.48-.28.93-.46 1.37-.56.06-.02.1-.02.16-.04.08-.02.14-.02.22-.04.08 0 .16-.02.22-.02h.22c.06 0 .12 0 .18.02.04 0 .08 0 .12.02.1.02.22.04.32.06.04 0 .06.02.1.02.14.04.26.1.38.16l-3.1-1.79c-.87-.52-2.07-.46-3.42.3-2.64 1.53-4.79 5.23-4.79 8.29 0 1.53.54 2.6 1.41 3.1l3.12 1.79Z"
        class="cls-33"
      />
      <path
        fill="url(#linear-gradient-29)"
        d="M80.15 297.63c0-1.03.72-2.29 1.61-2.8.44-.26.85-.28 1.15-.12l-.64-.36c-.3-.16-.7-.14-1.15.12-.89.52-1.61 1.77-1.61 2.8 0 .52.18.89.48 1.05l.64.36c-.3-.18-.48-.54-.48-1.05Z"
      />
      <path fill="url(#linear-gradient-30)" d="M132.31 274.15c-2.64 1.53-4.79.28-4.79-2.76s2.13-6.76 4.79-8.29c2.64-1.53 4.79-.28 4.79 2.76s-2.13 6.76-4.79 8.29Z" />
      <path d="M132.31 272.05c-1.65.95-2.98.18-2.98-1.73s1.33-4.23 2.98-5.17c1.65-.95 2.98-.18 2.98 1.73s-1.33 4.23-2.98 5.17Z" class="cls-22" />
      <path
        d="M134.65 266.52c0 1.91-1.33 4.23-2.98 5.17-.66.38-1.27.48-1.77.34.54.54 1.41.6 2.4.02 1.65-.95 2.98-3.26 2.98-5.17 0-1.15-.48-1.87-1.23-2.07.4.36.6.95.6 1.71Z"
        class="cls-33"
      />
      <path d="M132.96 270.85c-.89.52-1.61.1-1.61-.93s.72-2.29 1.61-2.8c.89-.52 1.61-.1 1.61.93.02 1.03-.7 2.29-1.61 2.8Z" class="cls-53" />
      <path
        d="M128.85 274.43a2.02 2.02 0 0 1-.32-.26l-.06-.06c-.08-.08-.14-.16-.22-.24-.02-.04-.06-.06-.08-.1-.04-.06-.08-.1-.1-.16a.81.81 0 0 1-.1-.18c-.04-.06-.06-.14-.1-.2-.02-.06-.06-.14-.08-.2a.37.37 0 0 1-.04-.14c-.14-.44-.2-.93-.2-1.47 0-3.06 2.13-6.76 4.79-8.29.48-.28.93-.46 1.37-.56.06-.02.1-.02.16-.04.08-.02.14-.02.22-.04.08 0 .16-.02.22-.02h.22c.06 0 .12 0 .18.02.04 0 .08 0 .12.02.1.02.22.04.32.06.04 0 .06.02.1.02.14.04.26.1.38.16l-3.1-1.79c-.87-.52-2.07-.46-3.42.3-2.64 1.53-4.79 5.23-4.79 8.29 0 1.53.54 2.6 1.41 3.1l3.12 1.79Z"
        class="cls-33"
      />
      <path
        fill="url(#linear-gradient-31)"
        d="M131.35 269.92c0-1.03.72-2.29 1.61-2.8.44-.26.85-.28 1.15-.12l-.64-.36c-.3-.16-.7-.14-1.15.12-.89.52-1.61 1.77-1.61 2.8 0 .52.18.89.48 1.05l.64.36c-.3-.18-.48-.54-.48-1.05Z"
      />
      <path d="M130.08 235.23 47.15 283l23.75 13.83 82.93-47.9-23.75-13.71Z" class="cls-33" />
      <path d="m76.03 235.77 13.5 7.79 12.18 7.02 40.97-23.65c-.06-.02-24.91-15.29-24.91-15.29l-28.23 16.3-13.5 7.83Z" class="cls-14" />
      <path d="M101.7 277.89v-27.27l-25.68-14.81v27.25l25.68 14.83Z" class="cls-1" />
      <path d="M101.7 250.54v27.31l10.61-6.12 42.8-24.71V234.6l-12.44-7.63c-.06-.06-40.97 23.57-40.97 23.57Z" class="cls-39" />
      <path d="m155.11 249.35-53.41 30.83v-2.35L155.11 247v2.35ZM98.89 287.25l-12.78 7.37v-6.72l12.78-7.34v6.7Z" class="cls-53" />
      <path
        d="m107.94 282.86-9.06 5.23v-7.45l9.06-5.23v7.45ZM122.61 268.11v6l4.61-2.66c.12-3.2 2.35-7 5.09-8.57 2.74-1.59 4.97-.36 5.09 2.7l4.61-2.66v-6l-19.4 11.19Z"
        class="cls-53"
      />
      <path d="m154.03 252.8-44.76 25.86v-2.84l44.76-25.84v2.82Z" class="cls-53" />
      <path
        fill="url(#linear-gradient-32)"
        d="M98.89 261.97c0-1.27-.91-1.77-1.99-1.11l-8.75 5.27c-.54.32-1.03.99-1.25 1.69l-3.34 10.49-12.66 9.62v8.71l5.27-3.02c1.11-2.44 2.92-4.65 4.97-5.82 2.05-1.19 3.86-1.07 4.97.08l12.8-7.39-.02-18.53Z"
      />
      <path
        fill="url(#linear-gradient-33)"
        d="M70.89 296.67v-8.71l12.66-9.62 3.34-10.49c.22-.7.7-1.35 1.25-1.69l8.75-5.27c.54-.32 1.05-.36 1.41-.18-.87-.5-23.87-13.72-23.95-13.74-.34-.1-.76-.02-1.21.26l-8.75 5.27c-.54.32-1.03.99-1.25 1.69l-3.34 10.49-12.66 9.62v8.71l23.75 13.83c.02-.06.08-.14.14-.24l-.14.08Z"
      />
      <path
        d="m96.17 271.35-4.91 2.82v-7.71l4.91-2.82v7.71ZM86.67 277.89l4.07-2.35v-8.87l-1.19.68-2.88 10.54ZM60.49 265.05l3.4-10.71 22.3 13.26-3.28 10.28-22.42-12.84Z"
        class="cls-23"
      />
      <path fill="url(#linear-gradient-34)" d="m47.15 274.29 23.75 13.66v8.75L47.15 283v-8.71Z" />
      <path d="m70.89 301.78-23.75-13.71V283l23.75 13.71v5.07Z" class="cls-60" />
      <path fill="url(#linear-gradient-35)" d="m61.27 294.81-6.62-3.82v-2.21l6.62 3.82v2.21Z" />
      <path fill="url(#linear-gradient-36)" d="m53.69 290.45-2.21-1.29v-2.23l2.21 1.29v2.23Z" />
      <path fill="url(#linear-gradient-37)" d="m64.47 296.67-2.23-1.29v-2.23l2.23 1.29v2.23Z" />
      <path d="m75.18 299.3-4.29 2.48v-5.07l4.29-2.48v5.07Z" class="cls-53" />
      <path
        d="m65.34 285.98-13.52-7.81v4.43l1.97 3.3 9.6 5.53 1.95-1.03v-4.43ZM51.29 283.95l-3.24-1.87v-1.89l3.24 1.87v1.89ZM69.1 294.23l-3.22-1.87v-1.87l3.22 1.85v1.89Z"
        class="cls-23"
      />
      <path d="m210.92 284.39-33.99-19.84 33.91-19.66 33.99 19.84-33.91 19.66Z" class="cls-48" />
      <path d="m211 328.62-34.23-19.9v-44.31l34.23 19.9v44.31Z" class="cls-26" />
      <path d="M244.83 309 211 328.62v-44.31l33.83-19.62V309Z" class="cls-37" />
      <path d="m221.62 322.43 14.87-8.59v-33.67l-14.87 8.57v33.69Z" class="cls-8" />
      <path
        d="M221.62 305.2v-16.46l14.87-8.57v33.67l-14.87-8.63ZM194.8 296.69l11.79 6.8v-11.63l-11.79-6.82v11.65ZM181.17 288.82l11.79 6.8v-11.63l-11.79-6.8v11.63Z"
        class="cls-8"
      />
    </g>
  </svg>