<svg xmlns="http://www.w3.org/2000/svg" id="Layer_2" data-name="Layer 2" viewBox="0 0 526 499"><defs><linearGradient id="linear-gradient" x1="218.82" x2="366.74" y1="2433.81" y2="2616.91" gradientTransform="matrix(1 0 0 -1 0 2735.57)" gradientUnits="userSpaceOnUse"><stop offset="0" stop-color="#f64d65"/><stop offset="1" stop-color="#0099c8"/></linearGradient><linearGradient id="linear-gradient-2" x1="285.65" x2="285.65" y1="2399.07" y2="2407.83" gradientTransform="matrix(1 0 0 -1 0 2735.57)" gradientUnits="userSpaceOnUse"><stop offset="0" stop-color="#a1a4a6"/><stop offset="1" stop-color="#d1d1d1"/></linearGradient><linearGradient id="linear-gradient-3" x1="304.17" x2="267.96" y1="2471.28" y2="2355.82" gradientTransform="matrix(1 0 0 -1 0 2735.57)" gradientUnits="userSpaceOnUse"><stop offset="0" stop-color="#d9dde0"/><stop offset="1" stop-color="#f0f0f0"/></linearGradient><linearGradient id="linear-gradient-4" x1="261.1" x2="310.19" y1="2413.97" y2="2413.97" gradientTransform="matrix(1 0 0 -1 0 2735.57)" gradientUnits="userSpaceOnUse"><stop offset="0" stop-color="#b3b3b3"/><stop offset=".16" stop-color="#e6e6e6"/><stop offset=".84" stop-color="#e6e6e6"/><stop offset="1" stop-color="#b2b2b2"/></linearGradient><linearGradient id="linear-gradient-5" x1="332.98" x2="340" y1="2527.91" y2="2527.91" gradientTransform="matrix(1 0 0 -1 0 2735.57)" gradientUnits="userSpaceOnUse"><stop offset="0" stop-color="#0a0141"/><stop offset="1" stop-color="#0f218b"/></linearGradient><linearGradient id="linear-gradient-6" x1="116.45" x2="196.67" y1="2443.45" y2="2490.73" gradientTransform="matrix(1 0 0 -1 0 2735.57)" gradientUnits="userSpaceOnUse"><stop offset="0" stop-color="#ffe6e6"/><stop offset="1" stop-color="#d6f5ff"/></linearGradient><clipPath id="clippath"><path d="M332.98 204.14h7.01v7.01h-7.01z" class="cls-18"/></clipPath><clipPath id="clippath-1"><path d="M349.64 204.14h7.01v7.01h-7.01z" class="cls-18"/></clipPath><clipPath id="clippath-2"><path d="M349.64 221.67h7.01v7.01h-7.01z" class="cls-18"/></clipPath><clipPath id="clippath-3"><path d="M349.64 239.2h7.01v7.01h-7.01z" class="cls-18"/></clipPath><style>.cls-2{fill:#7eb4e5}.cls-3{fill:#fff}.cls-10{fill:#7ae88c}.cls-11{opacity:.6}.cls-12{fill:#c9c9cf}.cls-18{fill:none}.cls-23{fill:#e3e3e9}</style></defs><g id="Layer_1-2" data-name="Layer 1"><path d="M0 0h526v499H0z" class="cls-18"/><path fill="#1a1a1a" d="M119.09 127.87c0-4.84 3.93-8.77 8.77-8.77h315.58c4.84 0 8.77 3.92 8.77 8.77v191.1H119.09v-191.1Z"/><path d="M132.24 132.25h306.81v173.57H132.24V132.25Z" class="cls-18"/><g class="cls-11"><path fill="#fff" d="M132.24 132.25h306.81v173.57H132.24z" opacity=".7" style="isolation:isolate"/><path fill="url(#linear-gradient)" d="M132.24 132.25h306.81v173.57H132.24z" opacity=".2" style="isolation:isolate"/><path fill="url(#linear-gradient)" d="M132.24 132.25h306.81v173.57H132.24z" opacity=".8"/></g><path fill="url(#linear-gradient-2)" d="M474.12 327.74H97.17s9.32 5.3 69.25 7.89h238.44c59.93-2.59 69.25-7.89 69.25-7.89Z"/><path fill="url(#linear-gradient-3)" d="M97.17 318.97h376.95c2.42 0 4.38 1.96 4.38 4.38s-1.96 4.38-4.38 4.38H97.17c-2.42 0-4.38-1.96-4.38-4.38s1.96-4.38 4.38-4.38Z"/><path fill="url(#linear-gradient-4)" d="M261.1 318.97h49.09v.88c0 2.42-1.96 4.38-4.38 4.38h-40.32c-2.42 0-4.38-1.96-4.38-4.38v-.88Z"/><path d="M172.56 144.86c0-2.12 1.87-3.84 4.18-3.84h221.32c2.31 0 4.18 1.72 4.18 3.84v148.35c0 2.12-1.87 3.84-4.18 3.84H176.74c-2.31 0-4.18-1.72-4.18-3.84V144.86Z" class="cls-3"/><path d="M172.56 144.7c0-2.03 1.87-3.68 4.18-3.68h221.32c2.31 0 4.18 1.65 4.18 3.68v7.36H172.56v-7.36Z" class="cls-3"/><path fill="#ff5f57" d="M180.99 147.1c0 1.03-.84 1.87-1.87 1.87s-1.87-.84-1.87-1.87.84-1.87 1.87-1.87 1.87.84 1.87 1.87Z"/><path fill="#ffbd2e" d="M186.6 147.1c0 1.03-.84 1.87-1.87 1.87s-1.87-.84-1.87-1.87.84-1.87 1.87-1.87 1.87.84 1.87 1.87Z"/><path fill="#29cc41" d="M192.22 147.1c0 1.03-.84 1.87-1.87 1.87s-1.87-.84-1.87-1.87.84-1.87 1.87-1.87 1.87.84 1.87 1.87Z"/><path d="M220.2 205.72h25.66c1.13 0 2.05.92 2.05 2.05s-.92 2.05-2.05 2.05H220.2c-1.13 0-2.05-.92-2.05-2.05s.92-2.05 2.05-2.05Z" class="cls-23"/><rect width="78.02" height="12.27" x="266.36" y="201.51" class="cls-23" rx="2.19" ry="2.19"/><g clip-path="url(#clippath)"><path fill="url(#linear-gradient-5)" d="m335.64 206.55-.92 2.22h-.6l-.45-1.77c-.03-.11-.05-.15-.13-.19-.14-.08-.36-.15-.56-.19v-.07h.98c.12 0 .23.08.26.23l.24 1.28.59-1.51h.59Zm2.35 1.5c0-.59-.8-.62-.8-.88 0-.08.08-.16.24-.19.08-.01.3-.02.56.1l.1-.47c-.14-.05-.31-.1-.53-.1-.56 0-.95.3-.96.73 0 .32.28.5.5.6.22.11.3.18.3.28 0 .15-.18.21-.34.22-.29 0-.45-.08-.58-.14l-.1.49c.13.06.38.11.63.12.59 0 .98-.3.98-.76Zm1.48.72h.52l-.46-2.22h-.48c-.11 0-.2.06-.24.16l-.85 2.05h.59l.12-.33h.73l.07.34Zm-.63-.79.3-.83.17.83h-.47Zm-2.39-1.43-.47 2.22h-.56l.47-2.22h.56Z" class="cls-11"/></g><rect width="43.83" height="3.51" x="270.74" y="205.89" class="cls-12" rx="1.75" ry="1.75"/><path d="M220.2 223.63h34.39c1.13 0 2.05.92 2.05 2.05s-.92 2.05-2.05 2.05H220.2c-1.13 0-2.05-.92-2.05-2.05s.92-2.05 2.05-2.05Z" class="cls-23"/><rect width="78.02" height="12.27" x="266.36" y="219.04" class="cls-23" rx="2.19" ry="2.19"/><path d="M272.93 223.63h21.04a2.19 2.19 0 1 1 0 4.38h-21.04a2.19 2.19 0 1 1 0-4.38Z" class="cls-12"/><path d="M220.2 239.88h16.42c1.13 0 2.05.92 2.05 2.05s-.92 2.05-2.05 2.05H220.2c-1.13 0-2.05-.92-2.05-2.05s.92-2.05 2.05-2.05Z" class="cls-23"/><rect width="28.05" height="12.27" x="266.36" y="236.66" class="cls-23" rx="2.19" ry="2.19"/><path d="M272.93 241.04h7.01a2.19 2.19 0 1 1 0 4.38h-7.01a2.19 2.19 0 1 1 0-4.38Z" class="cls-12"/><rect width="42.95" height="12.27" x="301.42" y="236.57" class="cls-23" rx="2.19" ry="2.19"/><path d="M308 241.04h12.27a2.19 2.19 0 1 1 0 4.38H308a2.19 2.19 0 1 1 0-4.38Z" class="cls-12"/><g clip-path="url(#clippath-1)"><path d="M352.81 210.02c-.32.32-.83.32-1.15 0l-1.78-1.78c-.32-.32-.32-.83 0-1.15s.83-.32 1.15 0l1.06 1.06c.08.08.21.08.29 0l2.88-2.88c.32-.32.83-.32 1.15 0 .15.15.24.36.24.58s-.09.42-.24.58l-3.6 3.6Z" class="cls-10"/></g><g clip-path="url(#clippath-2)"><path d="M352.81 227.55c-.32.32-.83.32-1.15 0l-1.78-1.78c-.32-.32-.32-.83 0-1.15s.83-.32 1.15 0l1.06 1.06c.08.08.21.08.29 0l2.88-2.88c.32-.32.83-.32 1.15 0 .15.15.24.36.24.58s-.09.42-.24.58l-3.6 3.6Z" class="cls-10"/></g><g clip-path="url(#clippath-3)"><path d="M352.81 245.08c-.32.32-.83.32-1.15 0l-1.78-1.78c-.32-.32-.32-.83 0-1.15s.83-.32 1.15 0l1.06 1.06c.08.08.21.08.29 0l2.88-2.88c.32-.32.83-.32 1.15 0 .15.15.24.36.24.58s-.09.42-.24.58l-3.6 3.6Z" class="cls-10"/></g><rect width="77.14" height="16.66" x="267.44" y="258.63" fill="#7eb4e6" rx="8.33" ry="8.33"/><path d="M288.2 268.86h-.77v-3.01h-1.34v3.01h-.77v-3.65h2.89v3.65Zm3.36 0h-.76v-2.22h-.7c-.05.62-.12 1.09-.2 1.4-.08.31-.18.53-.31.67s-.29.2-.5.2c-.18 0-.32-.03-.43-.08v-.61c.08.03.16.05.24.05.09 0 .17-.07.24-.2.07-.14.12-.36.17-.68.05-.32.1-.76.13-1.32h2.11v2.79Zm2.57 0-.15-.38h-.02c-.13.16-.26.27-.4.34-.13.06-.31.09-.53.09-.27 0-.48-.08-.63-.23-.15-.15-.23-.37-.23-.65s.1-.51.31-.65.52-.22.94-.23l.48-.02v-.12c0-.28-.14-.42-.43-.42-.22 0-.49.07-.79.2l-.25-.51c.32-.17.68-.25 1.07-.25s.66.08.86.24c.2.16.3.41.3.74v1.86h-.53Zm-.22-1.29h-.29c-.22.02-.39.06-.49.13-.11.07-.16.18-.16.33 0 .21.12.32.37.32.18 0 .32-.05.42-.15.11-.1.16-.24.16-.4v-.23Zm3.85-1.5v.57h-.91v2.22h-.76v-2.22h-.92v-.57h2.59Zm1.26 0v1.1c0 .12-.02.4-.06.85l1.29-1.96h.92v2.79h-.74v-1.11c0-.2.02-.48.05-.84l-1.28 1.95h-.91v-2.79h.74Zm5.26 0v.57h-.91v2.22h-.76v-2.22h-.92v-.57h2.59Zm1.28 1.08h.54c.43 0 .75.07.95.21.21.14.31.34.31.62 0 .59-.41.89-1.23.89h-1.33v-2.79h.76v1.08Zm1.04.83c0-.11-.04-.19-.13-.23-.09-.05-.22-.07-.39-.07h-.52v.66h.53c.34 0 .51-.12.51-.35Zm2.45-.67c0-.72.15-1.26.46-1.61.31-.35.76-.53 1.37-.53.21 0 .37.01.49.04v.62c-.15-.03-.29-.05-.44-.05-.26 0-.48.04-.65.12-.17.08-.29.2-.37.35-.08.16-.13.38-.15.67h.03c.16-.28.43-.42.79-.42.33 0 .58.1.77.31.18.21.28.49.28.85 0 .39-.11.7-.33.93-.22.23-.52.34-.91.34-.27 0-.51-.06-.71-.19-.2-.12-.35-.31-.46-.55-.11-.24-.16-.53-.16-.87Zm1.32.98c.17 0 .29-.05.38-.16.09-.11.13-.27.13-.47 0-.18-.04-.32-.12-.42-.08-.1-.21-.15-.37-.15s-.29.05-.4.15c-.11.1-.16.22-.16.36 0 .2.05.37.15.5.1.14.24.2.4.2Zm2.89-3.13c.35 0 .63.08.84.24.21.16.32.37.32.64 0 .19-.05.35-.15.5-.1.14-.27.27-.5.39.27.15.47.3.59.46.12.16.18.33.18.52 0 .3-.12.54-.35.72-.23.18-.54.27-.93.27s-.71-.08-.94-.25c-.23-.17-.34-.41-.34-.72 0-.21.05-.39.16-.55.11-.16.29-.3.53-.43-.21-.13-.36-.27-.45-.42a.931.931 0 0 1-.14-.49c0-.26.11-.47.33-.63.22-.16.5-.24.85-.24Zm-.57 2.73c0 .14.05.25.15.33.1.08.24.12.41.12.19 0 .33-.04.43-.12.09-.08.14-.19.14-.33 0-.11-.05-.22-.14-.31-.09-.1-.25-.2-.46-.31-.35.16-.53.37-.53.62Zm.56-2.16c-.13 0-.24.03-.32.1-.08.07-.12.16-.12.27 0 .1.03.19.09.27.07.08.18.16.35.24.16-.08.28-.15.34-.23.07-.08.1-.17.1-.28 0-.12-.04-.21-.12-.27a.472.472 0 0 0-.32-.1Zm2.61 2.6c-.09.34-.23.73-.44 1.2h-.55c.11-.44.19-.86.25-1.25h.7l.04.06Zm1.87-1.79c.35 0 .63.1.84.3.21.2.31.47.31.81 0 .41-.13.72-.38.94-.25.22-.61.33-1.08.33-.41 0-.73-.07-.98-.2v-.67c.13.07.28.13.46.17.18.04.34.06.5.06.47 0 .71-.19.71-.58s-.24-.55-.73-.55c-.09 0-.19 0-.29.03-.11.02-.19.04-.26.05l-.31-.17.14-1.86h1.98v.65h-1.3l-.07.72.09-.02c.1-.02.23-.03.38-.03Zm4.13.51c0 .64-.11 1.11-.31 1.42-.21.31-.53.46-.96.46s-.74-.16-.95-.47c-.21-.32-.32-.78-.32-1.4s.1-1.12.31-1.42c.21-.31.53-.46.96-.46s.74.16.95.48c.22.32.32.79.32 1.4Zm-1.79 0c0 .45.04.77.11.96.08.19.21.29.39.29s.31-.1.39-.29c.08-.2.12-.52.12-.96s-.04-.77-.12-.96c-.08-.2-.21-.29-.39-.29s-.31.1-.39.29c-.08.2-.12.52-.12.96Zm5.3-1.23c-.2 0-.37.06-.5.18s-.22.29-.25.51h1.01v.44h-1.04v.29h.89v.44h-.84c.08.4.35.61.8.61.24 0 .47-.05.69-.14v.64c-.19.1-.44.15-.73.15-.41 0-.74-.11-1.01-.33-.26-.22-.43-.53-.5-.92h-.34v-.44h.29s-.01-.09-.01-.15v-.13h-.28v-.44h.33c.06-.4.23-.72.5-.95.27-.23.61-.35 1.01-.35.31 0 .61.07.88.21l-.24.58c-.11-.05-.22-.09-.32-.12s-.2-.05-.31-.05Z" class="cls-3"/><rect width="38.57" height="28.05" x="218.15" y="164.69" class="cls-3" rx="2.19" ry="2.19"/><rect width="38.57" height="28.05" x="218.15" y="164.69" class="cls-18" rx="2.19" ry="2.19"/><path d="M263.91 187.54c0-.72.15-1.26.46-1.61.31-.35.76-.53 1.37-.53.21 0 .37.01.49.04v.62c-.15-.03-.29-.05-.44-.05-.27 0-.48.04-.65.12-.17.08-.29.2-.37.35s-.13.38-.15.67h.03c.17-.28.43-.42.79-.42.33 0 .58.1.77.31.18.2.28.49.28.85 0 .39-.11.7-.33.93-.22.23-.52.34-.91.34-.27 0-.51-.06-.71-.19-.2-.12-.36-.31-.46-.55-.11-.24-.16-.53-.16-.87Zm1.32.98c.16 0 .29-.05.38-.17.09-.11.13-.27.13-.47 0-.18-.04-.32-.12-.42-.08-.1-.21-.15-.37-.15s-.29.05-.4.15c-.11.1-.17.22-.17.36 0 .2.05.37.15.5.11.14.24.2.4.2Zm2.89-3.13c.35 0 .63.08.84.24.21.16.32.37.32.64 0 .19-.05.35-.15.5-.1.14-.27.27-.5.39.27.15.47.3.59.46.12.16.18.33.18.52 0 .3-.12.54-.35.72-.24.18-.54.27-.93.27s-.71-.08-.94-.25c-.23-.17-.34-.41-.34-.72 0-.21.05-.39.16-.55.11-.16.29-.3.53-.43-.21-.13-.36-.27-.45-.42a.931.931 0 0 1-.14-.49c0-.26.11-.47.32-.63.22-.16.5-.24.85-.24Zm-.57 2.73c0 .14.05.25.15.33.1.08.24.12.41.12.19 0 .33-.04.43-.12.09-.08.14-.19.14-.33 0-.11-.05-.22-.14-.31-.09-.1-.25-.2-.46-.31-.35.16-.53.37-.53.62Zm.56-2.16c-.13 0-.24.03-.32.1-.08.07-.12.16-.12.27 0 .1.03.19.09.27.07.08.18.16.35.24.16-.08.28-.15.34-.23s.1-.17.1-.28c0-.12-.04-.21-.12-.27a.472.472 0 0 0-.32-.1Zm2.61 2.6c-.09.34-.23.73-.44 1.2h-.55c.11-.44.19-.86.25-1.25h.7l.04.06Zm1.87-1.8c.35 0 .63.1.84.3.21.2.31.47.31.81 0 .41-.13.72-.38.94s-.61.33-1.08.33c-.41 0-.73-.07-.98-.2v-.67c.13.07.28.13.46.17.17.04.34.07.5.07.47 0 .71-.19.71-.58s-.24-.55-.73-.55c-.09 0-.19 0-.29.03-.11.02-.19.03-.26.05l-.31-.17.14-1.86h1.98v.65h-1.3l-.07.72.09-.02c.1-.02.23-.04.38-.04Zm4.12.51c0 .64-.1 1.11-.31 1.42-.21.31-.53.46-.96.46s-.74-.16-.95-.47c-.21-.32-.32-.78-.32-1.4s.1-1.12.31-1.42c.21-.31.53-.46.96-.46s.74.16.95.48c.22.32.32.79.32 1.4Zm-1.79 0c0 .45.04.77.12.96.08.19.21.29.39.29s.31-.1.39-.29c.08-.2.12-.52.12-.96s-.04-.77-.12-.96c-.08-.2-.21-.29-.39-.29s-.31.1-.39.29c-.08.2-.12.52-.12.96Zm5.3-1.23c-.2 0-.37.06-.5.18s-.22.29-.25.51h1.01v.44h-1.04v.29h.89v.44h-.84c.09.4.35.61.8.61.24 0 .47-.05.69-.14v.64c-.19.1-.44.15-.73.15-.41 0-.74-.11-1.01-.33-.26-.22-.43-.53-.5-.92h-.34v-.44h.29v-.28h-.28v-.44h.33c.06-.4.23-.72.5-.95.27-.23.61-.35 1.01-.35.31 0 .61.07.88.2l-.24.58c-.11-.05-.22-.09-.32-.12s-.2-.04-.31-.04ZM265.78 164.69h34.39c1.13 0 2.05.92 2.05 2.05s-.92 2.05-2.05 2.05h-34.39c-1.13 0-2.05-.92-2.05-2.05s.92-2.05 2.05-2.05Z" class="cls-2"/><path d="M265.92 172.58h18.41a2.19 2.19 0 1 1 0 4.38h-18.41a2.19 2.19 0 1 1 0-4.38Z" class="cls-23"/><circle cx="154.15" cy="273.24" r="106.65" class="cls-3"/><path fill="url(#linear-gradient-6)" d="M198.31 247.72c-.13-2.77-.13-5.41-.13-8.05 0-2.14-1.64-3.77-3.77-3.77-15.72 0-27.67-4.53-37.61-14.21a3.884 3.884 0 0 0-5.28 0c-9.94 9.69-21.89 14.21-37.61 14.21-2.14 0-3.77 1.63-3.77 3.77 0 2.64 0 5.28-.13 8.05-.5 26.42-1.26 62.64 42.9 77.87l1.26.25 1.26-.25c44.03-15.22 43.4-51.32 42.89-77.87Zm-47.17 36.61c-.75.63-1.64 1.01-2.64 1.01h-.13c-1.01 0-2.01-.5-2.64-1.26l-11.7-12.96 5.66-5.03 9.18 10.19 20.38-19.37 5.16 5.54-23.27 21.89Z"/></g></svg>